<?xml version="1.0" encoding="UTF-8"?>
<svg width="175px" height="121px" viewBox="0 0 175 121" version="1.1" xmlns="http://www.w3.org/2000/svg" xmlns:xlink="http://www.w3.org/1999/xlink">
    <!-- Generator: Sketch 53.2 (72643) - https://sketchapp.com -->
    <title>Group 77</title>
    <desc>Created with Sketch.</desc>
    <defs>
        <polygon id="path-1" points="0.0002 0.7845 174.73 0.7845 174.73 9.9995 0.0002 9.9995"></polygon>
        <polygon id="path-3" points="0.925 0.682 5.482 49.275 118.699 49.275 124.776 0.682"></polygon>
        <linearGradient x1="-0.000228581118%" y1="50.0000558%" x2="99.9999915%" y2="50.0000558%" id="linearGradient-5">
            <stop stop-color="#0EEFEF" offset="0%"></stop>
            <stop stop-color="#2F56F9" offset="100%"></stop>
        </linearGradient>
        <polygon id="path-6" points="0.627 0.45 141.154 0.45 141.154 8.72 0.627 8.72"></polygon>
        <linearGradient x1="-0.000167725775%" y1="50.0009577%" x2="100.000077%" y2="50.0009577%" id="linearGradient-8">
            <stop stop-color="#2F95E4" offset="0%"></stop>
            <stop stop-color="#7033DD" offset="100%"></stop>
        </linearGradient>
    </defs>
    <g id="Page-1" stroke="none" stroke-width="1" fill="none" fill-rule="evenodd">
        <g id="Group-77">
            <g id="Group-3" transform="translate(0.000000, 110.172000)">
                <mask id="mask-2" fill="white">
                    <use xlink:href="#path-1"></use>
                </mask>
                <g id="Clip-2"></g>
                <path d="M174.7302,5.3925 C174.7302,7.9375 135.6152,9.9995 87.3672,9.9995 C39.1152,9.9995 0.0002,7.9375 0.0002,5.3925 C0.0002,2.8505 39.1152,0.7845 87.3672,0.7845 C135.6152,0.7845 174.7302,2.8505 174.7302,5.3925" id="Fill-1" fill="#C6C6C6" mask="url(#mask-2)"></path>
            </g>
            <polygon id="Fill-4" fill="#D4FAFC" points="48.54 31.198 50.498 31.198 50.498 8.5 48.54 8.5"></polygon>
            <polygon id="Fill-5" fill="#D4FAFC" points="51.666 24.732 53.624 24.732 53.624 13.38 51.666 13.38"></polygon>
            <polygon id="Fill-6" fill="#D4FAFC" points="55.585 34.871 57.543 34.871 57.543 3.278 55.585 3.278"></polygon>
            <polygon id="Fill-7" fill="#D4FAFC" points="58.711 30.641 60.676 30.641 60.676 8.5 58.711 8.5"></polygon>
            <polygon id="Fill-8" fill="#D4FAFC" points="34.447 31.198 36.408 31.198 36.408 8.5 34.447 8.5"></polygon>
            <polygon id="Fill-9" fill="#D4FAFC" points="30.538 24.732 32.493 24.732 32.493 12.094 30.538 12.094"></polygon>
            <polygon id="Fill-10" fill="#D4FAFC" points="26.622 22.971 28.58 22.971 28.58 14.741 26.622 14.741"></polygon>
            <polygon id="Fill-11" fill="#D4FAFC" points="23.486 20.618 25.444 20.618 25.444 16.505 23.486 16.505"></polygon>
            <polygon id="Fill-12" fill="#D4FAFC" points="37.583 24.732 39.534 24.732 39.534 13.38 37.583 13.38"></polygon>
            <polygon id="Fill-13" fill="#D4FAFC" points="41.492 30.641 43.45 30.641 43.45 6.157 41.492 6.157"></polygon>
            <polygon id="Fill-14" fill="#D4FAFC" points="45.411 27.955 47.363 27.955 47.363 9.086 45.411 9.086"></polygon>
            <polygon id="Fill-15" fill="#D4FAFC" points="76.327 31.198 78.284 31.198 78.284 8.5 76.327 8.5"></polygon>
            <polygon id="Fill-16" fill="#D4FAFC" points="79.459 24.732 81.417 24.732 81.417 13.38 79.459 13.38"></polygon>
            <polygon id="Fill-17" fill="#D4FAFC" points="83.378 27.366 85.33 27.366 85.33 3.278 83.378 3.278"></polygon>
            <polygon id="Fill-18" fill="#D4FAFC" points="86.504 30.641 88.465 30.641 88.465 8.5 86.504 8.5"></polygon>
            <polygon id="Fill-19" fill="#D4FAFC" points="62.24 31.198 64.195 31.198 64.195 14.74 62.24 14.74"></polygon>
            <polygon id="Fill-20" fill="#D4FAFC" points="65.369 24.732 67.327 24.732 67.327 13.38 65.369 13.38"></polygon>
            <polygon id="Fill-21" fill="#D4FAFC" points="69.282 34.871 71.24 34.871 71.24 1.808 69.282 1.808"></polygon>
            <polygon id="Fill-22" fill="#D4FAFC" points="72.414 27.366 74.372 27.366 74.372 8.5 72.414 8.5"></polygon>
            <polygon id="Fill-23" fill="#D4FAFC" points="104.116 31.198 106.074 31.198 106.074 8.5 104.116 8.5"></polygon>
            <polygon id="Fill-24" fill="#D4FAFC" points="107.248 24.732 109.203 24.732 109.203 13.38 107.248 13.38"></polygon>
            <polygon id="Fill-25" fill="#D4FAFC" points="111.164 34.871 113.122 34.871 113.122 12.094 111.164 12.094"></polygon>
            <polygon id="Fill-26" fill="#D4FAFC" points="114.293 30.641 116.255 30.641 116.255 8.5 114.293 8.5"></polygon>
            <polygon id="Fill-27" fill="#D4FAFC" points="90.026 27.366 91.984 27.366 91.984 8.5 90.026 8.5"></polygon>
            <polygon id="Fill-28" fill="#D4FAFC" points="93.158 24.732 95.113 24.732 95.113 13.38 93.158 13.38"></polygon>
            <polygon id="Fill-29" fill="#D4FAFC" points="97.071 37.395 99.032 37.395 99.032 0.001 97.071 0.001"></polygon>
            <polygon id="Fill-30" fill="#D4FAFC" points="100.203 27.366 102.158 27.366 102.158 8.5 100.203 8.5"></polygon>
            <polygon id="Fill-31" fill="#D4FAFC" points="131.909 31.198 133.863 31.198 133.863 8.5 131.909 8.5"></polygon>
            <polygon id="Fill-32" fill="#D4FAFC" points="135.038 24.732 136.996 24.732 136.996 13.38 135.038 13.38"></polygon>
            <polygon id="Fill-33" fill="#D4FAFC" points="138.954 27.366 140.908 27.366 140.908 3.278 138.954 3.278"></polygon>
            <polygon id="Fill-34" fill="#D4FAFC" points="142.083 30.641 144.041 30.641 144.041 8.5 142.083 8.5"></polygon>
            <polygon id="Fill-35" fill="#D4FAFC" points="145.995 22.971 147.957 22.971 147.957 13.292 145.995 13.292"></polygon>
            <polygon id="Fill-36" fill="#D4FAFC" points="149.131 19.847 151.086 19.847 151.086 14.741 149.131 14.741"></polygon>
            <polygon id="Fill-37" fill="#D4FAFC" points="152.257 19.847 154.218 19.847 154.218 16.506 152.257 16.506"></polygon>
            <polygon id="Fill-38" fill="#D4FAFC" points="117.819 31.198 119.773 31.198 119.773 14.74 117.819 14.74"></polygon>
            <polygon id="Fill-39" fill="#D4FAFC" points="120.948 24.732 122.902 24.732 122.902 13.38 120.948 13.38"></polygon>
            <polygon id="Fill-40" fill="#D4FAFC" points="124.863 34.871 126.818 34.871 126.818 3.278 124.863 3.278"></polygon>
            <polygon id="Fill-41" fill="#D4FAFC" points="127.993 27.366 129.951 27.366 129.951 8.5 127.993 8.5"></polygon>
            <polygon id="Fill-42" fill="#2A1842" points="31.5876 71.8921 153.9156 71.7401 151.4086 91.7731 32.2346 78.8001"></polygon>
            <g id="Group-63" transform="translate(73.000000, 9.172000)">
                <path d="M33.4548,18.0736 C31.0808,14.4726 29.9858,6.9186 35.7658,2.6836 C43.4698,-2.9534 50.6988,3.9166 51.0828,7.8186 C51.2668,9.6786 50.7598,11.2156 53.6828,12.9386 C57.8738,15.4186 57.1088,19.2726 56.0118,21.1616 C55.1958,22.5626 52.3368,25.7866 55.3388,28.1636 C57.4488,29.8356 57.5688,36.8216 53.8818,40.4066 C51.7678,42.4596 48.4338,44.7066 44.0188,41.9326 C39.6008,39.1586 43.6728,35.3096 42.0038,30.2896 C40.3348,25.2696 35.5018,21.1836 33.4548,18.0736" id="Fill-43" fill="#90236E"></path>
                <path d="M24.7566,30.8261 C24.7566,30.8261 22.7786,36.5971 20.2286,37.6181 C17.6736,38.6431 7.7536,42.3531 7.7536,42.3531 C7.7536,42.3531 2.7206,42.8341 0.9786,45.8151 C0.9786,45.8151 7.3156,46.3201 8.8706,45.2231 C8.8706,45.2231 18.9746,42.4021 22.2306,41.1091 C24.8046,40.0811 26.5846,38.9531 29.3736,32.5191 L24.7566,30.8261 Z" id="Fill-45" fill="#FAA284"></path>
                <path d="M36.2693,23.3178 C36.2693,23.3178 37.7733,26.5088 27.7393,36.0098 C27.7393,36.0098 24.3093,36.1758 22.8333,33.5458 C22.8333,33.5458 30.1073,20.1858 36.2693,23.3178" id="Fill-47" fill="#FBDADC"></path>
                <path d="M34.6316,12.6425 C34.3746,17.0865 37.0756,20.8455 40.6616,21.0375 C44.2506,21.2305 45.7296,17.3295 45.9856,12.8885 C46.2466,8.4355 45.1906,5.1325 41.5976,4.9385 C38.0116,4.7465 34.8926,8.1935 34.6316,12.6425" id="Fill-49" fill="#FFBE7A"></path>
                <path d="M37.866,5.0101 C37.866,5.0101 46.018,6.3841 42.905,13.9611 C41.474,17.4441 43.908,21.5971 43.416,22.4401 C42.928,23.2821 51.784,12.2631 44.853,3.2541 C44.853,3.2541 40.703,-0.0159 37.866,5.0101" id="Fill-51" fill="#90236E"></path>
                <path d="M39.1765,5.3705 C39.1765,5.3705 39.4615,6.2475 35.7145,11.9095 C34.0675,14.4035 35.9205,19.0905 35.9205,19.0905 C35.9205,19.0905 31.0905,12.7405 34.9615,6.8395 C38.8365,0.9375 37.2215,0.8355 39.1765,5.3705" id="Fill-53" fill="#90236E"></path>
                <path d="M35.6667,22.5336 C35.6667,22.5336 26.1077,24.8056 29.0277,34.2566 C31.9407,43.7116 29.4467,48.7886 28.4727,53.6596 C28.4727,53.6596 45.0407,66.6076 52.3367,54.7776 C52.3367,54.7776 50.6327,47.4556 50.9427,37.2456 C51.2227,28.0936 48.5947,19.4606 35.6667,22.5336" id="Fill-55" fill="#77D2FF"></path>
                <path d="M37.7107,19.0907 L38.1287,23.7767 C38.1287,23.7767 39.8557,25.5097 42.6897,23.5607 L42.5717,19.1637 L37.7107,19.0907 Z" id="Fill-57" fill="#FFBE7A"></path>
                <path d="M37.9763,35.0575 C37.9763,35.0575 35.8753,41.0455 33.1783,42.0935 C30.4843,43.1295 19.9933,46.8895 19.9933,46.8895 C19.9933,46.8895 14.6673,47.3365 12.8283,50.4235 C12.8283,50.4235 19.5303,51.0175 21.1673,49.8945 C21.1673,49.8945 31.8553,47.0675 35.2953,45.7485 C38.0183,44.7125 39.8963,43.5585 42.8543,36.8745 L37.9763,35.0575 Z" id="Fill-59" fill="#FAA284"></path>
                <path d="M46.8308,26.3495 C48.4358,27.4115 48.4518,33.6625 40.6618,43.0215 C40.6618,43.0215 36.5488,42.7595 34.8478,40.0875 C34.8478,40.0875 40.7308,22.3005 46.8308,26.3495" id="Fill-61" fill="#FBDADC"></path>
            </g>
            <g id="Group-66" transform="translate(30.000000, 64.172000)">
                <mask id="mask-4" fill="white">
                    <use xlink:href="#path-3"></use>
                </mask>
                <g id="Clip-65"></g>
                <polygon id="Fill-64" fill="url(#linearGradient-5)" mask="url(#mask-4)" points="0.925 0.682 5.482 49.275 118.699 49.275 124.776 0.682"></polygon>
            </g>
            <g id="Group-69" transform="translate(21.000000, 63.172000)">
                <mask id="mask-7" fill="white">
                    <use xlink:href="#path-6"></use>
                </mask>
                <g id="Clip-68"></g>
                <polygon id="Fill-67" fill="url(#linearGradient-8)" mask="url(#mask-7)" points="0.627 8.72 141.154 8.72 141.154 0.45 0.627 0.45"></polygon>
            </g>
            <g id="Group-76" transform="translate(61.000000, 44.172000)">
                <polygon id="Fill-70" fill="#BFDBDB" points="52.7976 20.8939 32.3556 20.4619 32.3966 18.5079 52.8426 18.9389"></polygon>
                <polygon id="Fill-72" fill="#D4FAFC" points="0.2214 0.3114 28.6804 0.9084 34.1484 20.5004 5.7044 19.8944"></polygon>
                <path d="M18.573,11.8817 C18.545,13.2617 17.399,14.3567 16.025,14.3287 C14.637,14.2997 13.543,13.1567 13.568,11.7767 C13.597,10.3937 14.746,9.3047 16.123,9.3297 C17.501,9.3587 18.604,10.5017 18.573,11.8817" id="Fill-74" fill="#FFFFFF"></path>
            </g>
        </g>
    </g>
</svg>