<?xml version="1.0" encoding="UTF-8"?>
<svg width="157px" height="152px" viewBox="0 0 157 152" version="1.1" xmlns="http://www.w3.org/2000/svg" xmlns:xlink="http://www.w3.org/1999/xlink">
    <!-- Generator: Sketch 53.2 (72643) - https://sketchapp.com -->
    <title>Group 137</title>
    <desc>Created with Sketch.</desc>
    <defs>
        <polygon id="path-1" points="0.426116631 0.5951 12.5893 0.5951 12.5893 5 0.426116631 5"></polygon>
        <path d="M14.341,0.927 C12.359,2.074 10.38,4.632 9.532,7.8 L9.532,7.8 C7.75,14.471 8.435,25.483 0.9,30.056 L0.9,30.056 L38.928,8.247 C37.212,3.659 35.325,1.992 32.991,3.339 L32.991,3.339 C32.616,3.56 32.221,3.855 31.815,4.24 L31.815,4.24 C29.18,6.713 27.743,14.563 24.094,16.671 L24.094,16.671 C20.433,18.783 20.603,10.136 19.423,3.603 L19.423,3.603 C19.006,1.267 17.852,0.278 16.461,0.278 L16.461,0.278 C15.791,0.278 15.066,0.507 14.341,0.927" id="path-3"></path>
        <linearGradient x1="-0.00178158199%" y1="50.0003707%" x2="99.9972452%" y2="50.0003707%" id="linearGradient-5">
            <stop stop-color="#4844E8" offset="0%"></stop>
            <stop stop-color="#341F97" offset="100%"></stop>
        </linearGradient>
        <path d="M15.915,0.793 C11.336,3.435 7.4,19.41 6.357,32.251 L6.357,32.251 C5.592,41.579 2.746,45.878 0.086,47.413 L0.086,47.413 C-1.708,48.451 26.531,32.269 26.531,32.269 L26.531,32.269 C20.775,35.161 24.734,5.911 18.984,1.138 L18.984,1.138 C18.393,0.645 17.803,0.414 17.219,0.414 L17.219,0.414 C16.78,0.414 16.345,0.544 15.915,0.793" id="path-6"></path>
        <linearGradient x1="0.000353215816%" y1="49.9994422%" x2="100.000403%" y2="49.9994422%" id="linearGradient-8">
            <stop stop-color="#4844E8" offset="0%"></stop>
            <stop stop-color="#341F97" offset="100%"></stop>
        </linearGradient>
        <path d="M16.489,0.804 C11.739,3.544 7.664,20.097 6.576,33.404 L6.576,33.404 C5.792,43.067 2.839,47.521 0.085,49.111 L0.085,49.111 C-1.777,50.186 27.487,33.422 27.487,33.422 L27.487,33.422 C21.516,36.417 25.618,6.111 19.665,1.162 L19.665,1.162 C19.053,0.651 18.442,0.413 17.839,0.413 L17.839,0.413 C17.384,0.413 16.934,0.548 16.489,0.804" id="path-9"></path>
        <linearGradient x1="0.000841376137%" y1="50.0002365%" x2="99.9977291%" y2="50.0002365%" id="linearGradient-11">
            <stop stop-color="#0EEFEF" offset="0%"></stop>
            <stop stop-color="#2F56F9" offset="100%"></stop>
        </linearGradient>
        <path d="M53.167,1.123 C48.42,3.859 44.344,20.413 43.259,33.717 L43.259,33.717 C42.765,39.824 41.4,43.846 39.771,46.383 L39.771,46.383 C38.123,42.582 36.312,41.254 34.121,42.52 L34.121,42.52 C33.726,42.745 33.323,43.054 32.9,43.447 L32.9,43.447 C30.173,46.012 28.679,54.147 24.903,56.332 L24.903,56.332 C21.105,58.517 21.281,49.557 20.064,42.79 L20.064,42.79 C19.419,39.208 17.105,38.679 14.796,40.017 L14.796,40.017 C12.737,41.203 10.69,43.853 9.807,47.135 L9.807,47.135 C7.963,54.049 8.672,65.462 0.868,70.201 L0.868,70.201 L40.274,47.604 C40.253,47.55 40.232,47.512 40.208,47.457 L40.208,47.457 C47.629,43.212 64.168,33.736 64.168,33.736 L64.168,33.736 C58.2,36.732 62.303,6.429 56.348,1.477 L56.348,1.477 C55.736,0.968 55.125,0.728 54.521,0.728 L54.521,0.728 C54.066,0.728 53.614,0.864 53.167,1.123" id="path-12"></path>
        <linearGradient x1="0.00147345972%" y1="50.0000995%" x2="100.000707%" y2="50.0000995%" id="linearGradient-14">
            <stop stop-color="#0EEFEF" offset="0%"></stop>
            <stop stop-color="#2F56F9" offset="100%"></stop>
        </linearGradient>
        <path d="M0.323,90.557 C0.309,95.408 3.512,100.266 9.917,103.966 L9.917,103.966 C10.685,104.408 11.48,104.821 12.3,105.209 L12.3,105.209 C12.579,105.342 12.875,105.455 13.16,105.583 L13.16,105.583 C13.638,105.795 14.115,106.016 14.612,106.214 L14.612,106.214 C14.694,106.247 14.783,106.275 14.867,106.308 L14.867,106.308 C15.056,106.38 15.248,106.446 15.436,106.515 L15.436,106.515 C16.083,106.756 16.745,106.982 17.415,107.193 L17.415,107.193 C17.638,107.263 17.861,107.333 18.089,107.403 L18.089,107.403 C18.248,107.449 18.398,107.503 18.556,107.548 L18.556,107.548 C18.831,107.625 19.121,107.679 19.395,107.753 L19.395,107.753 C20.062,107.928 20.73,108.098 21.409,108.247 L21.409,108.247 C21.592,108.286 21.765,108.34 21.947,108.377 L21.947,108.377 C22.212,108.433 22.484,108.467 22.748,108.517 L22.748,108.517 C23.325,108.626 23.9,108.728 24.483,108.819 L24.483,108.819 C24.716,108.855 24.939,108.906 25.171,108.939 L25.171,108.939 C25.419,108.974 25.674,108.991 25.93,109.024 L25.93,109.024 C26.468,109.091 27.01,109.153 27.551,109.204 L27.551,109.204 C27.813,109.23 28.068,109.27 28.33,109.292 L28.33,109.292 C28.574,109.312 28.815,109.314 29.06,109.331 L29.06,109.331 C29.607,109.37 30.154,109.397 30.704,109.418 L30.704,109.418 C30.981,109.43 31.254,109.456 31.533,109.464 L31.533,109.464 C31.65,109.467 31.765,109.465 31.88,109.463 L31.88,109.463 C31.983,109.462 32.087,109.46 32.192,109.461 L32.192,109.461 C32.786,109.467 33.375,109.464 33.963,109.451 L33.963,109.451 C34.098,109.448 34.233,109.45 34.368,109.451 L34.368,109.451 C34.532,109.452 34.697,109.454 34.863,109.447 L34.863,109.447 C35.04,109.442 35.216,109.42 35.393,109.411 L35.393,109.411 C36.122,109.381 36.848,109.328 37.572,109.268 L37.572,109.268 C37.871,109.244 38.169,109.237 38.466,109.207 L38.466,109.207 C38.607,109.194 38.749,109.171 38.89,109.158 L38.89,109.158 C39.108,109.133 39.325,109.105 39.54,109.079 L39.54,109.079 C40.299,108.988 41.058,108.882 41.804,108.758 L41.804,108.758 C41.984,108.73 42.163,108.705 42.343,108.674 L42.343,108.674 C42.428,108.658 42.521,108.647 42.611,108.63 L42.611,108.63 C42.972,108.566 43.323,108.475 43.681,108.402 L43.681,108.402 C44.276,108.281 44.87,108.164 45.448,108.022 L45.448,108.022 C45.893,107.917 46.323,107.792 46.755,107.673 L46.755,107.673 C47.307,107.522 47.86,107.373 48.398,107.203 L48.398,107.203 C48.52,107.167 48.646,107.136 48.767,107.098 L48.767,107.098 C49.437,106.881 50.099,106.646 50.746,106.399 L50.746,106.399 C50.835,106.366 50.913,106.328 50.999,106.294 L50.999,106.294 C51.716,106.015 52.416,105.713 53.105,105.396 L53.105,105.396 C53.303,105.304 53.5,105.214 53.694,105.118 L53.694,105.118 C54.447,104.752 55.184,104.374 55.89,103.965 L55.89,103.965 C56.026,103.888 56.157,103.809 56.288,103.73 L56.288,103.73 C56.414,103.654 56.532,103.574 56.656,103.498 L56.656,103.498 C56.852,103.377 57.043,103.256 57.229,103.134 L57.229,103.134 C57.408,103.017 57.581,102.898 57.758,102.778 L57.758,102.778 C57.941,102.651 58.122,102.524 58.302,102.396 L58.302,102.396 C58.467,102.274 58.625,102.153 58.785,102.029 L58.785,102.029 C58.956,101.899 59.126,101.77 59.29,101.637 L59.29,101.637 C59.447,101.511 59.596,101.384 59.747,101.257 L59.747,101.257 C59.9,101.124 60.056,100.993 60.206,100.859 L60.206,100.859 C60.264,100.8 60.338,100.745 60.4,100.684 L60.4,100.684 C60.461,100.63 60.511,100.573 60.57,100.519 L60.57,100.519 C60.819,100.279 61.065,100.037 61.296,99.793 L61.296,99.793 C61.377,99.709 61.458,99.627 61.538,99.545 L61.538,99.545 C61.835,99.218 62.116,98.891 62.382,98.558 L62.382,98.558 C62.393,98.543 62.402,98.531 62.414,98.519 L62.414,98.519 C62.476,98.443 62.523,98.369 62.58,98.295 L62.58,98.295 C62.741,98.083 62.896,97.874 63.044,97.658 L63.044,97.658 C63.122,97.541 63.194,97.426 63.271,97.311 L63.271,97.311 C63.394,97.118 63.514,96.924 63.628,96.73 L63.628,96.73 C63.659,96.679 63.694,96.629 63.723,96.577 L63.723,96.577 C63.767,96.499 63.803,96.423 63.843,96.344 L63.843,96.344 C63.932,96.181 64.017,96.016 64.099,95.85 L64.099,95.85 C64.165,95.715 64.226,95.579 64.287,95.441 L64.287,95.441 C64.362,95.279 64.432,95.114 64.497,94.95 L64.497,94.95 C64.527,94.878 64.562,94.803 64.589,94.729 L64.589,94.729 C64.615,94.664 64.631,94.597 64.656,94.53 L64.656,94.53 C64.711,94.372 64.764,94.216 64.814,94.056 L64.814,94.056 C64.856,93.914 64.9,93.774 64.935,93.633 L64.935,93.633 C64.979,93.473 65.014,93.312 65.049,93.152 L65.049,93.152 C65.073,93.068 65.097,92.984 65.115,92.899 L65.115,92.899 C65.13,92.842 65.132,92.785 65.141,92.727 L65.141,92.727 C65.174,92.565 65.193,92.401 65.22,92.239 L65.22,92.239 C65.238,92.096 65.259,91.955 65.27,91.815 L65.27,91.815 C65.289,91.646 65.3,91.481 65.309,91.313 L65.309,91.313 C65.315,91.221 65.326,91.129 65.326,91.035 L65.326,91.035 C65.328,90.94 65.328,90.845 65.331,90.749 L65.331,90.749 C65.415,60.809 65.499,30.87 65.589,0.927 L65.589,0.927 C65.586,1.115 65.573,1.304 65.562,1.492 L65.562,1.492 C65.553,1.658 65.544,1.826 65.53,1.996 L65.53,1.996 C65.511,2.134 65.497,2.274 65.473,2.41 L65.473,2.41 C65.453,2.578 65.426,2.743 65.397,2.909 L65.397,2.909 C65.368,3.049 65.338,3.189 65.309,3.329 L65.309,3.329 C65.27,3.49 65.232,3.652 65.188,3.813 L65.188,3.813 C65.153,3.953 65.111,4.092 65.067,4.233 L65.067,4.233 C65.017,4.394 64.964,4.553 64.905,4.715 L64.905,4.715 C64.861,4.85 64.809,4.986 64.755,5.119 L64.755,5.119 C64.685,5.29 64.617,5.459 64.54,5.627 L64.54,5.627 C64.482,5.76 64.418,5.893 64.355,6.027 L64.355,6.027 C64.273,6.193 64.185,6.361 64.096,6.526 L64.096,6.526 C64.03,6.654 63.959,6.781 63.882,6.909 L63.882,6.909 C63.77,7.105 63.65,7.299 63.524,7.493 L63.524,7.493 C63.449,7.607 63.376,7.721 63.3,7.835 L63.3,7.835 C63.153,8.05 62.994,8.264 62.829,8.477 L62.829,8.477 C62.768,8.564 62.706,8.651 62.636,8.737 L62.636,8.737 C62.374,9.068 62.09,9.396 61.794,9.722 L61.794,9.722 C61.718,9.806 61.629,9.889 61.549,9.971 L61.549,9.971 C61.318,10.218 61.072,10.463 60.815,10.703 L60.815,10.703 C60.7,10.813 60.582,10.922 60.464,11.03 L60.464,11.03 C60.312,11.168 60.152,11.304 59.993,11.441 L59.993,11.441 C59.849,11.566 59.697,11.691 59.543,11.815 L59.543,11.815 C59.385,11.947 59.215,12.078 59.04,12.208 L59.04,12.208 C58.883,12.331 58.717,12.454 58.552,12.577 L58.552,12.577 C58.375,12.705 58.197,12.83 58.017,12.955 L58.017,12.955 C57.84,13.075 57.665,13.195 57.482,13.316 L57.482,13.316 C57.296,13.436 57.105,13.557 56.911,13.674 L56.911,13.674 C56.661,13.832 56.408,13.991 56.144,14.144 L56.144,14.144 C55.44,14.554 54.702,14.933 53.95,15.298 L53.95,15.298 C53.755,15.39 53.555,15.485 53.355,15.575 L53.355,15.575 C52.673,15.891 51.979,16.192 51.264,16.47 L51.264,16.47 C51.173,16.505 51.088,16.545 50.996,16.577 L50.996,16.577 C50.236,16.868 49.454,17.13 48.659,17.38 L48.659,17.38 C48.114,17.552 47.557,17.702 46.998,17.854 L46.998,17.854 C46.567,17.971 46.143,18.097 45.701,18.202 L45.701,18.202 C45.122,18.344 44.529,18.461 43.934,18.582 L43.934,18.582 C43.486,18.672 43.049,18.773 42.599,18.851 L42.599,18.851 C42.419,18.883 42.237,18.908 42.057,18.939 L42.057,18.939 C41.311,19.062 40.558,19.168 39.799,19.258 L39.799,19.258 C39.581,19.285 39.363,19.313 39.146,19.336 L39.146,19.336 C38.705,19.384 38.266,19.41 37.827,19.446 L37.827,19.446 C37.101,19.507 36.374,19.561 35.646,19.591 L35.646,19.591 C35.172,19.611 34.696,19.622 34.219,19.631 L34.219,19.631 C33.631,19.642 33.043,19.646 32.449,19.639 L32.449,19.639 C31.955,19.633 31.454,19.618 30.956,19.599 L30.956,19.599 C30.407,19.577 29.863,19.548 29.316,19.51 L29.316,19.51 C28.813,19.476 28.31,19.433 27.81,19.384 L27.81,19.384 C27.266,19.33 26.721,19.269 26.183,19.201 L26.183,19.201 C25.701,19.141 25.219,19.072 24.736,18.997 L24.736,18.997 C24.157,18.908 23.577,18.807 23.001,18.696 L23.001,18.696 C22.553,18.611 22.109,18.523 21.669,18.425 L21.669,18.425 C20.983,18.276 20.301,18.105 19.627,17.926 L19.627,17.926 C19.206,17.814 18.777,17.71 18.359,17.586 L18.359,17.586 C18.122,17.516 17.889,17.44 17.654,17.367 L17.654,17.367 C16.991,17.157 16.34,16.934 15.694,16.698 L15.694,16.698 C15.504,16.626 15.309,16.561 15.12,16.487 L15.12,16.487 C14.539,16.262 13.977,16.013 13.415,15.763 L13.415,15.763 C13.129,15.636 12.835,15.521 12.556,15.388 L12.556,15.388 C11.739,15 10.939,14.587 10.17,14.144 L10.17,14.144 C7.37,12.526 5.179,10.687 3.603,8.722 L3.603,8.722 C1.58,6.195 0.567,3.465 0.577,0.737 L0.577,0.737 L0.323,90.557 Z" id="path-15"></path>
        <linearGradient x1="27.117642%" y1="21.6360425%" x2="74.6127665%" y2="69.8687824%" id="linearGradient-17">
            <stop stop-color="#0EEFEF" offset="0%"></stop>
            <stop stop-color="#2F56F9" offset="100%"></stop>
        </linearGradient>
        <path d="M8.713,5.172 C-2.47,11.671 -2.403,22.201 8.845,28.696 L8.845,28.696 C20.091,35.192 38.275,35.195 49.458,28.696 L49.458,28.696 C60.631,22.201 60.567,11.671 49.32,5.176 L49.32,5.176 C43.693,1.928 36.332,0.303 28.981,0.303 L28.981,0.303 C21.634,0.303 14.297,1.926 8.713,5.172" id="path-18"></path>
        <linearGradient x1="-0.000463331906%" y1="49.9995965%" x2="100.000389%" y2="49.9995965%" id="linearGradient-20">
            <stop stop-color="#0EEFEF" offset="0%"></stop>
            <stop stop-color="#2F56F9" offset="100%"></stop>
        </linearGradient>
        <polygon id="path-21" points="0.800418584 0.263 88.0345177 0.263 88.0345177 49.7243 0.800418584 49.7243"></polygon>
    </defs>
    <g id="Page-1" stroke="none" stroke-width="1" fill="none" fill-rule="evenodd">
        <g id="Group-137" transform="translate(0.000000, -1.000000)">
            <g id="Group-42" transform="translate(128.000000, 70.737000)">
                <path d="M26.4828,12.1827 C24.6768,12.1237 23.4448,17.9797 21.6768,22.6267 L13.0858,18.8517 C12.7138,18.4047 11.9498,17.4547 11.6728,16.8647 C11.2968,16.0647 10.9028,15.9957 10.7258,16.0167 C10.5458,16.0437 10.7698,16.5627 10.8148,16.9227 C10.8408,17.2917 11.4288,17.9797 10.9638,17.8897 C10.5048,17.7947 8.3678,16.5627 7.8198,16.9757 C7.5668,17.1697 7.1268,17.0267 8.4758,18.5397 C9.4318,19.6257 11.0678,20.3097 11.9148,20.6107 C16.0148,24.5677 21.8278,26.9407 21.8278,26.9407 L21.8278,26.9397 C22.4678,27.1267 23.1858,26.8677 23.1858,26.8677 C26.0628,24.5847 27.5838,19.9057 28.1568,15.5437 C28.5688,12.4267 26.4828,12.1827 26.4828,12.1827" id="Fill-1" fill="#EFB185"></path>
                <path d="M25.7924,11.8741 C26.7284,11.5921 28.5044,11.8111 28.5044,14.6691 C28.5044,17.5271 28.4094,18.5081 27.4364,20.8351 C26.9624,21.9851 23.5234,21.4601 22.6154,19.5881 C22.0954,18.4941 23.9304,12.4401 25.7924,11.8741" id="Fill-3" fill="#471BCE"></path>
                <path d="M19.6479,69.0973 C19.6479,69.0973 17.9599,69.3483 18.3749,70.3213 C18.7799,71.3003 20.7239,72.7803 20.9739,73.3953 C21.2399,74.0083 22.8249,76.2123 23.3309,76.0123 C23.8509,75.8033 25.1779,76.1123 25.0219,73.6003 C24.8689,71.0863 21.9039,68.9863 19.6479,69.0973" id="Fill-5" fill="#111114"></path>
                <g id="Group-9" transform="translate(4.000000, 77.000000)">
                    <mask id="mask-2" fill="white">
                        <use xlink:href="#path-1"></use>
                    </mask>
                    <g id="Clip-8"></g>
                    <path d="M12.4213,1.3121 C12.4213,1.3121 13.2383,3.7151 11.1933,4.2801 C9.1443,4.8471 9.7583,3.5661 5.3063,4.6941 C0.8523,5.8201 0.3353,3.5131 0.4373,3.0021 C0.5373,2.4891 3.5143,1.5651 4.4933,1.3121 C5.4583,1.0571 7.3023,0.5951 7.3023,0.5951 L12.5893,0.5951 L12.4213,1.3121 Z" id="Fill-7" fill="#111114" mask="url(#mask-2)"></path>
                </g>
                <path d="M24.8363,36.0543 C24.8363,36.0543 24.8623,50.5913 24.8623,52.2293 C24.8623,53.8623 26.6953,66.7623 25.5983,72.4003 C25.5983,72.4003 22.4243,75.5743 19.6243,72.4003 C19.6243,72.4003 18.7243,56.2473 17.9153,52.6043 C17.1033,48.9573 17.3743,37.8103 17.3743,37.8103 L24.8363,36.0543 Z" id="Fill-10" fill="#5FB9E6"></path>
                <path d="M19.2797,38.1158 C19.2797,38.1158 18.5557,47.5078 17.8127,56.8088 C17.8127,56.8088 17.3367,75.2878 16.9037,77.9508 C16.9037,77.9508 10.9467,79.4328 10.3497,76.6208 C10.3497,76.6208 10.5057,60.3578 10.3497,56.9608 C10.2057,53.5638 9.8517,44.0878 11.1967,38.6158 C12.5377,33.1528 19.2797,38.1158 19.2797,38.1158" id="Fill-12" fill="#5FB9E6"></path>
                <path d="M16.9037,77.9508 C17.3367,75.2878 17.8127,56.8088 17.8127,56.8088 C18.3157,50.5478 18.7997,44.2488 19.0687,40.7978 L15.3877,41.6978 C15.3877,41.6978 12.7317,48.6638 13.1407,59.1108 C13.4587,67.1978 13.5857,75.1468 13.6267,78.3358 C15.2697,78.3538 16.9037,77.9508 16.9037,77.9508" id="Fill-14" fill="#77D2FF"></path>
                <path d="M25.5981,72.4 C26.6961,66.762 24.8631,53.862 24.8631,52.23 C24.8631,50.665 24.8391,37.41 24.8361,36.154 L21.6391,38.616 C21.6391,38.616 20.6301,49.009 21.6391,54.928 C22.5631,60.322 21.9721,70.807 22.4211,73.814 C24.1921,73.814 25.5981,72.4 25.5981,72.4" id="Fill-16" fill="#77D2FF"></path>
                <path d="M26.392,11.3741 C26.392,11.3741 29.127,12.8091 27.465,17.4741 C25.81,22.1391 24.648,25.1541 24.698,26.9051 C24.756,28.6521 25.284,34.5621 25.633,35.7621 C25.633,35.7621 26.019,39.6401 17.139,41.7671 C17.139,41.7671 9.85,42.3541 11.141,37.5921 C12.432,32.8291 13.047,25.1101 12.894,23.2641 C12.749,21.4161 11.717,17.7131 16.371,15.3191 C21.028,12.9261 23.457,11.1321 26.392,11.3741" id="Fill-18" fill="#632BEE"></path>
                <path d="M12.894,23.2638 C13.047,25.1098 12.432,32.8288 11.141,37.5918 C10.247,40.9018 13.471,41.6258 15.541,41.7568 C16.242,39.6368 15.204,35.8028 16.828,31.1698 C18.83,25.4448 18.645,21.6288 17.683,18.5328 C17.068,16.5358 15.871,16.4548 15.026,16.1568 C11.941,18.5118 12.767,21.6198 12.894,23.2638" id="Fill-20" fill="#471BCE"></path>
                <path d="M25.6332,35.7623 C25.2832,34.5623 24.7562,28.6523 24.6972,26.9053 C24.6482,25.1543 25.8522,22.1483 27.4652,17.4743 C29.0012,13.0483 27.3362,11.8513 26.3922,11.3743 C25.8652,13.6723 17.8712,14.4823 18.0242,16.0273 C18.2092,17.7423 20.3122,19.3883 20.3742,22.4583 C20.4342,25.5303 19.9472,30.0613 19.3622,32.3243 C18.8622,34.2913 19.0042,39.0643 19.4042,41.1213 C25.9502,38.9503 25.6332,35.7623 25.6332,35.7623" id="Fill-22" fill="#632BEE"></path>
                <path d="M23.1723,8.9904 C23.1723,8.9904 22.8273,11.4394 23.6393,12.9904 C24.3803,14.4014 18.5763,15.5574 18.4683,14.2594 C18.4533,14.1234 19.6043,12.0314 18.2603,9.5044 C17.5513,8.1774 23.1723,8.9904 23.1723,8.9904" id="Fill-24" fill="#EFB185"></path>
                <path d="M23.6098,13.0743 C23.0128,11.9133 23.0398,10.2733 23.1008,9.5073 L18.8388,11.5123 L18.8388,11.5263 C19.0008,11.5643 21.8278,12.3443 22.4008,14.4093 C23.2838,14.0683 23.8778,13.5913 23.6098,13.0743" id="Fill-26" fill="#DD9569"></path>
                <path d="M17.2182,2.3527 C17.2182,2.3527 16.2772,4.5667 16.4122,6.4837 C16.5652,8.5527 16.2442,8.9647 16.3572,9.8847 C16.4092,10.2767 16.4272,10.8717 16.8042,11.2447 C17.4332,11.8737 18.7412,12.1237 20.5302,11.5127 C22.6892,10.7657 25.0192,7.8547 24.1542,5.1747 C23.2862,2.4967 20.4972,0.2477 17.2182,2.3527" id="Fill-28" fill="#EFB185"></path>
                <path d="M23.9975,8.0494 C23.1855,5.6384 21.1035,2.7244 21.1275,2.5684 C21.1395,2.4764 20.4345,2.0214 19.6425,1.5264 C18.8805,1.5564 18.0655,1.8104 17.2185,2.3524 C17.2185,2.3524 16.9625,2.9444 16.7355,3.7804 C17.2385,4.3614 18.2735,5.0344 18.4275,5.5224 C18.7705,6.6794 18.5265,8.4094 18.1685,9.1754 C17.8125,9.9344 19.1655,11.0864 18.8715,11.7644 C18.8515,11.7914 18.8455,11.8224 18.8535,11.8514 C19.3485,11.8224 19.9065,11.7294 20.5295,11.5124 C21.9185,11.0354 23.3565,9.6694 23.9975,8.0494" id="Fill-30" fill="#E6A376"></path>
                <path d="M15.0092,1.5265 C15.0092,1.5265 16.7362,3.4595 18.1132,4.2875 C19.1862,4.9415 19.0952,6.6835 19.0302,7.0215 C18.9782,7.3585 18.6072,8.8945 18.7412,9.0885 C19.0042,9.4695 19.9062,8.3085 20.3302,8.3955 C21.3952,8.6245 20.9502,9.6155 19.9562,10.6425 C18.9012,11.7355 21.6132,12.2385 22.8922,11.3515 C23.5722,10.8785 23.8162,10.5915 24.7372,8.8595 C26.0632,6.3355 26.1902,3.2815 23.2062,1.5865 C20.2392,-0.1025 16.1482,0.8905 15.0092,1.5265" id="Fill-32" fill="#231202"></path>
                <path d="M22.892,11.3517 C23.572,10.8787 24.092,10.7067 24.996,8.9727 C26.325,6.4517 26.645,2.1937 23.234,1.0427 C19.987,-0.0523 15.72,0.9227 15.009,1.5267 C15.009,1.5267 17.018,2.1267 17.086,2.5687 C18.034,2.7427 20.148,2.9347 20.798,4.0707 C21.601,5.4667 22.531,5.0447 22.424,6.7547 C22.325,8.4097 22.706,10.5847 19.913,11.4677 C20.933,12.2257 22.398,11.6947 22.892,11.3517" id="Fill-34" fill="#231202"></path>
                <path d="M18.8002,13.4987 L16.8922,15.0517 C16.8922,15.0517 22.7152,16.8447 24.4892,14.0067 C24.7372,13.6027 24.4682,12.2367 23.4572,11.9647 C23.4572,11.9647 23.2062,14.2967 18.8002,13.4987" id="Fill-36" fill="#DEF0F9"></path>
                <path d="M18.1391,16.9967 C16.8921,15.6827 11.8911,18.9667 7.3591,21.0207 L3.9311,12.2807 C3.9791,11.7027 4.1091,10.4967 4.3281,9.8777 C4.6201,9.0507 4.3941,8.7177 4.2491,8.6127 C4.1091,8.5137 3.9021,9.0377 3.6671,9.3127 C3.4381,9.5897 3.3641,10.4977 3.1061,10.1027 C2.8461,9.7117 2.1911,7.3357 1.5081,7.2437 C1.1961,7.1987 0.9881,6.7967 0.8671,8.8097 C0.7961,10.2537 1.4701,11.8927 1.8611,12.7117 C1.9751,18.4047 4.4261,24.1837 4.4261,24.1837 L4.4291,24.1827 C4.7551,24.7657 5.4501,25.0857 5.4501,25.0857 C9.0931,25.4897 13.4671,23.2447 16.9481,20.5567 C19.4361,18.6337 18.1391,16.9967 18.1391,16.9967" id="Fill-38" fill="#EFB185"></path>
                <path d="M17.8627,16.2892 C18.7237,16.7472 19.8307,18.1552 17.8187,20.1822 C15.8027,22.2102 15.0477,22.8412 12.7167,23.8102 C11.5677,24.2942 9.5007,21.4852 10.1757,19.5192 C10.5737,18.3792 16.1447,15.3792 17.8627,16.2892" id="Fill-40" fill="#632BEE"></path>
            </g>
            <g id="Group-45" transform="translate(46.000000, 73.737000)">
                <mask id="mask-4" fill="white">
                    <use xlink:href="#path-3"></use>
                </mask>
                <g id="Clip-44"></g>
                <path d="M14.341,0.927 C12.359,2.074 10.38,4.632 9.532,7.8 L9.532,7.8 C7.75,14.471 8.435,25.483 0.9,30.056 L0.9,30.056 L38.928,8.247 C37.212,3.659 35.325,1.992 32.991,3.339 L32.991,3.339 C32.616,3.56 32.221,3.855 31.815,4.24 L31.815,4.24 C29.18,6.713 27.743,14.563 24.094,16.671 L24.094,16.671 C20.433,18.783 20.603,10.136 19.423,3.603 L19.423,3.603 C19.006,1.267 17.852,0.278 16.461,0.278 L16.461,0.278 C15.791,0.278 15.066,0.507 14.341,0.927" id="Fill-43" fill="url(#linearGradient-5)" mask="url(#mask-4)"></path>
            </g>
            <g id="Group-48" transform="translate(20.000000, 71.737000)">
                <mask id="mask-7" fill="white">
                    <use xlink:href="#path-6"></use>
                </mask>
                <g id="Clip-47"></g>
                <path d="M15.915,0.793 C11.336,3.435 7.4,19.41 6.357,32.251 L6.357,32.251 C5.592,41.579 2.746,45.878 0.086,47.413 L0.086,47.413 C-1.708,48.451 26.531,32.269 26.531,32.269 L26.531,32.269 C20.775,35.161 24.734,5.911 18.984,1.138 L18.984,1.138 C18.393,0.645 17.803,0.414 17.219,0.414 L17.219,0.414 C16.78,0.414 16.345,0.544 15.915,0.793" id="Fill-46" fill="url(#linearGradient-8)" mask="url(#mask-7)"></path>
            </g>
            <g id="Group-51" transform="translate(0.000000, 82.737000)">
                <mask id="mask-10" fill="white">
                    <use xlink:href="#path-9"></use>
                </mask>
                <g id="Clip-50"></g>
                <path d="M16.489,0.804 C11.739,3.544 7.664,20.097 6.576,33.404 L6.576,33.404 C5.792,43.067 2.839,47.521 0.085,49.111 L0.085,49.111 C-1.777,50.186 27.487,33.422 27.487,33.422 L27.487,33.422 C21.516,36.417 25.618,6.111 19.665,1.162 L19.665,1.162 C19.053,0.651 18.442,0.413 17.839,0.413 L17.839,0.413 C17.384,0.413 16.934,0.548 16.489,0.804" id="Fill-49" fill="url(#linearGradient-11)" mask="url(#mask-10)"></path>
            </g>
            <g id="Group-54" transform="translate(27.000000, 45.737000)">
                <mask id="mask-13" fill="white">
                    <use xlink:href="#path-12"></use>
                </mask>
                <g id="Clip-53"></g>
                <path d="M53.167,1.123 C48.42,3.859 44.344,20.413 43.259,33.717 L43.259,33.717 C42.765,39.824 41.4,43.846 39.771,46.383 L39.771,46.383 C38.123,42.582 36.312,41.254 34.121,42.52 L34.121,42.52 C33.726,42.745 33.323,43.054 32.9,43.447 L32.9,43.447 C30.173,46.012 28.679,54.147 24.903,56.332 L24.903,56.332 C21.105,58.517 21.281,49.557 20.064,42.79 L20.064,42.79 C19.419,39.208 17.105,38.679 14.796,40.017 L14.796,40.017 C12.737,41.203 10.69,43.853 9.807,47.135 L9.807,47.135 C7.963,54.049 8.672,65.462 0.868,70.201 L0.868,70.201 L40.274,47.604 C40.253,47.55 40.232,47.512 40.208,47.457 L40.208,47.457 C47.629,43.212 64.168,33.736 64.168,33.736 L64.168,33.736 C58.2,36.732 62.303,6.429 56.348,1.477 L56.348,1.477 C55.736,0.968 55.125,0.728 54.521,0.728 L54.521,0.728 C54.066,0.728 53.614,0.864 53.167,1.123" id="Fill-52" fill="url(#linearGradient-14)" mask="url(#mask-13)"></path>
            </g>
            <path d="M120.4906,101.3763 C135.1496,109.8393 135.2346,123.5673 120.6706,132.0313 C106.0926,140.5023 82.3946,140.4973 67.7346,132.0313 C53.0726,123.5673 52.9906,109.8403 67.5616,101.3703 C82.1266,92.9063 105.8256,92.9113 120.4906,101.3763" id="Fill-55" fill="#C6C6C6"></path>
            <g id="Group-59" transform="translate(62.000000, 23.737000)">
                <mask id="mask-16" fill="white">
                    <use xlink:href="#path-15"></use>
                </mask>
                <g id="Clip-58"></g>
                <path d="M0.323,90.557 C0.309,95.408 3.512,100.266 9.917,103.966 L9.917,103.966 C10.685,104.408 11.48,104.821 12.3,105.209 L12.3,105.209 C12.579,105.342 12.875,105.455 13.16,105.583 L13.16,105.583 C13.638,105.795 14.115,106.016 14.612,106.214 L14.612,106.214 C14.694,106.247 14.783,106.275 14.867,106.308 L14.867,106.308 C15.056,106.38 15.248,106.446 15.436,106.515 L15.436,106.515 C16.083,106.756 16.745,106.982 17.415,107.193 L17.415,107.193 C17.638,107.263 17.861,107.333 18.089,107.403 L18.089,107.403 C18.248,107.449 18.398,107.503 18.556,107.548 L18.556,107.548 C18.831,107.625 19.121,107.679 19.395,107.753 L19.395,107.753 C20.062,107.928 20.73,108.098 21.409,108.247 L21.409,108.247 C21.592,108.286 21.765,108.34 21.947,108.377 L21.947,108.377 C22.212,108.433 22.484,108.467 22.748,108.517 L22.748,108.517 C23.325,108.626 23.9,108.728 24.483,108.819 L24.483,108.819 C24.716,108.855 24.939,108.906 25.171,108.939 L25.171,108.939 C25.419,108.974 25.674,108.991 25.93,109.024 L25.93,109.024 C26.468,109.091 27.01,109.153 27.551,109.204 L27.551,109.204 C27.813,109.23 28.068,109.27 28.33,109.292 L28.33,109.292 C28.574,109.312 28.815,109.314 29.06,109.331 L29.06,109.331 C29.607,109.37 30.154,109.397 30.704,109.418 L30.704,109.418 C30.981,109.43 31.254,109.456 31.533,109.464 L31.533,109.464 C31.65,109.467 31.765,109.465 31.88,109.463 L31.88,109.463 C31.983,109.462 32.087,109.46 32.192,109.461 L32.192,109.461 C32.786,109.467 33.375,109.464 33.963,109.451 L33.963,109.451 C34.098,109.448 34.233,109.45 34.368,109.451 L34.368,109.451 C34.532,109.452 34.697,109.454 34.863,109.447 L34.863,109.447 C35.04,109.442 35.216,109.42 35.393,109.411 L35.393,109.411 C36.122,109.381 36.848,109.328 37.572,109.268 L37.572,109.268 C37.871,109.244 38.169,109.237 38.466,109.207 L38.466,109.207 C38.607,109.194 38.749,109.171 38.89,109.158 L38.89,109.158 C39.108,109.133 39.325,109.105 39.54,109.079 L39.54,109.079 C40.299,108.988 41.058,108.882 41.804,108.758 L41.804,108.758 C41.984,108.73 42.163,108.705 42.343,108.674 L42.343,108.674 C42.428,108.658 42.521,108.647 42.611,108.63 L42.611,108.63 C42.972,108.566 43.323,108.475 43.681,108.402 L43.681,108.402 C44.276,108.281 44.87,108.164 45.448,108.022 L45.448,108.022 C45.893,107.917 46.323,107.792 46.755,107.673 L46.755,107.673 C47.307,107.522 47.86,107.373 48.398,107.203 L48.398,107.203 C48.52,107.167 48.646,107.136 48.767,107.098 L48.767,107.098 C49.437,106.881 50.099,106.646 50.746,106.399 L50.746,106.399 C50.835,106.366 50.913,106.328 50.999,106.294 L50.999,106.294 C51.716,106.015 52.416,105.713 53.105,105.396 L53.105,105.396 C53.303,105.304 53.5,105.214 53.694,105.118 L53.694,105.118 C54.447,104.752 55.184,104.374 55.89,103.965 L55.89,103.965 C56.026,103.888 56.157,103.809 56.288,103.73 L56.288,103.73 C56.414,103.654 56.532,103.574 56.656,103.498 L56.656,103.498 C56.852,103.377 57.043,103.256 57.229,103.134 L57.229,103.134 C57.408,103.017 57.581,102.898 57.758,102.778 L57.758,102.778 C57.941,102.651 58.122,102.524 58.302,102.396 L58.302,102.396 C58.467,102.274 58.625,102.153 58.785,102.029 L58.785,102.029 C58.956,101.899 59.126,101.77 59.29,101.637 L59.29,101.637 C59.447,101.511 59.596,101.384 59.747,101.257 L59.747,101.257 C59.9,101.124 60.056,100.993 60.206,100.859 L60.206,100.859 C60.264,100.8 60.338,100.745 60.4,100.684 L60.4,100.684 C60.461,100.63 60.511,100.573 60.57,100.519 L60.57,100.519 C60.819,100.279 61.065,100.037 61.296,99.793 L61.296,99.793 C61.377,99.709 61.458,99.627 61.538,99.545 L61.538,99.545 C61.835,99.218 62.116,98.891 62.382,98.558 L62.382,98.558 C62.393,98.543 62.402,98.531 62.414,98.519 L62.414,98.519 C62.476,98.443 62.523,98.369 62.58,98.295 L62.58,98.295 C62.741,98.083 62.896,97.874 63.044,97.658 L63.044,97.658 C63.122,97.541 63.194,97.426 63.271,97.311 L63.271,97.311 C63.394,97.118 63.514,96.924 63.628,96.73 L63.628,96.73 C63.659,96.679 63.694,96.629 63.723,96.577 L63.723,96.577 C63.767,96.499 63.803,96.423 63.843,96.344 L63.843,96.344 C63.932,96.181 64.017,96.016 64.099,95.85 L64.099,95.85 C64.165,95.715 64.226,95.579 64.287,95.441 L64.287,95.441 C64.362,95.279 64.432,95.114 64.497,94.95 L64.497,94.95 C64.527,94.878 64.562,94.803 64.589,94.729 L64.589,94.729 C64.615,94.664 64.631,94.597 64.656,94.53 L64.656,94.53 C64.711,94.372 64.764,94.216 64.814,94.056 L64.814,94.056 C64.856,93.914 64.9,93.774 64.935,93.633 L64.935,93.633 C64.979,93.473 65.014,93.312 65.049,93.152 L65.049,93.152 C65.073,93.068 65.097,92.984 65.115,92.899 L65.115,92.899 C65.13,92.842 65.132,92.785 65.141,92.727 L65.141,92.727 C65.174,92.565 65.193,92.401 65.22,92.239 L65.22,92.239 C65.238,92.096 65.259,91.955 65.27,91.815 L65.27,91.815 C65.289,91.646 65.3,91.481 65.309,91.313 L65.309,91.313 C65.315,91.221 65.326,91.129 65.326,91.035 L65.326,91.035 C65.328,90.94 65.328,90.845 65.331,90.749 L65.331,90.749 C65.415,60.809 65.499,30.87 65.589,0.927 L65.589,0.927 C65.586,1.115 65.573,1.304 65.562,1.492 L65.562,1.492 C65.553,1.658 65.544,1.826 65.53,1.996 L65.53,1.996 C65.511,2.134 65.497,2.274 65.473,2.41 L65.473,2.41 C65.453,2.578 65.426,2.743 65.397,2.909 L65.397,2.909 C65.368,3.049 65.338,3.189 65.309,3.329 L65.309,3.329 C65.27,3.49 65.232,3.652 65.188,3.813 L65.188,3.813 C65.153,3.953 65.111,4.092 65.067,4.233 L65.067,4.233 C65.017,4.394 64.964,4.553 64.905,4.715 L64.905,4.715 C64.861,4.85 64.809,4.986 64.755,5.119 L64.755,5.119 C64.685,5.29 64.617,5.459 64.54,5.627 L64.54,5.627 C64.482,5.76 64.418,5.893 64.355,6.027 L64.355,6.027 C64.273,6.193 64.185,6.361 64.096,6.526 L64.096,6.526 C64.03,6.654 63.959,6.781 63.882,6.909 L63.882,6.909 C63.77,7.105 63.65,7.299 63.524,7.493 L63.524,7.493 C63.449,7.607 63.376,7.721 63.3,7.835 L63.3,7.835 C63.153,8.05 62.994,8.264 62.829,8.477 L62.829,8.477 C62.768,8.564 62.706,8.651 62.636,8.737 L62.636,8.737 C62.374,9.068 62.09,9.396 61.794,9.722 L61.794,9.722 C61.718,9.806 61.629,9.889 61.549,9.971 L61.549,9.971 C61.318,10.218 61.072,10.463 60.815,10.703 L60.815,10.703 C60.7,10.813 60.582,10.922 60.464,11.03 L60.464,11.03 C60.312,11.168 60.152,11.304 59.993,11.441 L59.993,11.441 C59.849,11.566 59.697,11.691 59.543,11.815 L59.543,11.815 C59.385,11.947 59.215,12.078 59.04,12.208 L59.04,12.208 C58.883,12.331 58.717,12.454 58.552,12.577 L58.552,12.577 C58.375,12.705 58.197,12.83 58.017,12.955 L58.017,12.955 C57.84,13.075 57.665,13.195 57.482,13.316 L57.482,13.316 C57.296,13.436 57.105,13.557 56.911,13.674 L56.911,13.674 C56.661,13.832 56.408,13.991 56.144,14.144 L56.144,14.144 C55.44,14.554 54.702,14.933 53.95,15.298 L53.95,15.298 C53.755,15.39 53.555,15.485 53.355,15.575 L53.355,15.575 C52.673,15.891 51.979,16.192 51.264,16.47 L51.264,16.47 C51.173,16.505 51.088,16.545 50.996,16.577 L50.996,16.577 C50.236,16.868 49.454,17.13 48.659,17.38 L48.659,17.38 C48.114,17.552 47.557,17.702 46.998,17.854 L46.998,17.854 C46.567,17.971 46.143,18.097 45.701,18.202 L45.701,18.202 C45.122,18.344 44.529,18.461 43.934,18.582 L43.934,18.582 C43.486,18.672 43.049,18.773 42.599,18.851 L42.599,18.851 C42.419,18.883 42.237,18.908 42.057,18.939 L42.057,18.939 C41.311,19.062 40.558,19.168 39.799,19.258 L39.799,19.258 C39.581,19.285 39.363,19.313 39.146,19.336 L39.146,19.336 C38.705,19.384 38.266,19.41 37.827,19.446 L37.827,19.446 C37.101,19.507 36.374,19.561 35.646,19.591 L35.646,19.591 C35.172,19.611 34.696,19.622 34.219,19.631 L34.219,19.631 C33.631,19.642 33.043,19.646 32.449,19.639 L32.449,19.639 C31.955,19.633 31.454,19.618 30.956,19.599 L30.956,19.599 C30.407,19.577 29.863,19.548 29.316,19.51 L29.316,19.51 C28.813,19.476 28.31,19.433 27.81,19.384 L27.81,19.384 C27.266,19.33 26.721,19.269 26.183,19.201 L26.183,19.201 C25.701,19.141 25.219,19.072 24.736,18.997 L24.736,18.997 C24.157,18.908 23.577,18.807 23.001,18.696 L23.001,18.696 C22.553,18.611 22.109,18.523 21.669,18.425 L21.669,18.425 C20.983,18.276 20.301,18.105 19.627,17.926 L19.627,17.926 C19.206,17.814 18.777,17.71 18.359,17.586 L18.359,17.586 C18.122,17.516 17.889,17.44 17.654,17.367 L17.654,17.367 C16.991,17.157 16.34,16.934 15.694,16.698 L15.694,16.698 C15.504,16.626 15.309,16.561 15.12,16.487 L15.12,16.487 C14.539,16.262 13.977,16.013 13.415,15.763 L13.415,15.763 C13.129,15.636 12.835,15.521 12.556,15.388 L12.556,15.388 C11.739,15 10.939,14.587 10.17,14.144 L10.17,14.144 C7.37,12.526 5.179,10.687 3.603,8.722 L3.603,8.722 C1.58,6.195 0.567,3.465 0.577,0.737 L0.577,0.737 L0.323,90.557 Z" id="Fill-57" fill="url(#linearGradient-17)" mask="url(#mask-16)"></path>
            </g>
            <path d="M117.9877,11.2552 C130.7237,18.6082 130.7967,30.5282 118.1437,37.8812 C105.4867,45.2372 84.9067,45.2342 72.1707,37.8812 C59.4407,30.5282 59.3677,18.6082 72.0237,11.2522 C84.6747,3.9012 105.2547,3.9042 117.9877,11.2552" id="Fill-60" fill="#3F27B9"></path>
            <g id="Group-64" transform="translate(66.000000, 7.737000)">
                <mask id="mask-19" fill="white">
                    <use xlink:href="#path-18"></use>
                </mask>
                <g id="Clip-63"></g>
                <path d="M8.713,5.172 C-2.47,11.671 -2.403,22.201 8.845,28.696 L8.845,28.696 C20.091,35.192 38.275,35.195 49.458,28.696 L49.458,28.696 C60.631,22.201 60.567,11.671 49.32,5.176 L49.32,5.176 C43.693,1.928 36.332,0.303 28.981,0.303 L28.981,0.303 C21.634,0.303 14.297,1.926 8.713,5.172" id="Fill-62" fill="url(#linearGradient-20)" mask="url(#mask-19)"></path>
            </g>
            <g id="Group-136" transform="translate(26.000000, 0.737000)">
                <path d="M62.2777,20.1705 C65.6867,22.1405 65.7097,25.3325 62.3187,27.3025 C58.9297,29.2715 53.4187,29.2715 50.0087,27.3025 C46.5997,25.3325 46.5767,22.1405 49.9677,20.1705 C53.3527,18.2015 58.8647,18.2025 62.2777,20.1705" id="Fill-65" fill="#3F27B9"></path>
                <path d="M89.3842,18.2584 C92.7962,20.2274 92.8142,23.4204 89.4252,25.3884 C86.0342,27.3594 80.5232,27.3594 77.1132,25.3894 C73.7012,23.4204 73.6842,20.2274 77.0712,18.2574 C80.4602,16.2884 85.9732,16.2904 89.3842,18.2584" id="Fill-67" fill="#3F27B9"></path>
                <g id="Group-71" transform="translate(25.000000, 0.000000)">
                    <mask id="mask-22" fill="white">
                        <use xlink:href="#path-21"></use>
                    </mask>
                    <g id="Clip-70"></g>
                    <path d="M74.2084,41.8273 C57.8604,51.1243 31.2794,51.1243 14.8264,41.8263 C-1.6246,32.5293 -1.7126,17.4553 14.6324,8.1593 C30.9744,-1.1377 57.5614,-1.1377 74.0084,8.1593 C90.4644,17.4573 90.5504,32.5303 74.2084,41.8273 M75.1554,7.5053 C58.0664,-2.1517 30.4534,-2.1517 13.4774,7.5073 C-3.5036,17.1633 -3.4126,32.8213 13.6764,42.4793 C30.7684,52.1393 58.3844,52.1393 75.3614,42.4793 C92.3384,32.8223 92.2474,17.1653 75.1554,7.5053" id="Fill-69" fill="#36229F" mask="url(#mask-22)"></path>
                </g>
                <path d="M94.9789,38.7374 C80.9519,46.7134 58.1449,46.7134 44.0239,38.7364 C29.9119,30.7584 29.8369,17.8244 43.8619,9.8484 C57.8829,1.8724 80.6929,1.8724 94.8079,9.8484 C108.9229,17.8264 108.9999,30.7594 94.9789,38.7374 M95.7929,9.2864 C81.1309,1.0014 57.4389,1.0014 42.8709,9.2884 C28.3019,17.5744 28.3779,31.0094 43.0409,39.2964 C57.7069,47.5824 81.4019,47.5824 95.9669,39.2974 C110.5359,31.0104 110.4579,17.5764 95.7929,9.2864" id="Fill-72" fill="#36229F"></path>
                <path d="M108.9916,93.6993 L107.0056,92.5443 C107.1056,92.2293 109.0796,86.2533 107.7156,83.0603 L109.7006,84.2143 C111.0676,87.4063 109.0946,93.3833 108.9916,93.6993" id="Fill-74" fill="#8FEDFF"></path>
                <path d="M114.1791,56.3102 C114.2801,56.3692 114.3801,56.4262 114.4771,56.4832 C115.0381,56.8102 115.6031,57.1372 116.1641,57.4632 C115.5621,57.1122 114.7241,57.1622 113.8001,57.6952 L111.8121,56.5422 C112.7421,56.0072 113.5751,55.9592 114.1791,56.3102" id="Fill-76" fill="#8FEDFF"></path>
                <path d="M88.9936,95.0319 L87.0056,93.8789 C86.4106,93.5319 86.0406,92.7939 86.0376,91.7449 L88.0256,92.8999 C88.0256,93.9489 88.3956,94.6859 88.9936,95.0319" id="Fill-78" fill="#8FEDFF"></path>
                <polygon id="Fill-80" fill="#8FEDFF" points="88.0258 92.8995 86.0378 91.7445 85.9898 75.2875 87.9748 76.4415"></polygon>
                <polygon id="Fill-82" fill="#8FEDFF" points="91.3022 70.6876 89.3112 69.5326 111.8122 56.5416 113.8002 57.6956"></polygon>
                <path d="M87.975,76.441 L85.99,75.288 C85.981,73.172 87.472,70.596 89.311,69.532 L91.302,70.688 C89.458,71.749 87.972,74.325 87.975,76.441" id="Fill-84" fill="#8FEDFF"></path>
                <path d="M113.8002,57.6954 C115.6422,56.6334 117.1302,57.4904 117.1382,59.6044 L117.1862,76.0634 C117.1672,76.5904 116.8592,86.6004 108.9912,93.6994 C109.0942,93.3834 111.0682,87.4064 109.7002,84.2144 L91.3672,94.7984 C89.5292,95.8614 88.0292,95.0154 88.0262,92.8994 L87.9752,76.4414 C87.9722,74.3254 89.4582,71.7494 91.3022,70.6874 L113.8002,57.6954 Z" id="Fill-86" fill="#C5F9FF"></path>
                <path d="M110.3588,64.8146 C111.0178,64.4336 111.5588,64.7346 111.5618,65.5016 C111.5648,66.2606 111.0268,67.1906 110.3678,67.5736 L94.8018,76.5606 C94.1398,76.9406 93.5998,76.6326 93.5958,75.8736 C93.5928,75.1066 94.1318,74.1856 94.7938,73.8026 L110.3588,64.8146 Z" id="Fill-88" fill="#D66767"></path>
                <path d="M110.3588,70.4493 C111.0178,70.0703 111.5588,70.3683 111.5618,71.1363 C111.5648,71.8933 111.0268,72.8253 110.3678,73.2063 L94.8018,82.1953 C94.1398,82.5753 93.5998,82.2653 93.5958,81.5083 C93.5928,80.7413 94.1318,79.8183 94.7938,79.4373 L110.3588,70.4493 Z" id="Fill-90" fill="#D66767"></path>
                <path d="M110.3588,76.0841 C111.0178,75.7031 111.5588,76.0031 111.5618,76.7681 C111.5648,77.5281 111.0268,78.4591 110.3678,78.8401 L94.8018,87.8281 C94.1398,88.2101 93.5998,87.9001 93.5958,87.1431 C93.5928,86.3751 94.1318,85.4521 94.7938,85.0711 L110.3588,76.0841 Z" id="Fill-92" fill="#D66767"></path>
                <path d="M32.9643,94.1993 L34.9523,93.0443 C34.8473,92.7293 32.8733,86.7513 34.2373,83.5593 L32.2523,84.7123 C30.8853,87.9053 32.8613,93.8833 32.9643,94.1993" id="Fill-94" fill="#8FEDFF"></path>
                <path d="M27.7729,56.8097 C27.6759,56.8687 27.5759,56.9247 27.4759,56.9817 C26.9149,57.3097 26.3529,57.6367 25.7909,57.9637 C26.3929,57.6107 27.2289,57.6607 28.1519,58.1957 L30.1399,57.0417 C29.2139,56.5077 28.3779,56.4587 27.7729,56.8097" id="Fill-96" fill="#8FEDFF"></path>
                <path d="M52.9623,95.5304 L54.9473,94.3784 C55.5453,94.0304 55.9153,93.2944 55.9153,92.2444 L53.9333,93.3994 C53.9273,94.4474 53.5593,95.1854 52.9623,95.5304" id="Fill-98" fill="#8FEDFF"></path>
                <polygon id="Fill-100" fill="#8FEDFF" points="53.933 93.3995 55.915 92.2445 55.962 75.7875 53.98 76.9395"></polygon>
                <polygon id="Fill-102" fill="#8FEDFF" points="50.6566 71.1862 52.6416 70.0322 30.1396 57.0412 28.1516 58.1952"></polygon>
                <path d="M53.9799,76.9396 L55.9619,75.7876 C55.9709,73.6716 54.4829,71.0936 52.6419,70.0326 L50.6569,71.1866 C52.4949,72.2476 53.9829,74.8256 53.9799,76.9396" id="Fill-104" fill="#8FEDFF"></path>
                <path d="M28.1518,58.1954 C26.3108,57.1324 24.8228,57.9884 24.8168,60.1044 L24.7668,76.5614 C24.7878,77.0884 25.0938,87.1004 32.9638,94.1994 C32.8618,93.8834 30.8848,87.9044 32.2528,84.7124 L50.5858,95.2984 C52.4298,96.3614 53.9238,95.5154 53.9328,93.3994 L53.9798,76.9394 C53.9828,74.8254 52.4948,72.2474 50.6568,71.1864 L28.1518,58.1954 Z" id="Fill-106" fill="#C5F9FF"></path>
                <path d="M31.5932,65.3151 C30.9352,64.9351 30.3932,65.2331 30.3902,66.0001 C30.3882,66.7591 30.9252,67.6901 31.5872,68.0721 L47.1562,77.0601 C47.8122,77.4411 48.3532,77.1321 48.3562,76.3731 C48.3592,75.6071 47.8212,74.6841 47.1582,74.3011 L31.5932,65.3151 Z" id="Fill-108" fill="#D66767"></path>
                <path d="M31.5932,70.9493 C30.9352,70.5683 30.3932,70.8683 30.3902,71.6353 C30.3882,72.3933 30.9252,73.3243 31.5872,73.7053 L47.1562,82.6933 C47.8122,83.0743 48.3532,82.7653 48.3562,82.0083 C48.3592,81.2403 47.8212,80.3183 47.1582,79.9363 L31.5932,70.9493 Z" id="Fill-110" fill="#D66767"></path>
                <path d="M31.5932,76.5841 C30.9352,76.2021 30.3932,76.5011 30.3902,77.2681 C30.3882,78.0281 30.9252,78.9591 31.5872,79.3401 L47.1562,88.3281 C47.8122,88.7091 48.3532,88.4001 48.3562,87.6431 C48.3592,86.8731 47.8212,85.9521 47.1582,85.5711 L31.5932,76.5841 Z" id="Fill-112" fill="#D66767"></path>
                <path d="M1.2475,142.9576 C1.2475,142.9576 -0.6435,144.0746 0.5865,145.2146 C1.8155,146.3536 1.8515,145.2306 4.5545,147.6386 C7.2665,150.0486 7.8095,148.1016 7.9275,147.7006 C8.0455,147.3066 6.9445,146.1036 6.3625,145.5706 C5.7655,145.0386 3.3685,142.9906 3.3685,142.9906 L1.5475,142.4406 L1.2475,142.9576 Z" id="Fill-114" fill="#171716"></path>
                <path d="M16.7045,141.0475 C16.7045,141.0475 17.9665,141.6245 17.4335,142.2945 C16.8975,142.9675 15.0425,143.6865 14.7075,144.1115 C14.3715,144.5345 12.7295,145.6735 12.2805,145.6235 C11.5325,145.5445 10.8185,145.2975 11.5005,143.3685 C12.1815,141.4445 14.9725,140.4595 16.7045,141.0475" id="Fill-116" fill="#171716"></path>
                <path d="M4.8891,105.3253 C4.8891,105.3253 0.8421,110.1423 5.4361,116.5393 C5.4361,116.5393 9.0511,126.1883 8.7861,128.1823 C8.5311,130.1893 7.3681,135.0703 9.0721,138.8853 C9.0721,138.8853 10.8961,142.9423 11.0541,143.9633 C11.3041,145.5893 12.8191,144.5083 12.9451,143.3033 C13.2011,140.8503 12.2481,136.8953 12.3781,135.0063 C12.8101,128.8193 13.0341,125.5923 12.0861,121.5413 C11.1461,117.5033 11.3391,108.6383 11.3391,108.6383 C11.3391,108.6383 6.3511,108.3233 4.8891,105.3253" id="Fill-118" fill="#EA4BBD"></path>
                <path d="M9.1244,105.089 C9.1244,105.089 4.3954,109.61 8.0004,116.475 L7.7664,127.765 C7.7664,127.765 3.5354,132.011 1.4414,142.859 C1.4414,142.859 2.7624,145.186 3.7244,143.639 C4.6834,142.097 12.1684,131.466 13.0954,127.913 C14.0194,124.355 18.3314,113.52 17.1124,106.741 C17.1124,106.741 13.4184,107.239 9.1244,105.089" id="Fill-120" fill="#FF61CB"></path>
                <path d="M16.727,90.1227 C16.727,90.1227 10.401,82.9597 7.493,85.4147 C7.493,85.4147 3.496,87.3517 4.563,94.2567 C5.639,101.1627 6.277,101.4517 4.598,105.5967 C4.598,105.5967 10.389,112.6997 17.336,107.8027 C17.336,107.8027 16.504,102.7677 17.328,100.7487 C18.542,97.7727 20.24,94.0777 18.401,91.9267 C16.551,89.7807 16.727,90.1227 16.727,90.1227" id="Fill-122" fill="#77D2FF"></path>
                <path d="M16.7045,92.8243 C15.3805,91.8633 13.2195,92.7763 14.1925,94.8033 C15.1655,96.8283 21.8985,102.8463 26.0835,102.6013 C26.0835,102.6013 28.6345,101.5743 16.7045,92.8243" id="Fill-124" fill="#EFB185"></path>
                <path d="M25.9779,102.609 C25.9779,102.609 28.2869,102.394 32.4839,99.615 C32.4839,99.615 35.3289,99.947 36.4489,95.958 C36.4489,95.958 36.3869,95.307 34.6959,96.86 C34.6959,96.86 33.5839,97.696 33.8319,96.586 C34.0759,95.473 33.9729,94.732 33.3959,95.6 C32.8109,96.467 31.8609,98.075 31.8609,98.075 L24.0039,100.003 L25.9779,102.609 Z" id="Fill-126" fill="#EFB185"></path>
                <path d="M15.6244,91.9269 C14.8864,91.9469 13.7714,92.1939 13.4724,93.9189 C13.1894,95.5539 17.3124,99.2079 18.7984,100.0029 C18.7984,100.0029 21.9164,98.9679 21.3624,95.7199 C21.3624,95.7199 17.6714,91.8849 15.6244,91.9269" id="Fill-128" fill="#4BBBE8"></path>
                <path d="M15.8481,86.0182 L14.7151,89.7122 C14.7151,89.7122 11.1331,90.8212 9.4121,87.5782 L10.5481,83.8722 C10.5481,83.8722 13.1481,85.7122 15.8481,86.0182" id="Fill-130" fill="#EFB185"></path>
                <path d="M16.0717,74.5983 C16.0717,74.5983 18.9457,75.1493 19.5947,77.4993 C20.2597,79.8503 20.5397,83.1933 18.8347,84.6993 C17.0157,86.3163 17.5367,87.6163 18.0927,88.3703 C18.6477,89.1233 9.9357,90.2673 7.4927,84.3403 C7.4927,84.3403 7.7957,70.9313 16.0717,74.5983" id="Fill-132" fill="#231202"></path>
            </g>
        </g>
    </g>
</svg>