<?xml version="1.0" encoding="UTF-8"?>
<svg width="152px" height="163px" viewBox="0 0 152 163" version="1.1" xmlns="http://www.w3.org/2000/svg" xmlns:xlink="http://www.w3.org/1999/xlink">
    <!-- Generator: Sketch 53.2 (72643) - https://sketchapp.com -->
    <title>Group 188</title>
    <desc>Created with Sketch.</desc>
    <defs>
        <path d="M4.697,2.86 C4.707,5.29 3.004,8.252 0.891,9.479 L0.891,9.479 L4.983,11.86 C7.102,10.631 8.805,7.671 8.795,5.241 L8.795,5.241 C8.79,4.025 8.363,3.175 7.673,2.779 L7.673,2.779 C6.306,1.984 4.943,1.194 3.575,0.396 L3.575,0.396 C4.267,0.802 4.691,1.645 4.697,2.86" id="path-1"></path>
        <path d="M4.697,2.86 C4.707,5.29 3.004,8.252 0.891,9.479 L0.891,9.479 L4.983,11.86 C7.102,10.631 8.805,7.671 8.795,5.241 L8.795,5.241 C8.79,4.025 8.363,3.175 7.673,2.779 L7.673,2.779 C6.306,1.984 4.943,1.194 3.575,0.396 L3.575,0.396 C4.267,0.802 4.691,1.645 4.697,2.86" id="path-3"></path>
        <path d="M4.697,2.86 C4.707,5.29 3.004,8.252 0.891,9.479 L0.891,9.479 L4.983,11.86 C7.102,10.631 8.805,7.671 8.795,5.241 L8.795,5.241 C8.79,4.025 8.363,3.175 7.673,2.779 L7.673,2.779 C6.306,1.984 4.943,1.194 3.575,0.396 L3.575,0.396 C4.267,0.802 4.691,1.645 4.697,2.86" id="path-5"></path>
        <path d="M4.697,2.86 C4.707,5.29 3.004,8.252 0.891,9.479 L0.891,9.479 L4.983,11.86 C7.102,10.631 8.805,7.671 8.795,5.241 L8.795,5.241 C8.79,4.025 8.363,3.175 7.673,2.779 L7.673,2.779 C6.306,1.984 4.943,1.194 3.575,0.396 L3.575,0.396 C4.267,0.802 4.691,1.645 4.697,2.86" id="path-7"></path>
        <path d="M4.697,2.86 C4.707,5.29 3.004,8.252 0.891,9.479 L0.891,9.479 L4.983,11.86 C7.102,10.631 8.805,7.671 8.795,5.241 L8.795,5.241 C8.79,4.025 8.363,3.175 7.673,2.779 L7.673,2.779 C6.306,1.984 4.943,1.194 3.575,0.396 L3.575,0.396 C4.267,0.802 4.691,1.645 4.697,2.86" id="path-9"></path>
        <path d="M4.697,2.86 C4.707,5.29 3.004,8.252 0.891,9.479 L0.891,9.479 L4.983,11.86 C7.102,10.631 8.805,7.671 8.795,5.241 L8.795,5.241 C8.79,4.025 8.363,3.175 7.673,2.779 L7.673,2.779 C6.306,1.984 4.943,1.194 3.575,0.396 L3.575,0.396 C4.267,0.802 4.691,1.645 4.697,2.86" id="path-11"></path>
        <path d="M4.697,2.86 C4.707,5.29 3.004,8.252 0.891,9.479 L0.891,9.479 L4.983,11.86 C7.102,10.631 8.805,7.671 8.795,5.241 L8.795,5.241 C8.79,4.025 8.363,3.175 7.673,2.779 L7.673,2.779 C6.306,1.984 4.943,1.194 3.575,0.396 L3.575,0.396 C4.267,0.802 4.691,1.645 4.697,2.86" id="path-13"></path>
        <path d="M4.697,2.86 C4.707,5.29 3.004,8.252 0.891,9.479 L0.891,9.479 L4.983,11.86 C7.102,10.631 8.805,7.671 8.795,5.241 L8.795,5.241 C8.79,4.025 8.363,3.175 7.673,2.779 L7.673,2.779 C6.306,1.984 4.943,1.194 3.575,0.396 L3.575,0.396 C4.267,0.802 4.691,1.645 4.697,2.86" id="path-15"></path>
        <path d="M4.697,2.86 C4.707,5.29 3.004,8.252 0.891,9.479 L0.891,9.479 L4.983,11.86 C7.102,10.631 8.805,7.671 8.795,5.241 L8.795,5.241 C8.79,4.025 8.363,3.175 7.673,2.779 L7.673,2.779 C6.306,1.984 4.943,1.194 3.575,0.396 L3.575,0.396 C4.267,0.802 4.691,1.645 4.697,2.86" id="path-17"></path>
        <path d="M4.697,2.86 C4.707,5.29 3.004,8.252 0.891,9.479 L0.891,9.479 L4.983,11.86 C7.102,10.631 8.805,7.671 8.795,5.241 L8.795,5.241 C8.79,4.025 8.363,3.175 7.673,2.779 L7.673,2.779 C6.306,1.984 4.943,1.194 3.575,0.396 L3.575,0.396 C4.267,0.802 4.691,1.645 4.697,2.86" id="path-19"></path>
        <path d="M4.697,2.86 C4.707,5.29 3.004,8.252 0.891,9.479 L0.891,9.479 L4.983,11.86 C7.102,10.631 8.805,7.671 8.795,5.241 L8.795,5.241 C8.79,4.025 8.363,3.175 7.673,2.779 L7.673,2.779 C6.306,1.984 4.943,1.194 3.575,0.396 L3.575,0.396 C4.267,0.802 4.691,1.645 4.697,2.86" id="path-21"></path>
        <path d="M4.697,2.86 C4.707,5.29 3.004,8.252 0.891,9.479 L0.891,9.479 L4.983,11.86 C7.102,10.631 8.805,7.671 8.795,5.241 L8.795,5.241 C8.79,4.025 8.363,3.175 7.673,2.779 L7.673,2.779 C6.306,1.984 4.943,1.194 3.575,0.396 L3.575,0.396 C4.267,0.802 4.691,1.645 4.697,2.86" id="path-23"></path>
        <path d="M4.697,2.86 C4.707,5.29 3.004,8.252 0.891,9.479 L0.891,9.479 L4.983,11.86 C7.102,10.631 8.805,7.671 8.795,5.241 L8.795,5.241 C8.79,4.025 8.363,3.175 7.673,2.779 L7.673,2.779 C6.306,1.984 4.943,1.194 3.575,0.396 L3.575,0.396 C4.267,0.802 4.691,1.645 4.697,2.86" id="path-25"></path>
        <path d="M4.697,2.86 C4.707,5.29 3.004,8.252 0.891,9.479 L0.891,9.479 L4.983,11.86 C7.102,10.631 8.805,7.671 8.795,5.241 L8.795,5.241 C8.79,4.025 8.363,3.175 7.673,2.779 L7.673,2.779 C6.306,1.984 4.943,1.194 3.575,0.396 L3.575,0.396 C4.267,0.802 4.691,1.645 4.697,2.86" id="path-27"></path>
        <path d="M4.697,2.86 C4.707,5.29 3.004,8.252 0.891,9.479 L0.891,9.479 L4.983,11.86 C7.102,10.631 8.805,7.671 8.795,5.241 L8.795,5.241 C8.79,4.025 8.363,3.175 7.673,2.779 L7.673,2.779 C6.306,1.984 4.943,1.194 3.575,0.396 L3.575,0.396 C4.267,0.802 4.691,1.645 4.697,2.86" id="path-29"></path>
        <path d="M0.154,0.752 C1.382,1.456 3.025,2.413 4.255,3.125 L4.255,3.125 C4.954,3.532 5.919,3.475 6.983,2.86 L6.983,2.86 L2.891,0.479 C1.819,1.097 0.855,1.16 0.154,0.752" id="path-31"></path>
        <path d="M0.154,0.752 C1.382,1.456 3.025,2.413 4.255,3.125 L4.255,3.125 C4.954,3.532 5.919,3.475 6.983,2.86 L6.983,2.86 L2.891,0.479 C1.819,1.097 0.855,1.16 0.154,0.752" id="path-33"></path>
        <path d="M0.154,0.752 C1.382,1.456 3.025,2.413 4.255,3.125 L4.255,3.125 C4.954,3.532 5.919,3.475 6.983,2.86 L6.983,2.86 L2.891,0.479 C1.819,1.097 0.855,1.16 0.154,0.752" id="path-35"></path>
        <path d="M0.154,0.752 C1.382,1.456 3.025,2.413 4.255,3.125 L4.255,3.125 C4.954,3.532 5.919,3.475 6.983,2.86 L6.983,2.86 L2.891,0.479 C1.819,1.097 0.855,1.16 0.154,0.752" id="path-37"></path>
        <path d="M0.154,0.752 C1.382,1.456 3.025,2.413 4.255,3.125 L4.255,3.125 C4.954,3.532 5.919,3.475 6.983,2.86 L6.983,2.86 L2.891,0.479 C1.819,1.097 0.855,1.16 0.154,0.752" id="path-39"></path>
        <path d="M0.154,0.752 C1.382,1.456 3.025,2.413 4.255,3.125 L4.255,3.125 C4.954,3.532 5.919,3.475 6.983,2.86 L6.983,2.86 L2.891,0.479 C1.819,1.097 0.855,1.16 0.154,0.752" id="path-41"></path>
        <path d="M0.154,0.752 C1.382,1.456 3.025,2.413 4.255,3.125 L4.255,3.125 C4.954,3.532 5.919,3.475 6.983,2.86 L6.983,2.86 L2.891,0.479 C1.819,1.097 0.855,1.16 0.154,0.752" id="path-43"></path>
        <path d="M0.154,0.752 C1.382,1.456 3.025,2.413 4.255,3.125 L4.255,3.125 C4.954,3.532 5.919,3.475 6.983,2.86 L6.983,2.86 L2.891,0.479 C1.819,1.097 0.855,1.16 0.154,0.752" id="path-45"></path>
        <path d="M0.154,0.752 C1.382,1.456 3.025,2.413 4.255,3.125 L4.255,3.125 C4.954,3.532 5.919,3.475 6.983,2.86 L6.983,2.86 L2.891,0.479 C1.819,1.097 0.855,1.16 0.154,0.752" id="path-47"></path>
        <path d="M0.154,0.752 C1.382,1.456 3.025,2.413 4.255,3.125 L4.255,3.125 C4.954,3.532 5.919,3.475 6.983,2.86 L6.983,2.86 L2.891,0.479 C1.819,1.097 0.855,1.16 0.154,0.752" id="path-49"></path>
        <path d="M0.852,0.674 L4.952,3.046 C6.018,2.432 6.974,2.371 7.673,2.779 L7.673,2.779 L3.575,0.396 C3.285,0.229 2.948,0.142 2.576,0.142 L2.576,0.142 C2.057,0.142 1.471,0.312 0.852,0.674" id="path-51"></path>
        <path d="M0.852,0.674 L4.952,3.046 C6.018,2.432 6.974,2.371 7.673,2.779 L7.673,2.779 L3.575,0.396 C3.285,0.229 2.948,0.142 2.576,0.142 L2.576,0.142 C2.057,0.142 1.471,0.312 0.852,0.674" id="path-53"></path>
        <path d="M0.852,0.674 L4.952,3.046 C6.018,2.432 6.974,2.371 7.673,2.779 L7.673,2.779 L3.575,0.396 C3.285,0.229 2.948,0.142 2.576,0.142 L2.576,0.142 C2.057,0.142 1.471,0.312 0.852,0.674" id="path-55"></path>
        <path d="M0.852,0.674 L4.952,3.046 C6.018,2.432 6.974,2.371 7.673,2.779 L7.673,2.779 L3.575,0.396 C3.285,0.229 2.948,0.142 2.576,0.142 L2.576,0.142 C2.057,0.142 1.471,0.312 0.852,0.674" id="path-57"></path>
        <path d="M0.852,0.674 L4.952,3.046 C6.018,2.432 6.974,2.371 7.673,2.779 L7.673,2.779 L3.575,0.396 C3.285,0.229 2.948,0.142 2.576,0.142 L2.576,0.142 C2.057,0.142 1.471,0.312 0.852,0.674" id="path-59"></path>
        <path d="M0.852,0.674 L4.952,3.046 C6.018,2.432 6.974,2.371 7.673,2.779 L7.673,2.779 L3.575,0.396 C3.285,0.229 2.948,0.142 2.576,0.142 L2.576,0.142 C2.057,0.142 1.471,0.312 0.852,0.674" id="path-61"></path>
        <path d="M0.852,0.674 L4.952,3.046 C6.018,2.432 6.974,2.371 7.673,2.779 L7.673,2.779 L3.575,0.396 C3.285,0.229 2.948,0.142 2.576,0.142 L2.576,0.142 C2.057,0.142 1.471,0.312 0.852,0.674" id="path-63"></path>
        <path d="M0.852,0.674 L4.952,3.046 C6.018,2.432 6.974,2.371 7.673,2.779 L7.673,2.779 L3.575,0.396 C3.285,0.229 2.948,0.142 2.576,0.142 L2.576,0.142 C2.057,0.142 1.471,0.312 0.852,0.674" id="path-65"></path>
        <path d="M0.852,0.674 L4.952,3.046 C6.018,2.432 6.974,2.371 7.673,2.779 L7.673,2.779 L3.575,0.396 C3.285,0.229 2.948,0.142 2.576,0.142 L2.576,0.142 C2.057,0.142 1.471,0.312 0.852,0.674" id="path-67"></path>
        <path d="M0.852,0.674 L4.952,3.046 C6.018,2.432 6.974,2.371 7.673,2.779 L7.673,2.779 L3.575,0.396 C3.285,0.229 2.948,0.142 2.576,0.142 L2.576,0.142 C2.057,0.142 1.471,0.312 0.852,0.674" id="path-69"></path>
        <path d="M0.038,7.299 C0.038,8.508 0.47,9.354 1.154,9.755 L1.154,9.755 C1.359,9.87 1.568,9.994 1.773,10.104 L1.773,10.104 C1.835,10.147 1.917,10.191 1.974,10.232 L1.974,10.232 C3.067,10.856 4.161,11.492 5.255,12.125 L5.255,12.125 C4.569,11.732 4.139,10.876 4.131,9.674 L4.131,9.674 C4.126,7.234 5.831,4.272 7.952,3.046 L7.952,3.046 L3.852,0.674 C1.732,1.9 0.028,4.863 0.038,7.299" id="path-71"></path>
        <path d="M0.038,7.299 C0.038,8.508 0.47,9.354 1.154,9.755 L1.154,9.755 C1.359,9.87 1.568,9.994 1.773,10.104 L1.773,10.104 C1.835,10.147 1.917,10.191 1.974,10.232 L1.974,10.232 C3.067,10.856 4.161,11.492 5.255,12.125 L5.255,12.125 C4.569,11.732 4.139,10.876 4.131,9.674 L4.131,9.674 C4.126,7.234 5.831,4.272 7.952,3.046 L7.952,3.046 L3.852,0.674 C1.732,1.9 0.028,4.863 0.038,7.299" id="path-73"></path>
        <path d="M0.038,7.299 C0.038,8.508 0.47,9.354 1.154,9.755 L1.154,9.755 C1.359,9.87 1.568,9.994 1.773,10.104 L1.773,10.104 C1.835,10.147 1.917,10.191 1.974,10.232 L1.974,10.232 C3.067,10.856 4.161,11.492 5.255,12.125 L5.255,12.125 C4.569,11.732 4.139,10.876 4.131,9.674 L4.131,9.674 C4.126,7.234 5.831,4.272 7.952,3.046 L7.952,3.046 L3.852,0.674 C1.732,1.9 0.028,4.863 0.038,7.299" id="path-75"></path>
        <path d="M0.038,7.299 C0.038,8.508 0.47,9.354 1.154,9.755 L1.154,9.755 C1.359,9.87 1.568,9.994 1.773,10.104 L1.773,10.104 C1.835,10.147 1.917,10.191 1.974,10.232 L1.974,10.232 C3.067,10.856 4.161,11.492 5.255,12.125 L5.255,12.125 C4.569,11.732 4.139,10.876 4.131,9.674 L4.131,9.674 C4.126,7.234 5.831,4.272 7.952,3.046 L7.952,3.046 L3.852,0.674 C1.732,1.9 0.028,4.863 0.038,7.299" id="path-77"></path>
        <path d="M0.038,7.299 C0.038,8.508 0.47,9.354 1.154,9.755 L1.154,9.755 C1.359,9.87 1.568,9.994 1.773,10.104 L1.773,10.104 C1.835,10.147 1.917,10.191 1.974,10.232 L1.974,10.232 C3.067,10.856 4.161,11.492 5.255,12.125 L5.255,12.125 C4.569,11.732 4.139,10.876 4.131,9.674 L4.131,9.674 C4.126,7.234 5.831,4.272 7.952,3.046 L7.952,3.046 L3.852,0.674 C1.732,1.9 0.028,4.863 0.038,7.299" id="path-79"></path>
        <path d="M0.038,7.299 C0.038,8.508 0.47,9.354 1.154,9.755 L1.154,9.755 C1.359,9.87 1.568,9.994 1.773,10.104 L1.773,10.104 C1.835,10.147 1.917,10.191 1.974,10.232 L1.974,10.232 C3.067,10.856 4.161,11.492 5.255,12.125 L5.255,12.125 C4.569,11.732 4.139,10.876 4.131,9.674 L4.131,9.674 C4.126,7.234 5.831,4.272 7.952,3.046 L7.952,3.046 L3.852,0.674 C1.732,1.9 0.028,4.863 0.038,7.299" id="path-81"></path>
        <path d="M0.038,7.299 C0.038,8.508 0.47,9.354 1.154,9.755 L1.154,9.755 C1.359,9.87 1.568,9.994 1.773,10.104 L1.773,10.104 C1.835,10.147 1.917,10.191 1.974,10.232 L1.974,10.232 C3.067,10.856 4.161,11.492 5.255,12.125 L5.255,12.125 C4.569,11.732 4.139,10.876 4.131,9.674 L4.131,9.674 C4.126,7.234 5.831,4.272 7.952,3.046 L7.952,3.046 L3.852,0.674 C1.732,1.9 0.028,4.863 0.038,7.299" id="path-83"></path>
        <path d="M0.038,7.299 C0.038,8.508 0.47,9.354 1.154,9.755 L1.154,9.755 C1.359,9.87 1.568,9.994 1.773,10.104 L1.773,10.104 C1.835,10.147 1.917,10.191 1.974,10.232 L1.974,10.232 C3.067,10.856 4.161,11.492 5.255,12.125 L5.255,12.125 C4.569,11.732 4.139,10.876 4.131,9.674 L4.131,9.674 C4.126,7.234 5.831,4.272 7.952,3.046 L7.952,3.046 L3.852,0.674 C1.732,1.9 0.028,4.863 0.038,7.299" id="path-85"></path>
        <path d="M0.038,7.299 C0.038,8.508 0.47,9.354 1.154,9.755 L1.154,9.755 C1.359,9.87 1.568,9.994 1.773,10.104 L1.773,10.104 C1.835,10.147 1.917,10.191 1.974,10.232 L1.974,10.232 C3.067,10.856 4.161,11.492 5.255,12.125 L5.255,12.125 C4.569,11.732 4.139,10.876 4.131,9.674 L4.131,9.674 C4.126,7.234 5.831,4.272 7.952,3.046 L7.952,3.046 L3.852,0.674 C1.732,1.9 0.028,4.863 0.038,7.299" id="path-87"></path>
        <path d="M0.038,7.299 C0.038,8.508 0.47,9.354 1.154,9.755 L1.154,9.755 C1.359,9.87 1.568,9.994 1.773,10.104 L1.773,10.104 C1.835,10.147 1.917,10.191 1.974,10.232 L1.974,10.232 C3.067,10.856 4.161,11.492 5.255,12.125 L5.255,12.125 C4.569,11.732 4.139,10.876 4.131,9.674 L4.131,9.674 C4.126,7.234 5.831,4.272 7.952,3.046 L7.952,3.046 L3.852,0.674 C1.732,1.9 0.028,4.863 0.038,7.299" id="path-89"></path>
        <path d="M0.038,7.299 C0.038,8.508 0.47,9.354 1.154,9.755 L1.154,9.755 C1.359,9.87 1.568,9.994 1.773,10.104 L1.773,10.104 C1.835,10.147 1.917,10.191 1.974,10.232 L1.974,10.232 C3.067,10.856 4.161,11.492 5.255,12.125 L5.255,12.125 C4.569,11.732 4.139,10.876 4.131,9.674 L4.131,9.674 C4.126,7.234 5.831,4.272 7.952,3.046 L7.952,3.046 L3.852,0.674 C1.732,1.9 0.028,4.863 0.038,7.299" id="path-91"></path>
        <path d="M0.038,7.299 C0.038,8.508 0.47,9.354 1.154,9.755 L1.154,9.755 C1.359,9.87 1.568,9.994 1.773,10.104 L1.773,10.104 C1.835,10.147 1.917,10.191 1.974,10.232 L1.974,10.232 C3.067,10.856 4.161,11.492 5.255,12.125 L5.255,12.125 C4.569,11.732 4.139,10.876 4.131,9.674 L4.131,9.674 C4.126,7.234 5.831,4.272 7.952,3.046 L7.952,3.046 L3.852,0.674 C1.732,1.9 0.028,4.863 0.038,7.299" id="path-93"></path>
        <path d="M0.038,7.299 C0.038,8.508 0.47,9.354 1.154,9.755 L1.154,9.755 C1.359,9.87 1.568,9.994 1.773,10.104 L1.773,10.104 C1.835,10.147 1.917,10.191 1.974,10.232 L1.974,10.232 C3.067,10.856 4.161,11.492 5.255,12.125 L5.255,12.125 C4.569,11.732 4.139,10.876 4.131,9.674 L4.131,9.674 C4.126,7.234 5.831,4.272 7.952,3.046 L7.952,3.046 L3.852,0.674 C1.732,1.9 0.028,4.863 0.038,7.299" id="path-95"></path>
        <path d="M0.038,7.299 C0.038,8.508 0.47,9.354 1.154,9.755 L1.154,9.755 C1.359,9.87 1.568,9.994 1.773,10.104 L1.773,10.104 C1.835,10.147 1.917,10.191 1.974,10.232 L1.974,10.232 C3.067,10.856 4.161,11.492 5.255,12.125 L5.255,12.125 C4.569,11.732 4.139,10.876 4.131,9.674 L4.131,9.674 C4.126,7.234 5.831,4.272 7.952,3.046 L7.952,3.046 L3.852,0.674 C1.732,1.9 0.028,4.863 0.038,7.299" id="path-97"></path>
        <path d="M0.038,7.299 C0.038,8.508 0.47,9.354 1.154,9.755 L1.154,9.755 C1.359,9.87 1.568,9.994 1.773,10.104 L1.773,10.104 C1.835,10.147 1.917,10.191 1.974,10.232 L1.974,10.232 C3.067,10.856 4.161,11.492 5.255,12.125 L5.255,12.125 C4.569,11.732 4.139,10.876 4.131,9.674 L4.131,9.674 C4.126,7.234 5.831,4.272 7.952,3.046 L7.952,3.046 L3.852,0.674 C1.732,1.9 0.028,4.863 0.038,7.299" id="path-99"></path>
        <polygon id="path-101" points="0.103 36.83 0.498 131.231 63.526 94.734 63.134 0.328"></polygon>
        <linearGradient x1="0.000259684972%" y1="50.0001304%" x2="99.9992137%" y2="50.0001304%" id="linearGradient-103">
            <stop stop-color="#0EEFEF" offset="0%"></stop>
            <stop stop-color="#2F56F9" offset="100%"></stop>
        </linearGradient>
        <polygon id="path-104" points="0.146575019 0.791378513 73.9466128 0.791378513 73.9466128 161 0.146575019 161"></polygon>
        <polygon id="path-106" points="0.0429892681 0.416 76.5063 0.416 76.5063 47.5991 0.0429892681 47.5991"></polygon>
        <path d="M107.127,0.395 C106.049,1.02 105.023,2.389 104.086,4.402 L104.086,4.402 C101.081,10.857 101.262,20.616 97.038,23.058 L97.038,23.058 C96.639,23.286 96.204,23.453 95.723,23.544 L95.723,23.544 C93.205,24.018 92.329,22.189 91.715,20.361 L91.715,20.361 C91.036,18.338 90.68,16.315 88.782,17.41 L88.782,17.41 C88.567,17.534 88.338,17.693 88.086,17.896 L88.086,17.896 C85.035,20.363 81.8,26.392 79.206,27.888 L79.206,27.888 C77.292,28.992 75.731,27.624 74.854,20.51 L74.854,20.51 C73.985,13.425 71.967,11.619 69.93,12.795 L69.93,12.795 C67.932,13.949 65.915,17.969 64.935,22.71 L64.935,22.71 C63.107,31.546 62.384,40.798 59.296,42.58 L59.296,42.58 C59.043,42.727 58.772,42.82 58.489,42.863 L58.489,42.863 C56.618,43.138 56.066,39.066 55.481,34.994 L55.481,34.994 C54.882,30.829 54.251,26.666 52.141,27.149 L52.141,27.149 C51.852,27.217 51.563,27.334 51.281,27.499 L51.281,27.499 C47.6,29.62 44.616,39.429 44.198,46.225 L44.198,46.225 C43.874,51.44 43.725,54.624 42.303,55.446 L42.303,55.446 C41.724,55.778 40.941,55.724 39.849,55.258 L39.849,55.258 C36.061,53.643 36.74,42.654 31.886,45.182 L31.886,45.182 C27.321,47.818 28.477,61.011 24.979,63.843 L24.979,63.843 C23.802,64.795 22.689,65.527 21.618,66.148 L21.618,66.148 C19.47,67.386 17.476,68.173 15.377,69.385 L15.377,69.385 C12.232,71.202 1.244,81.063 0.666,81.579 L0.666,81.579 C0.687,81.568 1.107,81.277 1.807,80.868 L1.807,80.868 C4.569,79.276 11.398,76.149 11.795,83.946 L11.795,83.946 C12.019,88.32 13.751,91.544 15.848,90.332 L15.848,90.332 C16.786,89.792 17.795,88.365 18.775,85.764 L18.775,85.764 C21.283,79.101 21.09,73.287 22.779,72.311 L22.779,72.311 C23.117,72.115 23.533,72.115 24.055,72.344 L24.055,72.344 C25.795,73.092 27.03,73.003 27.902,72.5 L27.902,72.5 C28.996,71.869 29.526,70.588 29.785,69.461 L29.785,69.461 C30.054,68.333 30.054,67.361 30.073,67.35 L30.073,67.35 C30.09,67.34 30.108,67.654 30.191,68.437 L30.191,68.437 C30.573,72.074 32.136,77.559 33.933,76.522 L33.933,76.522 C34.416,76.243 34.915,75.496 35.41,74.118 L35.41,74.118 C36.949,69.844 39.469,64.816 41.273,63.776 L41.273,63.776 C42.217,63.229 42.966,63.781 43.269,66.108 L43.269,66.108 C43.968,71.462 46.264,77.122 49.907,75.013 L49.907,75.013 C50.872,74.459 51.929,73.363 53.077,71.576 L53.077,71.576 C57.794,64.229 54.199,55.242 57.687,53.232 L57.687,53.232 C58.023,53.037 58.426,52.908 58.914,52.854 L58.914,52.854 C59.689,52.763 60.452,52.473 61.182,52.05 L61.182,52.05 C62.915,51.051 64.523,49.297 65.988,47.625 L65.988,47.625 C67.456,45.949 68.782,44.354 69.947,43.682 L69.947,43.682 C71.725,42.654 73.135,43.762 74.113,49.965 L74.113,49.965 C74.756,54.034 76.927,55.578 78.872,54.457 L78.872,54.457 C80.707,53.395 82.348,49.944 82.292,43.97 L82.292,43.97 C82.244,39.072 84.087,27.008 85.657,26.099 L85.657,26.099 C86.076,25.858 86.477,26.419 86.82,28.142 L86.82,28.142 C88.262,35.436 91.258,34.328 93.694,33.221 L93.694,33.221 C95.698,32.309 97.324,31.398 97.395,35.164 L97.395,35.164 C97.511,41.414 100.172,43.089 102.468,41.764 L102.468,41.764 C103.859,40.959 105.12,39.059 105.602,36.407 L105.602,36.407 C106.627,30.77 108.486,19.775 110.771,18.454 L110.771,18.454 C111.342,18.126 111.941,18.401 112.563,19.521 L112.563,19.521 C115.547,24.915 117.933,26.005 119.817,24.916 L119.817,24.916 C124.032,22.484 125.687,9.116 125.77,8.841 L125.77,8.841 C125.661,8.961 123.56,11.258 121.19,12.626 L121.19,12.626 C119.073,13.849 116.835,14.237 115.909,11.345 L115.909,11.345 C113.385,3.478 110.823,0.012 108.469,0.012 L108.469,0.012 C108.014,0.012 107.566,0.142 107.127,0.395" id="path-108"></path>
        <linearGradient x1="0.000277768896%" y1="50.0000157%" x2="99.9999089%" y2="50.0000157%" id="linearGradient-110">
            <stop stop-color="#4844E8" offset="0%"></stop>
            <stop stop-color="#341F97" offset="100%"></stop>
        </linearGradient>
        <path d="M128.697,1.383 C127.433,2.115 126.115,3.251 124.832,4.983 L124.832,4.983 C123.37,6.948 122.212,8.082 121.271,8.626 L121.271,8.626 C118.99,9.942 117.962,7.814 116.908,5.687 L116.908,5.687 C115.842,3.536 114.751,1.385 112.317,2.791 L112.317,2.791 C108.062,5.245 105.281,13.838 100.675,17.389 L100.675,17.389 C100.5,17.52 100.336,17.632 100.176,17.725 L100.176,17.725 C97.85,19.066 96.475,16.556 95.012,14.046 L95.012,14.046 C93.505,11.458 91.903,8.869 89.072,10.503 L89.072,10.503 C84.074,13.387 85.419,21.169 78.627,25.091 L78.627,25.091 C77.572,25.696 76.328,26.21 74.833,26.601 L74.833,26.601 C70.796,27.652 70.413,21.404 70.206,15.155 L70.206,15.155 C69.983,8.42 69.965,1.686 65.804,4.087 L65.804,4.087 C58.057,8.561 59.46,32.782 55.487,35.056 L55.487,35.056 C53.697,35.726 53.076,34.203 52.343,32.68 L52.343,32.68 C51.46,30.847 50.415,29.014 46.967,31.008 L46.967,31.008 C40.594,34.961 39.689,49.068 35.448,54.503 L35.448,54.503 C34.33,55.941 33.423,56.797 32.592,57.279 L32.592,57.279 C30.266,58.617 28.522,57.027 24.344,56.836 L24.344,56.836 C23.068,56.778 21.918,57.123 20.878,57.719 L20.878,57.719 C17.295,59.791 14.982,64.933 13.024,67.448 L13.024,67.448 C11.025,70.018 0.471,78.463 1.009,78.151 L1.009,78.151 C1.1,78.098 1.537,77.776 2.415,77.104 L2.415,77.104 C2.915,76.727 3.4,76.402 3.879,76.131 L3.879,76.131 C5.949,74.936 7.837,74.615 9.722,74.296 L9.722,74.296 C11.605,73.979 13.474,73.667 15.51,72.49 L15.51,72.49 C16.529,71.904 17.584,71.102 18.707,69.977 L18.707,69.977 C19.864,68.818 20.917,67.986 21.885,67.428 L21.885,67.428 C26.03,65.035 28.471,67.755 29.827,71.603 L29.827,71.603 C31.211,75.555 32.368,77.833 35.497,76.03 L35.497,76.03 C36.124,75.667 36.83,75.139 37.635,74.431 L37.635,74.431 C43.668,69.086 43.006,58.011 50.682,53.578 L50.682,53.578 C50.802,53.508 50.927,53.441 51.05,53.373 L51.05,53.373 C56.949,50.237 55.99,61.917 61.716,62.514 L61.716,62.514 C62.501,62.597 63.16,62.461 63.719,62.137 L63.719,62.137 C67.043,60.219 66.852,51.846 68.049,45.344 L68.049,45.344 C68.705,41.76 69.859,39.712 71.255,38.904 L71.255,38.904 C72.821,38 74.7,38.653 76.547,40.438 L76.547,40.438 C79.916,43.705 82.364,46.714 87.197,43.928 L87.197,43.928 C94.512,39.704 93.332,30.732 97.104,26.241 L97.104,26.241 C98.495,24.583 99.745,23.508 100.891,22.847 L100.891,22.847 C103.613,21.274 105.73,22.048 107.651,22.932 L107.651,22.932 C109.571,23.815 111.298,24.809 113.244,23.686 L113.244,23.686 C114.428,23.001 115.702,21.522 117.146,18.745 L117.146,18.745 C119.171,14.849 122.382,9.134 126.395,6.818 L126.395,6.818 C131.648,3.785 136.016,1.068 136.245,0.923 L136.245,0.923 C136.14,0.867 134.871,0.182 132.979,0.182 L132.979,0.182 C131.762,0.182 130.286,0.466 128.697,1.383" id="path-111"></path>
        <linearGradient x1="0.00020753625%" y1="50.0002308%" x2="100.000195%" y2="50.0002308%" id="linearGradient-113">
            <stop stop-color="#0EEFEF" offset="0%"></stop>
            <stop stop-color="#2F56F9" offset="100%"></stop>
        </linearGradient>
    </defs>
    <g id="Page-1" stroke="none" stroke-width="1" fill="none" fill-rule="evenodd">
        <g id="Group-188" transform="translate(0.000000, -1.000000)">
            <path d="M5.3644,128.5504 C-1.7506,132.6544 -1.7956,139.3184 5.2764,143.4344 L28.6274,156.9994 C35.7024,161.1114 47.2044,161.1114 54.3184,156.9994 L84.5934,139.5244 C91.7154,135.4124 91.7504,128.7494 84.6754,124.6404 L61.3294,111.0714 C54.2544,106.9614 42.7594,106.9614 35.6334,111.0714 L5.3644,128.5504 Z" id="Fill-1" fill="#C6C6C6"></path>
            <g id="Group-48" transform="translate(71.000000, 126.584000)">
                <g id="Group-5">
                    <mask id="mask-2" fill="white">
                        <use xlink:href="#path-1"></use>
                    </mask>
                    <g id="Clip-4"></g>
                    <path d="M4.9836,11.86 L0.8906,9.479 C1.3376,9.217 1.7666,8.884 2.1666,8.493 L6.2656,10.861 C5.8666,11.255 5.4376,11.593 4.9836,11.86" id="Fill-3" fill="#B2C5CC" mask="url(#mask-2)"></path>
                </g>
                <g id="Group-8">
                    <mask id="mask-4" fill="white">
                        <use xlink:href="#path-3"></use>
                    </mask>
                    <g id="Clip-7"></g>
                    <path d="M6.2658,10.8609 L2.1658,8.4929 C2.3058,8.3439 2.4478,8.1939 2.5828,8.0409 L6.6838,10.4189 C6.5488,10.5699 6.4078,10.7159 6.2658,10.8609" id="Fill-6" fill="#ADC0C7" mask="url(#mask-4)"></path>
                </g>
                <g id="Group-11">
                    <mask id="mask-6" fill="white">
                        <use xlink:href="#path-5"></use>
                    </mask>
                    <g id="Clip-10"></g>
                    <path d="M6.6837,10.4186 L2.5827,8.0406 C2.6917,7.9186 2.7977,7.7906 2.8967,7.6556 L6.9937,10.0316 C6.8907,10.1666 6.7907,10.2916 6.6837,10.4186" id="Fill-9" fill="#A9BBC2" mask="url(#mask-6)"></path>
                </g>
                <g id="Group-14">
                    <mask id="mask-8" fill="white">
                        <use xlink:href="#path-7"></use>
                    </mask>
                    <g id="Clip-13"></g>
                    <path d="M6.9933,10.0318 L2.8963,7.6558 C2.9803,7.5518 3.0643,7.4348 3.1483,7.3158 L7.2503,9.6908 C7.1643,9.8088 7.0823,9.9248 6.9933,10.0318" id="Fill-12" fill="#A4B6BD" mask="url(#mask-8)"></path>
                </g>
                <g id="Group-17">
                    <mask id="mask-10" fill="white">
                        <use xlink:href="#path-9"></use>
                    </mask>
                    <g id="Clip-16"></g>
                    <path d="M7.2502,9.691 L3.1482,7.316 C3.2262,7.21 3.3002,7.097 3.3712,6.982 L7.4722,9.364 C7.3982,9.472 7.3272,9.585 7.2502,9.691" id="Fill-15" fill="#A0B1B8" mask="url(#mask-10)"></path>
                </g>
                <g id="Group-20">
                    <mask id="mask-12" fill="white">
                        <use xlink:href="#path-11"></use>
                    </mask>
                    <g id="Clip-19"></g>
                    <path d="M7.4718,9.3639 L3.3708,6.9819 C3.4388,6.8789 3.4988,6.7699 3.5708,6.6649 L7.6688,9.0309 C7.6038,9.1409 7.5378,9.2519 7.4718,9.3639" id="Fill-18" fill="#9BACB3" mask="url(#mask-12)"></path>
                </g>
                <g id="Group-23">
                    <mask id="mask-14" fill="white">
                        <use xlink:href="#path-13"></use>
                    </mask>
                    <g id="Clip-22"></g>
                    <path d="M7.6691,9.0309 L3.5701,6.6649 C3.6281,6.5519 3.6871,6.4479 3.7461,6.3409 L7.8461,8.7139 C7.7881,8.8259 7.7291,8.9309 7.6691,9.0309" id="Fill-21" fill="#97A7AD" mask="url(#mask-14)"></path>
                </g>
                <g id="Group-26">
                    <mask id="mask-16" fill="white">
                        <use xlink:href="#path-15"></use>
                    </mask>
                    <g id="Clip-25"></g>
                    <path d="M7.8459,8.7135 L3.7459,6.3405 C3.8059,6.2335 3.8619,6.1195 3.9079,6.0115 L8.0139,8.3865 C7.9569,8.4975 7.9069,8.6035 7.8459,8.7135" id="Fill-24" fill="#93A2A8" mask="url(#mask-16)"></path>
                </g>
                <g id="Group-29">
                    <mask id="mask-18" fill="white">
                        <use xlink:href="#path-17"></use>
                    </mask>
                    <g id="Clip-28"></g>
                    <path d="M8.0138,8.3863 L3.9078,6.0113 C3.9618,5.8993 4.0158,5.7883 4.0608,5.6793 L8.1628,8.0533 C8.1188,8.1633 8.0648,8.2793 8.0138,8.3863" id="Fill-27" fill="#8E9DA3" mask="url(#mask-18)"></path>
                </g>
                <g id="Group-32">
                    <mask id="mask-20" fill="white">
                        <use xlink:href="#path-19"></use>
                    </mask>
                    <g id="Clip-31"></g>
                    <path d="M8.1632,8.0533 L4.0602,5.6793 C4.1132,5.5633 4.1572,5.4513 4.2052,5.3363 L8.2982,7.7123 C8.2622,7.8233 8.2142,7.9403 8.1632,8.0533" id="Fill-30" fill="#8A999E" mask="url(#mask-20)"></path>
                </g>
                <g id="Group-35">
                    <mask id="mask-22" fill="white">
                        <use xlink:href="#path-21"></use>
                    </mask>
                    <g id="Clip-34"></g>
                    <path d="M8.298,7.7125 L4.205,5.3365 C4.248,5.2145 4.291,5.0895 4.332,4.9745 L8.434,7.3475 C8.391,7.4665 8.351,7.5895 8.298,7.7125" id="Fill-33" fill="#859499" mask="url(#mask-22)"></path>
                </g>
                <g id="Group-38">
                    <mask id="mask-24" fill="white">
                        <use xlink:href="#path-23"></use>
                    </mask>
                    <g id="Clip-37"></g>
                    <path d="M8.4337,7.3473 L4.3317,4.9743 C4.3797,4.8463 4.4157,4.7113 4.4457,4.5843 L8.5477,6.9603 C8.5167,7.0903 8.4777,7.2153 8.4337,7.3473" id="Fill-36" fill="#818F94" mask="url(#mask-24)"></path>
                </g>
                <g id="Group-41">
                    <mask id="mask-26" fill="white">
                        <use xlink:href="#path-25"></use>
                    </mask>
                    <g id="Clip-40"></g>
                    <path d="M8.548,6.9606 L4.445,4.5846 C4.495,4.4386 4.527,4.2916 4.559,4.1436 L8.655,6.5216 C8.627,6.6676 8.59,6.8116 8.548,6.9606" id="Fill-39" fill="#7C8A8F" mask="url(#mask-26)"></path>
                </g>
                <g id="Group-44">
                    <mask id="mask-28" fill="white">
                        <use xlink:href="#path-27"></use>
                    </mask>
                    <g id="Clip-43"></g>
                    <path d="M8.6554,6.5211 L4.5584,4.1431 C4.6004,3.9601 4.6304,3.7881 4.6514,3.6121 L8.7474,5.9851 C8.7244,6.1631 8.6934,6.3401 8.6554,6.5211" id="Fill-42" fill="#78858A" mask="url(#mask-28)"></path>
                </g>
                <g id="Group-47">
                    <mask id="mask-30" fill="white">
                        <use xlink:href="#path-29"></use>
                    </mask>
                    <g id="Clip-46"></g>
                    <path d="M8.7472,5.985 L4.6512,3.612 C4.6832,3.36 4.6972,3.108 4.6972,2.86 C4.6902,1.645 4.2672,0.802 3.5752,0.396 L7.6732,2.779 C8.3622,3.175 8.7902,4.025 8.7952,5.241 C8.8002,5.486 8.7802,5.73 8.7472,5.985" id="Fill-45" fill="#738085" mask="url(#mask-30)"></path>
                </g>
            </g>
            <g id="Group-79" transform="translate(69.000000, 135.584000)">
                <g id="Group-51">
                    <mask id="mask-32" fill="white">
                        <use xlink:href="#path-31"></use>
                    </mask>
                    <g id="Clip-50"></g>
                    <path d="M4.255,3.1246 L0.154,0.7556 C0.166,0.7556 0.171,0.7606 0.177,0.7606 L4.276,3.1386 C4.272,3.1386 4.26,3.1316 4.255,3.1246" id="Fill-49" fill="#8A999E" mask="url(#mask-32)"></path>
                </g>
                <g id="Group-54">
                    <mask id="mask-34" fill="white">
                        <use xlink:href="#path-33"></use>
                    </mask>
                    <g id="Clip-53"></g>
                    <path d="M4.2755,3.1383 L0.1765,0.7603 C0.2345,0.7993 0.3035,0.8323 0.3695,0.8563 L4.4705,3.2353 C4.3985,3.2053 4.3385,3.1763 4.2755,3.1383" id="Fill-52" fill="#8E9DA3" mask="url(#mask-34)"></path>
                </g>
                <g id="Group-57">
                    <mask id="mask-36" fill="white">
                        <use xlink:href="#path-35"></use>
                    </mask>
                    <g id="Clip-56"></g>
                    <path d="M4.4709,3.235 L0.3689,0.856 C0.4389,0.885 0.5009,0.907 0.5689,0.931 L4.6699,3.304 C4.5999,3.278 4.5329,3.258 4.4709,3.235" id="Fill-55" fill="#93A2A8" mask="url(#mask-36)"></path>
                </g>
                <g id="Group-60">
                    <mask id="mask-38" fill="white">
                        <use xlink:href="#path-37"></use>
                    </mask>
                    <g id="Clip-59"></g>
                    <path d="M4.6701,3.3043 L0.5681,0.9313 C0.6431,0.9503 0.7121,0.9643 0.7841,0.9763 L4.8821,3.3523 C4.8101,3.3443 4.7391,3.3243 4.6701,3.3043" id="Fill-58" fill="#97A7AD" mask="url(#mask-38)"></path>
                </g>
                <g id="Group-63">
                    <mask id="mask-40" fill="white">
                        <use xlink:href="#path-39"></use>
                    </mask>
                    <g id="Clip-62"></g>
                    <path d="M4.882,3.3522 L0.784,0.9762 C0.861,0.9942 0.94,0.9982 1.019,1.0012 L5.119,3.3762 C5.035,3.3732 4.961,3.3642 4.882,3.3522" id="Fill-61" fill="#9BACB3" mask="url(#mask-40)"></path>
                </g>
                <g id="Group-66">
                    <mask id="mask-42" fill="white">
                        <use xlink:href="#path-41"></use>
                    </mask>
                    <g id="Clip-65"></g>
                    <path d="M5.1193,3.3766 L1.0183,1.0016 C1.1013,1.0126 1.1873,1.0126 1.2743,1.0056 L5.3713,3.3766 C5.2873,3.3856 5.2053,3.3816 5.1193,3.3766" id="Fill-64" fill="#A0B1B8" mask="url(#mask-42)"></path>
                </g>
                <g id="Group-69">
                    <mask id="mask-44" fill="white">
                        <use xlink:href="#path-43"></use>
                    </mask>
                    <g id="Clip-68"></g>
                    <path d="M5.3712,3.3766 L1.2742,1.0056 C1.3602,0.9986 1.4612,0.9936 1.5612,0.9766 L5.6572,3.3526 C5.5582,3.3636 5.4672,3.3736 5.3712,3.3766" id="Fill-67" fill="#A4B6BD" mask="url(#mask-44)"></path>
                </g>
                <g id="Group-72">
                    <mask id="mask-46" fill="white">
                        <use xlink:href="#path-45"></use>
                    </mask>
                    <g id="Clip-71"></g>
                    <path d="M5.6574,3.3522 L1.5614,0.9762 C1.6684,0.9622 1.7814,0.9362 1.8964,0.9072 L5.9954,3.2782 C5.8804,3.3182 5.7674,3.3372 5.6574,3.3522" id="Fill-70" fill="#A9BBC2" mask="url(#mask-46)"></path>
                </g>
                <g id="Group-75">
                    <mask id="mask-48" fill="white">
                        <use xlink:href="#path-47"></use>
                    </mask>
                    <g id="Clip-74"></g>
                    <path d="M5.9953,3.2779 L1.8963,0.9069 C2.0433,0.8639 2.1943,0.8179 2.3523,0.7519 L6.4453,3.1219 C6.2913,3.1859 6.1443,3.2389 5.9953,3.2779" id="Fill-73" fill="#ADC0C7" mask="url(#mask-48)"></path>
                </g>
                <g id="Group-78">
                    <mask id="mask-50" fill="white">
                        <use xlink:href="#path-49"></use>
                    </mask>
                    <g id="Clip-77"></g>
                    <path d="M6.4455,3.1217 L2.3525,0.7517 C2.5255,0.6727 2.7085,0.5907 2.8905,0.4787 L6.9835,2.8597 C6.8025,2.9557 6.6255,3.0447 6.4455,3.1217" id="Fill-76" fill="#B2C5CC" mask="url(#mask-50)"></path>
                </g>
            </g>
            <g id="Group-110" transform="translate(71.000000, 126.584000)">
                <g id="Group-82">
                    <mask id="mask-52" fill="white">
                        <use xlink:href="#path-51"></use>
                    </mask>
                    <g id="Clip-81"></g>
                    <path d="M4.9523,3.0455 L0.8523,0.6745 C1.0373,0.5665 1.2093,0.4725 1.3883,0.4035 L5.4873,2.7785 C5.3123,2.8555 5.1323,2.9395 4.9523,3.0455" id="Fill-80" fill="#87ABBB" mask="url(#mask-52)"></path>
                </g>
                <g id="Group-85">
                    <mask id="mask-54" fill="white">
                        <use xlink:href="#path-53"></use>
                    </mask>
                    <g id="Clip-84"></g>
                    <path d="M5.4875,2.7789 L1.3875,0.4039 C1.5445,0.3389 1.6905,0.2839 1.8375,0.2499 L5.9395,2.6229 C5.7935,2.6629 5.6455,2.7189 5.4875,2.7789" id="Fill-83" fill="#84A7B7" mask="url(#mask-54)"></path>
                </g>
                <g id="Group-88">
                    <mask id="mask-56" fill="white">
                        <use xlink:href="#path-55"></use>
                    </mask>
                    <g id="Clip-87"></g>
                    <path d="M5.9396,2.6227 L1.8366,0.2497 C1.9506,0.2117 2.0646,0.1887 2.1726,0.1677 L6.2706,2.5457 C6.1626,2.5647 6.0516,2.5937 5.9396,2.6227" id="Fill-86" fill="#80A3B2" mask="url(#mask-56)"></path>
                </g>
                <g id="Group-91">
                    <mask id="mask-58" fill="white">
                        <use xlink:href="#path-57"></use>
                    </mask>
                    <g id="Clip-90"></g>
                    <path d="M6.2707,2.5455 L2.1727,0.1675 C2.2737,0.1655 2.3677,0.1495 2.4587,0.1465 L6.5607,2.5215 C6.4667,2.5265 6.3717,2.5305 6.2707,2.5455" id="Fill-89" fill="#7D9EAD" mask="url(#mask-58)"></path>
                </g>
                <g id="Group-94">
                    <mask id="mask-60" fill="white">
                        <use xlink:href="#path-59"></use>
                    </mask>
                    <g id="Clip-93"></g>
                    <path d="M6.5607,2.5211 L2.4587,0.1461 C2.5467,0.1461 2.6287,0.1461 2.7137,0.1491 L6.8127,2.5271 C6.7287,2.5211 6.6427,2.5211 6.5607,2.5211" id="Fill-92" fill="#7A9AA8" mask="url(#mask-60)"></path>
                </g>
                <g id="Group-97">
                    <mask id="mask-62" fill="white">
                        <use xlink:href="#path-61"></use>
                    </mask>
                    <g id="Clip-96"></g>
                    <path d="M6.8127,2.527 L2.7137,0.149 C2.7927,0.154 2.8667,0.166 2.9437,0.168 L7.0457,2.546 C6.9667,2.537 6.8897,2.527 6.8127,2.527" id="Fill-95" fill="#7696A4" mask="url(#mask-62)"></path>
                </g>
                <g id="Group-100">
                    <mask id="mask-64" fill="white">
                        <use xlink:href="#path-63"></use>
                    </mask>
                    <g id="Clip-99"></g>
                    <path d="M7.0461,2.5455 L2.9431,0.1675 C3.0211,0.1875 3.0931,0.2055 3.1581,0.2305 L7.2601,2.6005 C7.1881,2.5785 7.1161,2.5655 7.0461,2.5455" id="Fill-98" fill="#73929F" mask="url(#mask-64)"></path>
                </g>
                <g id="Group-103">
                    <mask id="mask-66" fill="white">
                        <use xlink:href="#path-65"></use>
                    </mask>
                    <g id="Clip-102"></g>
                    <path d="M7.2599,2.6002 L3.1579,0.2302 C3.2299,0.2462 3.2939,0.2612 3.3619,0.2922 L7.4609,2.6722 C7.3919,2.6412 7.3299,2.6182 7.2599,2.6002" id="Fill-101" fill="#708D9A" mask="url(#mask-66)"></path>
                </g>
                <g id="Group-106">
                    <mask id="mask-68" fill="white">
                        <use xlink:href="#path-67"></use>
                    </mask>
                    <g id="Clip-105"></g>
                    <path d="M7.4611,2.6725 L3.3611,0.2925 C3.4301,0.3215 3.4861,0.3505 3.5521,0.3885 L7.6531,2.7645 C7.5941,2.7305 7.5241,2.6985 7.4611,2.6725" id="Fill-104" fill="#6C8996" mask="url(#mask-68)"></path>
                </g>
                <g id="Group-109">
                    <mask id="mask-70" fill="white">
                        <use xlink:href="#path-69"></use>
                    </mask>
                    <g id="Clip-108"></g>
                    <path d="M7.6535,2.7643 L3.5515,0.3883 C3.5635,0.3893 3.5705,0.3933 3.5755,0.3963 L7.6735,2.7793 C7.6645,2.7743 7.6595,2.7743 7.6535,2.7643" id="Fill-107" fill="#698591" mask="url(#mask-70)"></path>
                </g>
            </g>
            <g id="Group-156" transform="translate(68.000000, 126.584000)">
                <g id="Group-113">
                    <mask id="mask-72" fill="white">
                        <use xlink:href="#path-71"></use>
                    </mask>
                    <g id="Clip-112"></g>
                    <path d="M5.255,12.1246 L1.154,9.7556 C0.47,9.3536 0.038,8.5076 0.038,7.2996 C0.035,7.0516 0.05,6.8046 0.081,6.5446 L4.189,8.9226 C4.152,9.1776 4.131,9.4246 4.131,9.6746 C4.14,10.8756 4.568,11.7316 5.255,12.1246" id="Fill-111" fill="#586F7A" mask="url(#mask-72)"></path>
                </g>
                <g id="Group-116">
                    <mask id="mask-74" fill="white">
                        <use xlink:href="#path-73"></use>
                    </mask>
                    <g id="Clip-115"></g>
                    <path d="M4.1886,8.9225 L0.0816,6.5445 C0.1076,6.3665 0.1356,6.1915 0.1746,6.0115 L4.2746,8.3875 C4.2396,8.5655 4.2076,8.7465 4.1886,8.9225" id="Fill-114" fill="#5B747E" mask="url(#mask-74)"></path>
                </g>
                <g id="Group-119">
                    <mask id="mask-76" fill="white">
                        <use xlink:href="#path-75"></use>
                    </mask>
                    <g id="Clip-118"></g>
                    <path d="M4.2746,8.3873 L0.1746,6.0113 C0.2066,5.8663 0.2456,5.7213 0.2856,5.5723 L4.3806,7.9453 C4.3436,8.0913 4.3056,8.2403 4.2746,8.3873" id="Fill-117" fill="#5F7883" mask="url(#mask-76)"></path>
                </g>
                <g id="Group-122">
                    <mask id="mask-78" fill="white">
                        <use xlink:href="#path-77"></use>
                    </mask>
                    <g id="Clip-121"></g>
                    <path d="M4.381,7.9449 L0.285,5.5719 C0.319,5.4419 0.36,5.3099 0.405,5.1819 L4.501,7.5559 C4.459,7.6859 4.419,7.8169 4.381,7.9449" id="Fill-120" fill="#627C88" mask="url(#mask-78)"></path>
                </g>
                <g id="Group-125">
                    <mask id="mask-80" fill="white">
                        <use xlink:href="#path-79"></use>
                    </mask>
                    <g id="Clip-124"></g>
                    <path d="M4.5011,7.5563 L0.4051,5.1823 C0.4411,5.0653 0.4861,4.9383 0.5271,4.8183 L4.6281,7.1913 C4.5841,7.3133 4.5441,7.4383 4.5011,7.5563" id="Fill-123" fill="#65808C" mask="url(#mask-80)"></path>
                </g>
                <g id="Group-128">
                    <mask id="mask-82" fill="white">
                        <use xlink:href="#path-81"></use>
                    </mask>
                    <g id="Clip-127"></g>
                    <path d="M4.6281,7.191 L0.5271,4.818 C0.5731,4.705 0.6211,4.589 0.6741,4.476 L4.7721,6.849 C4.7221,6.964 4.6791,7.08 4.6281,7.191" id="Fill-126" fill="#698591" mask="url(#mask-82)"></path>
                </g>
                <g id="Group-131">
                    <mask id="mask-84" fill="white">
                        <use xlink:href="#path-83"></use>
                    </mask>
                    <g id="Clip-130"></g>
                    <path d="M4.7716,6.8492 L0.6736,4.4762 C0.7206,4.3622 0.7656,4.2512 0.8256,4.1432 L4.9206,6.5182 C4.8726,6.6262 4.8196,6.7322 4.7716,6.8492" id="Fill-129" fill="#6C8996" mask="url(#mask-84)"></path>
                </g>
                <g id="Group-134">
                    <mask id="mask-86" fill="white">
                        <use xlink:href="#path-85"></use>
                    </mask>
                    <g id="Clip-133"></g>
                    <path d="M4.9211,6.5182 L0.8251,4.1432 C0.8741,4.0372 0.9321,3.9262 0.9861,3.8182 L5.0861,6.1912 C5.0281,6.3022 4.9761,6.4062 4.9211,6.5182" id="Fill-132" fill="#708D9A" mask="url(#mask-86)"></path>
                </g>
                <g id="Group-137">
                    <mask id="mask-88" fill="white">
                        <use xlink:href="#path-87"></use>
                    </mask>
                    <g id="Clip-136"></g>
                    <path d="M5.0861,6.191 L0.9861,3.818 C1.0441,3.708 1.1001,3.605 1.1661,3.499 L5.2651,5.873 C5.2061,5.971 5.1421,6.082 5.0861,6.191" id="Fill-135" fill="#73929F" mask="url(#mask-88)"></path>
                </g>
                <g id="Group-140">
                    <mask id="mask-90" fill="white">
                        <use xlink:href="#path-89"></use>
                    </mask>
                    <g id="Clip-139"></g>
                    <path d="M5.2648,5.8727 L1.1658,3.4987 C1.2288,3.3867 1.2958,3.2777 1.3648,3.1727 L5.4658,5.5457 C5.3938,5.6527 5.3308,5.7647 5.2648,5.8727" id="Fill-138" fill="#7696A4" mask="url(#mask-90)"></path>
                </g>
                <g id="Group-143">
                    <mask id="mask-92" fill="white">
                        <use xlink:href="#path-91"></use>
                    </mask>
                    <g id="Clip-142"></g>
                    <path d="M5.466,5.5455 L1.364,3.1725 C1.439,3.0605 1.513,2.9435 1.585,2.8415 L5.688,5.2145 C5.611,5.3235 5.533,5.4325 5.466,5.5455" id="Fill-141" fill="#7A9AA8" mask="url(#mask-92)"></path>
                </g>
                <g id="Group-146">
                    <mask id="mask-94" fill="white">
                        <use xlink:href="#path-93"></use>
                    </mask>
                    <g id="Clip-145"></g>
                    <path d="M5.6877,5.2145 L1.5847,2.8415 C1.6727,2.7195 1.7547,2.6085 1.8397,2.4925 L5.9367,4.8705 C5.8507,4.9835 5.7667,5.0945 5.6877,5.2145" id="Fill-144" fill="#7D9EAD" mask="url(#mask-94)"></path>
                </g>
                <g id="Group-149">
                    <mask id="mask-96" fill="white">
                        <use xlink:href="#path-95"></use>
                    </mask>
                    <g id="Clip-148"></g>
                    <path d="M5.9367,4.8707 L1.8397,2.4927 C1.9397,2.3607 2.0407,2.2357 2.1517,2.1157 L6.2477,4.4937 C6.1437,4.6107 6.0357,4.7377 5.9367,4.8707" id="Fill-147" fill="#80A3B2" mask="url(#mask-96)"></path>
                </g>
                <g id="Group-152">
                    <mask id="mask-98" fill="white">
                        <use xlink:href="#path-97"></use>
                    </mask>
                    <g id="Clip-151"></g>
                    <path d="M6.2472,4.4938 L2.1512,2.1158 C2.2862,1.9598 2.4252,1.8148 2.5722,1.6698 L6.6662,4.0428 C6.5222,4.1838 6.3882,4.3328 6.2472,4.4938" id="Fill-150" fill="#84A7B7" mask="url(#mask-98)"></path>
                </g>
                <g id="Group-155">
                    <mask id="mask-100" fill="white">
                        <use xlink:href="#path-99"></use>
                    </mask>
                    <g id="Clip-154"></g>
                    <path d="M6.6662,4.0426 L2.5722,1.6696 C2.9712,1.2716 3.4002,0.9316 3.8532,0.6746 L7.9522,3.0456 C7.5002,3.3076 7.0702,3.6416 6.6662,4.0426" id="Fill-153" fill="#87ABBB" mask="url(#mask-100)"></path>
                </g>
            </g>
            <g id="Group-163" transform="translate(40.000000, 8.584000)">
                <path d="M35.9523,121.0455 C38.0653,119.8175 39.7853,120.8005 39.7953,123.2405 C39.8053,125.6705 38.1013,128.6305 35.9833,129.8595 C33.8663,131.0815 32.1443,130.1025 32.1313,127.6745 C32.1263,125.2335 33.8313,122.2725 35.9523,121.0455" id="Fill-157" fill="#A895DF"></path>
                <polygon id="Fill-159" fill="#BFD4DB" points="4.4982 134.2311 0.3962 131.8601 63.4282 95.3561 67.5252 97.7341"></polygon>
                <polygon id="Fill-161" fill="#778488" points="67.5255 97.734 63.4275 95.356 63.0345 0.955 67.1275 3.329"></polygon>
            </g>
            <g id="Group-166" transform="translate(44.000000, 11.584000)">
                <mask id="mask-102" fill="white">
                    <use xlink:href="#path-101"></use>
                </mask>
                <g id="Clip-165"></g>
                <polygon id="Fill-164" fill="url(#linearGradient-103)" mask="url(#mask-102)" points="0.103 36.83 0.498 131.231 63.526 94.734 63.134 0.328"></polygon>
            </g>
            <g id="Group-179" transform="translate(35.000000, 0.584000)">
                <polygon id="Fill-167" fill="#91B8C9" points="9.1027 47.8297 5.0067 45.4607 68.0347 8.9547 72.1337 11.3287"></polygon>
                <polygon id="Fill-169" fill="#5A727D" points="9.4982 142.2311 5.3962 139.8601 5.0072 45.4601 9.1022 47.8301"></polygon>
                <path d="M4.6183,160.6598 L4.1463,47.5988 L0.0433,45.2208 L0.5173,158.2888 C0.5203,159.3288 0.8883,160.0618 1.4863,160.4008 L5.5813,162.7858 C4.9883,162.4388 4.6203,161.7048 4.6183,160.6598" id="Fill-171" fill="#8FEDFF"></path>
                <g id="Group-175" transform="translate(4.000000, 2.000000)">
                    <mask id="mask-105" fill="white">
                        <use xlink:href="#path-104"></use>
                    </mask>
                    <g id="Clip-174"></g>
                    <path d="M36.9836,135.86 C39.1016,134.631 40.8046,131.671 40.7956,129.241 C40.7856,126.8 39.0656,125.818 36.9526,127.046 C34.8316,128.272 33.1266,131.234 33.1306,133.674 C33.1446,136.102 34.8666,137.082 36.9836,135.86 L36.9836,135.86 Z M68.5256,103.734 L68.1276,9.329 L5.1026,45.83 L5.4986,140.231 L68.5256,103.734 Z M70.1636,1.246 C71.9796,0.191 73.4676,1.034 73.4726,3.135 L73.9466,116.197 C73.9516,118.289 72.4856,120.846 70.6656,121.9 L3.9296,160.544 C2.1026,161.599 0.6256,160.763 0.6186,158.66 L0.1466,45.599 C0.1396,43.5 1.6046,40.949 3.4306,39.896 L70.1636,1.246 Z" id="Fill-173" fill="#C5F9FF" mask="url(#mask-105)"></path>
                </g>
                <g id="Group-178">
                    <mask id="mask-107" fill="white">
                        <use xlink:href="#path-106"></use>
                    </mask>
                    <g id="Clip-177"></g>
                    <path d="M72.4103,0.6441 C72.4013,0.6371 72.3963,0.6341 72.3913,0.6261 C72.3393,0.5961 72.2823,0.5701 72.2273,0.5501 C72.1723,0.5221 72.1123,0.5021 72.0503,0.4831 C72.0163,0.4761 71.9713,0.4681 71.9343,0.4581 C71.9253,0.4551 71.9183,0.4551 71.9063,0.4551 C71.8913,0.4551 71.8803,0.4491 71.8653,0.4491 C71.8013,0.4321 71.7353,0.4281 71.6643,0.4221 C71.5943,0.4151 71.5213,0.4151 71.4473,0.4151 C71.4253,0.4221 71.4013,0.4281 71.3783,0.4281 C71.3603,0.4281 71.3423,0.4281 71.3273,0.4321 C71.2883,0.4351 71.2483,0.4351 71.2023,0.4421 C71.1063,0.4581 71.0123,0.4761 70.9183,0.5061 C70.8733,0.5141 70.8303,0.5381 70.7893,0.5531 C70.7483,0.5621 70.7153,0.5811 70.6773,0.5901 C70.6263,0.6081 70.5783,0.6181 70.5193,0.6441 C70.3783,0.7021 70.2263,0.7781 70.0653,0.8681 L3.3303,39.5161 C3.1193,39.6461 2.9123,39.7881 2.7113,39.9471 C2.6453,40.0011 2.5793,40.0661 2.5123,40.1241 C2.4153,40.2011 2.3193,40.2881 2.2223,40.3761 C2.1813,40.4151 2.1443,40.4621 2.1033,40.5011 C2.0643,40.5401 2.0283,40.5831 1.9933,40.6281 C1.9493,40.6741 1.9063,40.7151 1.8683,40.7651 C1.7713,40.8711 1.6793,40.9741 1.5973,41.0871 C1.5723,41.1251 1.5413,41.1661 1.5143,41.2031 C1.4973,41.2261 1.4803,41.2481 1.4603,41.2721 C1.4333,41.3151 1.4063,41.3471 1.3803,41.3831 C1.3143,41.4771 1.2503,41.5751 1.1883,41.6701 C1.1333,41.7641 1.0753,41.8541 1.0243,41.9501 C1.0133,41.9501 1.0103,41.9661 1.0013,41.9731 C1.0013,41.9781 0.9983,41.9881 0.9913,41.9901 C0.9483,42.0681 0.9063,42.1491 0.8593,42.2281 C0.8163,42.3241 0.7703,42.4141 0.7223,42.5071 C0.6813,42.5951 0.6383,42.6791 0.6023,42.7681 C0.5993,42.7741 0.5993,42.7741 0.5993,42.7811 C0.5993,42.7881 0.5933,42.7921 0.5903,42.7971 C0.5493,42.8961 0.5133,42.9881 0.4683,43.0931 C0.4303,43.1871 0.3933,43.2961 0.3563,43.4031 C0.3383,43.4531 0.3283,43.5081 0.3093,43.5561 C0.3063,43.5781 0.2953,43.6041 0.2903,43.6281 C0.2803,43.6671 0.2683,43.7051 0.2593,43.7341 C0.2243,43.8691 0.1953,43.9921 0.1673,44.1171 C0.1523,44.1931 0.1403,44.2671 0.1263,44.3371 C0.1193,44.3821 0.1123,44.4281 0.0993,44.4661 C0.0993,44.5091 0.0913,44.5361 0.0883,44.5771 C0.0593,44.7951 0.0403,45.0091 0.0433,45.2201 L4.1463,47.5991 C4.1443,47.3561 4.1643,47.0961 4.2023,46.8421 C4.2093,46.8011 4.2193,46.7681 4.2253,46.7271 C4.2643,46.4771 4.3173,46.2391 4.3913,45.9971 C4.3973,45.9771 4.4083,45.9601 4.4133,45.9371 C4.4873,45.6741 4.5843,45.4141 4.6963,45.1561 C4.6963,45.1531 4.6963,45.1511 4.7063,45.1441 C4.8173,44.8791 4.9523,44.6201 5.0933,44.3731 C5.0973,44.3661 5.0973,44.3561 5.1053,44.3471 C5.2473,44.1071 5.3963,43.8691 5.5663,43.6371 C5.5813,43.6251 5.5913,43.6041 5.6093,43.5831 C5.7593,43.3731 5.9293,43.1811 6.0933,42.9951 C6.1283,42.9601 6.1643,42.9271 6.1983,42.8891 C6.3353,42.7421 6.4813,42.6101 6.6313,42.4881 C6.6853,42.4301 6.7463,42.3701 6.8103,42.3291 C7.0103,42.1651 7.2143,42.0151 7.4313,41.8961 L74.1633,3.2461 C74.3733,3.1231 74.5743,3.0341 74.7753,2.9611 C74.8123,2.9501 74.8503,2.9371 74.8863,2.9261 C75.0763,2.8641 75.2543,2.8231 75.4303,2.8081 C75.4393,2.8011 75.4603,2.8011 75.4773,2.8011 C75.6623,2.7861 75.8383,2.7951 76.0043,2.8271 C76.0153,2.8271 76.0203,2.8341 76.0273,2.8341 C76.2023,2.8701 76.3583,2.9331 76.5063,3.0121 L72.4103,0.6441 Z" id="Fill-176" fill="#8FEDFF" mask="url(#mask-107)"></path>
                </g>
            </g>
            <g id="Group-182" transform="translate(14.000000, 38.584000)">
                <mask id="mask-109" fill="white">
                    <use xlink:href="#path-108"></use>
                </mask>
                <g id="Clip-181"></g>
                <path d="M107.127,0.395 C106.049,1.02 105.023,2.389 104.086,4.402 L104.086,4.402 C101.081,10.857 101.262,20.616 97.038,23.058 L97.038,23.058 C96.639,23.286 96.204,23.453 95.723,23.544 L95.723,23.544 C93.205,24.018 92.329,22.189 91.715,20.361 L91.715,20.361 C91.036,18.338 90.68,16.315 88.782,17.41 L88.782,17.41 C88.567,17.534 88.338,17.693 88.086,17.896 L88.086,17.896 C85.035,20.363 81.8,26.392 79.206,27.888 L79.206,27.888 C77.292,28.992 75.731,27.624 74.854,20.51 L74.854,20.51 C73.985,13.425 71.967,11.619 69.93,12.795 L69.93,12.795 C67.932,13.949 65.915,17.969 64.935,22.71 L64.935,22.71 C63.107,31.546 62.384,40.798 59.296,42.58 L59.296,42.58 C59.043,42.727 58.772,42.82 58.489,42.863 L58.489,42.863 C56.618,43.138 56.066,39.066 55.481,34.994 L55.481,34.994 C54.882,30.829 54.251,26.666 52.141,27.149 L52.141,27.149 C51.852,27.217 51.563,27.334 51.281,27.499 L51.281,27.499 C47.6,29.62 44.616,39.429 44.198,46.225 L44.198,46.225 C43.874,51.44 43.725,54.624 42.303,55.446 L42.303,55.446 C41.724,55.778 40.941,55.724 39.849,55.258 L39.849,55.258 C36.061,53.643 36.74,42.654 31.886,45.182 L31.886,45.182 C27.321,47.818 28.477,61.011 24.979,63.843 L24.979,63.843 C23.802,64.795 22.689,65.527 21.618,66.148 L21.618,66.148 C19.47,67.386 17.476,68.173 15.377,69.385 L15.377,69.385 C12.232,71.202 1.244,81.063 0.666,81.579 L0.666,81.579 C0.687,81.568 1.107,81.277 1.807,80.868 L1.807,80.868 C4.569,79.276 11.398,76.149 11.795,83.946 L11.795,83.946 C12.019,88.32 13.751,91.544 15.848,90.332 L15.848,90.332 C16.786,89.792 17.795,88.365 18.775,85.764 L18.775,85.764 C21.283,79.101 21.09,73.287 22.779,72.311 L22.779,72.311 C23.117,72.115 23.533,72.115 24.055,72.344 L24.055,72.344 C25.795,73.092 27.03,73.003 27.902,72.5 L27.902,72.5 C28.996,71.869 29.526,70.588 29.785,69.461 L29.785,69.461 C30.054,68.333 30.054,67.361 30.073,67.35 L30.073,67.35 C30.09,67.34 30.108,67.654 30.191,68.437 L30.191,68.437 C30.573,72.074 32.136,77.559 33.933,76.522 L33.933,76.522 C34.416,76.243 34.915,75.496 35.41,74.118 L35.41,74.118 C36.949,69.844 39.469,64.816 41.273,63.776 L41.273,63.776 C42.217,63.229 42.966,63.781 43.269,66.108 L43.269,66.108 C43.968,71.462 46.264,77.122 49.907,75.013 L49.907,75.013 C50.872,74.459 51.929,73.363 53.077,71.576 L53.077,71.576 C57.794,64.229 54.199,55.242 57.687,53.232 L57.687,53.232 C58.023,53.037 58.426,52.908 58.914,52.854 L58.914,52.854 C59.689,52.763 60.452,52.473 61.182,52.05 L61.182,52.05 C62.915,51.051 64.523,49.297 65.988,47.625 L65.988,47.625 C67.456,45.949 68.782,44.354 69.947,43.682 L69.947,43.682 C71.725,42.654 73.135,43.762 74.113,49.965 L74.113,49.965 C74.756,54.034 76.927,55.578 78.872,54.457 L78.872,54.457 C80.707,53.395 82.348,49.944 82.292,43.97 L82.292,43.97 C82.244,39.072 84.087,27.008 85.657,26.099 L85.657,26.099 C86.076,25.858 86.477,26.419 86.82,28.142 L86.82,28.142 C88.262,35.436 91.258,34.328 93.694,33.221 L93.694,33.221 C95.698,32.309 97.324,31.398 97.395,35.164 L97.395,35.164 C97.511,41.414 100.172,43.089 102.468,41.764 L102.468,41.764 C103.859,40.959 105.12,39.059 105.602,36.407 L105.602,36.407 C106.627,30.77 108.486,19.775 110.771,18.454 L110.771,18.454 C111.342,18.126 111.941,18.401 112.563,19.521 L112.563,19.521 C115.547,24.915 117.933,26.005 119.817,24.916 L119.817,24.916 C124.032,22.484 125.687,9.116 125.77,8.841 L125.77,8.841 C125.661,8.961 123.56,11.258 121.19,12.626 L121.19,12.626 C119.073,13.849 116.835,14.237 115.909,11.345 L115.909,11.345 C113.385,3.478 110.823,0.012 108.469,0.012 L108.469,0.012 C108.014,0.012 107.566,0.142 107.127,0.395" id="Fill-180" fill="url(#linearGradient-110)" mask="url(#mask-109)"></path>
            </g>
            <g id="Group-185" transform="translate(15.000000, 40.584000)">
                <mask id="mask-112" fill="white">
                    <use xlink:href="#path-111"></use>
                </mask>
                <g id="Clip-184"></g>
                <path d="M128.697,1.383 C127.433,2.115 126.115,3.251 124.832,4.983 L124.832,4.983 C123.37,6.948 122.212,8.082 121.271,8.626 L121.271,8.626 C118.99,9.942 117.962,7.814 116.908,5.687 L116.908,5.687 C115.842,3.536 114.751,1.385 112.317,2.791 L112.317,2.791 C108.062,5.245 105.281,13.838 100.675,17.389 L100.675,17.389 C100.5,17.52 100.336,17.632 100.176,17.725 L100.176,17.725 C97.85,19.066 96.475,16.556 95.012,14.046 L95.012,14.046 C93.505,11.458 91.903,8.869 89.072,10.503 L89.072,10.503 C84.074,13.387 85.419,21.169 78.627,25.091 L78.627,25.091 C77.572,25.696 76.328,26.21 74.833,26.601 L74.833,26.601 C70.796,27.652 70.413,21.404 70.206,15.155 L70.206,15.155 C69.983,8.42 69.965,1.686 65.804,4.087 L65.804,4.087 C58.057,8.561 59.46,32.782 55.487,35.056 L55.487,35.056 C53.697,35.726 53.076,34.203 52.343,32.68 L52.343,32.68 C51.46,30.847 50.415,29.014 46.967,31.008 L46.967,31.008 C40.594,34.961 39.689,49.068 35.448,54.503 L35.448,54.503 C34.33,55.941 33.423,56.797 32.592,57.279 L32.592,57.279 C30.266,58.617 28.522,57.027 24.344,56.836 L24.344,56.836 C23.068,56.778 21.918,57.123 20.878,57.719 L20.878,57.719 C17.295,59.791 14.982,64.933 13.024,67.448 L13.024,67.448 C11.025,70.018 0.471,78.463 1.009,78.151 L1.009,78.151 C1.1,78.098 1.537,77.776 2.415,77.104 L2.415,77.104 C2.915,76.727 3.4,76.402 3.879,76.131 L3.879,76.131 C5.949,74.936 7.837,74.615 9.722,74.296 L9.722,74.296 C11.605,73.979 13.474,73.667 15.51,72.49 L15.51,72.49 C16.529,71.904 17.584,71.102 18.707,69.977 L18.707,69.977 C19.864,68.818 20.917,67.986 21.885,67.428 L21.885,67.428 C26.03,65.035 28.471,67.755 29.827,71.603 L29.827,71.603 C31.211,75.555 32.368,77.833 35.497,76.03 L35.497,76.03 C36.124,75.667 36.83,75.139 37.635,74.431 L37.635,74.431 C43.668,69.086 43.006,58.011 50.682,53.578 L50.682,53.578 C50.802,53.508 50.927,53.441 51.05,53.373 L51.05,53.373 C56.949,50.237 55.99,61.917 61.716,62.514 L61.716,62.514 C62.501,62.597 63.16,62.461 63.719,62.137 L63.719,62.137 C67.043,60.219 66.852,51.846 68.049,45.344 L68.049,45.344 C68.705,41.76 69.859,39.712 71.255,38.904 L71.255,38.904 C72.821,38 74.7,38.653 76.547,40.438 L76.547,40.438 C79.916,43.705 82.364,46.714 87.197,43.928 L87.197,43.928 C94.512,39.704 93.332,30.732 97.104,26.241 L97.104,26.241 C98.495,24.583 99.745,23.508 100.891,22.847 L100.891,22.847 C103.613,21.274 105.73,22.048 107.651,22.932 L107.651,22.932 C109.571,23.815 111.298,24.809 113.244,23.686 L113.244,23.686 C114.428,23.001 115.702,21.522 117.146,18.745 L117.146,18.745 C119.171,14.849 122.382,9.134 126.395,6.818 L126.395,6.818 C131.648,3.785 136.016,1.068 136.245,0.923 L136.245,0.923 C136.14,0.867 134.871,0.182 132.979,0.182 L132.979,0.182 C131.762,0.182 130.286,0.466 128.697,1.383" id="Fill-183" fill="url(#linearGradient-113)" mask="url(#mask-112)"></path>
            </g>
            <path d="M74.0363,85.1637 L79.4083,82.4767 L79.8083,74.7827 L74.8573,77.3897 L74.0363,85.1637 Z M67.7683,75.3137 L68.6023,65.9227 L76.4213,61.7537 L75.8993,70.0927 L80.3293,67.2267 L80.8503,58.6257 L88.4083,54.1957 L87.8873,63.3167 L92.8383,60.9887 L92.3173,67.4857 L86.8453,70.3527 L86.5843,77.1287 L91.9433,74.4197 L91.7963,81.2987 L86.0623,84.6857 L85.2813,93.0247 L77.4633,97.7157 L78.5133,88.7447 L73.5543,91.7227 L73.0333,100.5827 L65.2153,104.4907 L66.2573,96.6737 L61.3063,99.2787 L62.0883,91.2007 L67.0393,88.8547 L67.7683,82.4767 L62.0883,85.2067 L62.8693,77.3897 L67.7683,75.3137 Z" id="Fill-186" fill="#FFFFFF"></path>
        </g>
    </g>
</svg>