<?xml version="1.0" encoding="UTF-8"?>
<svg width="185px" height="122px" viewBox="0 0 185 122" version="1.1" xmlns="http://www.w3.org/2000/svg" xmlns:xlink="http://www.w3.org/1999/xlink">
    <!-- Generator: Sketch 53.2 (72643) - https://sketchapp.com -->
    <title>Group 191</title>
    <desc>Created with Sketch.</desc>
    <defs>
        <polygon id="path-1" points="0 0.025146933 184.321454 0.025146933 184.321454 106.999853 0 106.999853"></polygon>
        <path d="M1.591,0.914 C1.591,2.507 1.591,4.107 1.585,5.706 L1.585,5.706 C1.59,4.107 1.584,2.507 1.591,0.914 L1.591,0.914 C0.563,1.493 0.059,2.269 0.055,3.037 L0.055,3.037 L0.041,8.156 C0.041,7.38 0.56,6.609 1.584,6.026 L1.584,6.026 C3.615,4.865 6.898,4.881 8.908,6.057 L8.908,6.057 C9.905,6.639 10.401,7.404 10.401,8.167 L10.401,8.167 L10.41,3.043 C10.41,2.286 9.908,1.524 8.915,0.941 L8.915,0.941 C8.912,2.644 8.908,4.349 8.908,6.057 L8.908,6.057 C8.908,4.349 8.912,2.644 8.915,0.941 L8.915,0.941 C7.904,0.345 6.568,0.047 5.231,0.047 L5.231,0.047 C3.916,0.047 2.6,0.336 1.591,0.914" id="path-3"></path>
        <path d="M1.591,0.914 C1.591,2.507 1.591,4.107 1.585,5.706 L1.585,5.706 C1.59,4.107 1.584,2.507 1.591,0.914 L1.591,0.914 C0.563,1.493 0.059,2.269 0.055,3.037 L0.055,3.037 L0.041,8.156 C0.041,7.38 0.56,6.609 1.584,6.026 L1.584,6.026 C3.615,4.865 6.898,4.881 8.908,6.057 L8.908,6.057 C9.905,6.639 10.401,7.404 10.401,8.167 L10.401,8.167 L10.41,3.043 C10.41,2.286 9.908,1.524 8.915,0.941 L8.915,0.941 C8.912,2.644 8.908,4.349 8.908,6.057 L8.908,6.057 C8.908,4.349 8.912,2.644 8.915,0.941 L8.915,0.941 C7.904,0.345 6.568,0.047 5.231,0.047 L5.231,0.047 C3.916,0.047 2.6,0.336 1.591,0.914" id="path-5"></path>
        <path d="M1.591,0.914 C1.591,2.507 1.591,4.107 1.585,5.706 L1.585,5.706 C1.59,4.107 1.584,2.507 1.591,0.914 L1.591,0.914 C0.563,1.493 0.059,2.269 0.055,3.037 L0.055,3.037 L0.041,8.156 C0.041,7.38 0.56,6.609 1.584,6.026 L1.584,6.026 C3.615,4.865 6.898,4.881 8.908,6.057 L8.908,6.057 C9.905,6.639 10.401,7.404 10.401,8.167 L10.401,8.167 L10.41,3.043 C10.41,2.286 9.908,1.524 8.915,0.941 L8.915,0.941 C8.912,2.644 8.908,4.349 8.908,6.057 L8.908,6.057 C8.908,4.349 8.912,2.644 8.915,0.941 L8.915,0.941 C7.904,0.345 6.568,0.047 5.231,0.047 L5.231,0.047 C3.916,0.047 2.6,0.336 1.591,0.914" id="path-7"></path>
        <path d="M1.591,0.914 C1.591,2.507 1.591,4.107 1.585,5.706 L1.585,5.706 C1.59,4.107 1.584,2.507 1.591,0.914 L1.591,0.914 C0.563,1.493 0.059,2.269 0.055,3.037 L0.055,3.037 L0.041,8.156 C0.041,7.38 0.56,6.609 1.584,6.026 L1.584,6.026 C3.615,4.865 6.898,4.881 8.908,6.057 L8.908,6.057 C9.905,6.639 10.401,7.404 10.401,8.167 L10.401,8.167 L10.41,3.043 C10.41,2.286 9.908,1.524 8.915,0.941 L8.915,0.941 C8.912,2.644 8.908,4.349 8.908,6.057 L8.908,6.057 C8.908,4.349 8.912,2.644 8.915,0.941 L8.915,0.941 C7.904,0.345 6.568,0.047 5.231,0.047 L5.231,0.047 C3.916,0.047 2.6,0.336 1.591,0.914" id="path-9"></path>
        <path d="M1.591,0.914 C1.591,2.507 1.591,4.107 1.585,5.706 L1.585,5.706 C1.59,4.107 1.584,2.507 1.591,0.914 L1.591,0.914 C0.563,1.493 0.059,2.269 0.055,3.037 L0.055,3.037 L0.041,8.156 C0.041,7.38 0.56,6.609 1.584,6.026 L1.584,6.026 C3.615,4.865 6.898,4.881 8.908,6.057 L8.908,6.057 C9.905,6.639 10.401,7.404 10.401,8.167 L10.401,8.167 L10.41,3.043 C10.41,2.286 9.908,1.524 8.915,0.941 L8.915,0.941 C8.912,2.644 8.908,4.349 8.908,6.057 L8.908,6.057 C8.908,4.349 8.912,2.644 8.915,0.941 L8.915,0.941 C7.904,0.345 6.568,0.047 5.231,0.047 L5.231,0.047 C3.916,0.047 2.6,0.336 1.591,0.914" id="path-11"></path>
        <path d="M1.591,0.914 C1.591,2.507 1.591,4.107 1.585,5.706 L1.585,5.706 C1.59,4.107 1.584,2.507 1.591,0.914 L1.591,0.914 C0.563,1.493 0.059,2.269 0.055,3.037 L0.055,3.037 L0.041,8.156 C0.041,7.38 0.56,6.609 1.584,6.026 L1.584,6.026 C3.615,4.865 6.898,4.881 8.908,6.057 L8.908,6.057 C9.905,6.639 10.401,7.404 10.401,8.167 L10.401,8.167 L10.41,3.043 C10.41,2.286 9.908,1.524 8.915,0.941 L8.915,0.941 C8.912,2.644 8.908,4.349 8.908,6.057 L8.908,6.057 C8.908,4.349 8.912,2.644 8.915,0.941 L8.915,0.941 C7.904,0.345 6.568,0.047 5.231,0.047 L5.231,0.047 C3.916,0.047 2.6,0.336 1.591,0.914" id="path-13"></path>
        <path d="M1.591,0.914 C1.591,2.507 1.591,4.107 1.585,5.706 L1.585,5.706 C1.59,4.107 1.584,2.507 1.591,0.914 L1.591,0.914 C0.563,1.493 0.059,2.269 0.055,3.037 L0.055,3.037 L0.041,8.156 C0.041,7.38 0.56,6.609 1.584,6.026 L1.584,6.026 C3.615,4.865 6.898,4.881 8.908,6.057 L8.908,6.057 C9.905,6.639 10.401,7.404 10.401,8.167 L10.401,8.167 L10.41,3.043 C10.41,2.286 9.908,1.524 8.915,0.941 L8.915,0.941 C8.912,2.644 8.908,4.349 8.908,6.057 L8.908,6.057 C8.908,4.349 8.912,2.644 8.915,0.941 L8.915,0.941 C7.904,0.345 6.568,0.047 5.231,0.047 L5.231,0.047 C3.916,0.047 2.6,0.336 1.591,0.914" id="path-15"></path>
        <path d="M1.591,0.914 C1.591,2.507 1.591,4.107 1.585,5.706 L1.585,5.706 C1.59,4.107 1.584,2.507 1.591,0.914 L1.591,0.914 C0.563,1.493 0.059,2.269 0.055,3.037 L0.055,3.037 L0.041,8.156 C0.041,7.38 0.56,6.609 1.584,6.026 L1.584,6.026 C3.615,4.865 6.898,4.881 8.908,6.057 L8.908,6.057 C9.905,6.639 10.401,7.404 10.401,8.167 L10.401,8.167 L10.41,3.043 C10.41,2.286 9.908,1.524 8.915,0.941 L8.915,0.941 C8.912,2.644 8.908,4.349 8.908,6.057 L8.908,6.057 C8.908,4.349 8.912,2.644 8.915,0.941 L8.915,0.941 C7.904,0.345 6.568,0.047 5.231,0.047 L5.231,0.047 C3.916,0.047 2.6,0.336 1.591,0.914" id="path-17"></path>
        <path d="M1.591,0.914 C1.591,2.507 1.591,4.107 1.585,5.706 L1.585,5.706 C1.59,4.107 1.584,2.507 1.591,0.914 L1.591,0.914 C0.563,1.493 0.059,2.269 0.055,3.037 L0.055,3.037 L0.041,8.156 C0.041,7.38 0.56,6.609 1.584,6.026 L1.584,6.026 C3.615,4.865 6.898,4.881 8.908,6.057 L8.908,6.057 C9.905,6.639 10.401,7.404 10.401,8.167 L10.401,8.167 L10.41,3.043 C10.41,2.286 9.908,1.524 8.915,0.941 L8.915,0.941 C8.912,2.644 8.908,4.349 8.908,6.057 L8.908,6.057 C8.908,4.349 8.912,2.644 8.915,0.941 L8.915,0.941 C7.904,0.345 6.568,0.047 5.231,0.047 L5.231,0.047 C3.916,0.047 2.6,0.336 1.591,0.914" id="path-19"></path>
        <path d="M1.591,0.914 C1.591,2.507 1.591,4.107 1.585,5.706 L1.585,5.706 C1.59,4.107 1.584,2.507 1.591,0.914 L1.591,0.914 C0.563,1.493 0.059,2.269 0.055,3.037 L0.055,3.037 L0.041,8.156 C0.041,7.38 0.56,6.609 1.584,6.026 L1.584,6.026 C3.615,4.865 6.898,4.881 8.908,6.057 L8.908,6.057 C9.905,6.639 10.401,7.404 10.401,8.167 L10.401,8.167 L10.41,3.043 C10.41,2.286 9.908,1.524 8.915,0.941 L8.915,0.941 C8.912,2.644 8.908,4.349 8.908,6.057 L8.908,6.057 C8.908,4.349 8.912,2.644 8.915,0.941 L8.915,0.941 C7.904,0.345 6.568,0.047 5.231,0.047 L5.231,0.047 C3.916,0.047 2.6,0.336 1.591,0.914" id="path-21"></path>
        <path d="M1.591,0.914 C1.591,2.507 1.591,4.107 1.585,5.706 L1.585,5.706 C1.59,4.107 1.584,2.507 1.591,0.914 L1.591,0.914 C0.563,1.493 0.059,2.269 0.055,3.037 L0.055,3.037 L0.041,8.156 C0.041,7.38 0.56,6.609 1.584,6.026 L1.584,6.026 C3.615,4.865 6.898,4.881 8.908,6.057 L8.908,6.057 C9.905,6.639 10.401,7.404 10.401,8.167 L10.401,8.167 L10.41,3.043 C10.41,2.286 9.908,1.524 8.915,0.941 L8.915,0.941 C8.912,2.644 8.908,4.349 8.908,6.057 L8.908,6.057 C8.908,4.349 8.912,2.644 8.915,0.941 L8.915,0.941 C7.904,0.345 6.568,0.047 5.231,0.047 L5.231,0.047 C3.916,0.047 2.6,0.336 1.591,0.914" id="path-23"></path>
        <path d="M1.591,0.914 C1.591,2.507 1.591,4.107 1.585,5.706 L1.585,5.706 C1.59,4.107 1.584,2.507 1.591,0.914 L1.591,0.914 C0.563,1.493 0.059,2.269 0.055,3.037 L0.055,3.037 L0.041,8.156 C0.041,7.38 0.56,6.609 1.584,6.026 L1.584,6.026 C3.615,4.865 6.898,4.881 8.908,6.057 L8.908,6.057 C9.905,6.639 10.401,7.404 10.401,8.167 L10.401,8.167 L10.41,3.043 C10.41,2.286 9.908,1.524 8.915,0.941 L8.915,0.941 C8.912,2.644 8.908,4.349 8.908,6.057 L8.908,6.057 C8.908,4.349 8.912,2.644 8.915,0.941 L8.915,0.941 C7.904,0.345 6.568,0.047 5.231,0.047 L5.231,0.047 C3.916,0.047 2.6,0.336 1.591,0.914" id="path-25"></path>
        <path d="M1.591,0.914 C1.591,2.507 1.591,4.107 1.585,5.706 L1.585,5.706 C1.59,4.107 1.584,2.507 1.591,0.914 L1.591,0.914 C0.563,1.493 0.059,2.269 0.055,3.037 L0.055,3.037 L0.041,8.156 C0.041,7.38 0.56,6.609 1.584,6.026 L1.584,6.026 C3.615,4.865 6.898,4.881 8.908,6.057 L8.908,6.057 C9.905,6.639 10.401,7.404 10.401,8.167 L10.401,8.167 L10.41,3.043 C10.41,2.286 9.908,1.524 8.915,0.941 L8.915,0.941 C8.912,2.644 8.908,4.349 8.908,6.057 L8.908,6.057 C8.908,4.349 8.912,2.644 8.915,0.941 L8.915,0.941 C7.904,0.345 6.568,0.047 5.231,0.047 L5.231,0.047 C3.916,0.047 2.6,0.336 1.591,0.914" id="path-27"></path>
        <path d="M1.591,0.914 C1.591,2.507 1.591,4.107 1.585,5.706 L1.585,5.706 C1.59,4.107 1.584,2.507 1.591,0.914 L1.591,0.914 C0.563,1.493 0.059,2.269 0.055,3.037 L0.055,3.037 L0.041,8.156 C0.041,7.38 0.56,6.609 1.584,6.026 L1.584,6.026 C3.615,4.865 6.898,4.881 8.908,6.057 L8.908,6.057 C9.905,6.639 10.401,7.404 10.401,8.167 L10.401,8.167 L10.41,3.043 C10.41,2.286 9.908,1.524 8.915,0.941 L8.915,0.941 C8.912,2.644 8.908,4.349 8.908,6.057 L8.908,6.057 C8.908,4.349 8.912,2.644 8.915,0.941 L8.915,0.941 C7.904,0.345 6.568,0.047 5.231,0.047 L5.231,0.047 C3.916,0.047 2.6,0.336 1.591,0.914" id="path-29"></path>
        <path d="M1.591,0.914 C1.591,2.507 1.591,4.107 1.585,5.706 L1.585,5.706 C1.59,4.107 1.584,2.507 1.591,0.914 L1.591,0.914 C0.563,1.493 0.059,2.269 0.055,3.037 L0.055,3.037 L0.041,8.156 C0.041,7.38 0.56,6.609 1.584,6.026 L1.584,6.026 C3.615,4.865 6.898,4.881 8.908,6.057 L8.908,6.057 C9.905,6.639 10.401,7.404 10.401,8.167 L10.401,8.167 L10.41,3.043 C10.41,2.286 9.908,1.524 8.915,0.941 L8.915,0.941 C8.912,2.644 8.908,4.349 8.908,6.057 L8.908,6.057 C8.908,4.349 8.912,2.644 8.915,0.941 L8.915,0.941 C7.904,0.345 6.568,0.047 5.231,0.047 L5.231,0.047 C3.916,0.047 2.6,0.336 1.591,0.914" id="path-31"></path>
        <path d="M1.591,0.914 C1.591,2.507 1.591,4.107 1.585,5.706 L1.585,5.706 C1.59,4.107 1.584,2.507 1.591,0.914 L1.591,0.914 C0.563,1.493 0.059,2.269 0.055,3.037 L0.055,3.037 L0.041,8.156 C0.041,7.38 0.56,6.609 1.584,6.026 L1.584,6.026 C3.615,4.865 6.898,4.881 8.908,6.057 L8.908,6.057 C9.905,6.639 10.401,7.404 10.401,8.167 L10.401,8.167 L10.41,3.043 C10.41,2.286 9.908,1.524 8.915,0.941 L8.915,0.941 C8.912,2.644 8.908,4.349 8.908,6.057 L8.908,6.057 C8.908,4.349 8.912,2.644 8.915,0.941 L8.915,0.941 C7.904,0.345 6.568,0.047 5.231,0.047 L5.231,0.047 C3.916,0.047 2.6,0.336 1.591,0.914" id="path-33"></path>
        <path d="M1.591,0.914 C1.591,2.507 1.591,4.107 1.585,5.706 L1.585,5.706 C1.59,4.107 1.584,2.507 1.591,0.914 L1.591,0.914 C0.563,1.493 0.059,2.269 0.055,3.037 L0.055,3.037 L0.041,8.156 C0.041,7.38 0.56,6.609 1.584,6.026 L1.584,6.026 C3.615,4.865 6.898,4.881 8.908,6.057 L8.908,6.057 C9.905,6.639 10.401,7.404 10.401,8.167 L10.401,8.167 L10.41,3.043 C10.41,2.286 9.908,1.524 8.915,0.941 L8.915,0.941 C8.912,2.644 8.908,4.349 8.908,6.057 L8.908,6.057 C8.908,4.349 8.912,2.644 8.915,0.941 L8.915,0.941 C7.904,0.345 6.568,0.047 5.231,0.047 L5.231,0.047 C3.916,0.047 2.6,0.336 1.591,0.914" id="path-35"></path>
        <path d="M1.591,0.914 C1.591,2.507 1.591,4.107 1.585,5.706 L1.585,5.706 C1.59,4.107 1.584,2.507 1.591,0.914 L1.591,0.914 C0.563,1.493 0.059,2.269 0.055,3.037 L0.055,3.037 L0.041,8.156 C0.041,7.38 0.56,6.609 1.584,6.026 L1.584,6.026 C3.615,4.865 6.898,4.881 8.908,6.057 L8.908,6.057 C9.905,6.639 10.401,7.404 10.401,8.167 L10.401,8.167 L10.41,3.043 C10.41,2.286 9.908,1.524 8.915,0.941 L8.915,0.941 C8.912,2.644 8.908,4.349 8.908,6.057 L8.908,6.057 C8.908,4.349 8.912,2.644 8.915,0.941 L8.915,0.941 C7.904,0.345 6.568,0.047 5.231,0.047 L5.231,0.047 C3.916,0.047 2.6,0.336 1.591,0.914 L1.591,0.914 Z" id="path-37"></path>
        <path d="M0.041,5.147 C0.044,5.919 0.543,6.684 1.537,7.265 L1.537,7.265 C3.55,8.447 6.823,8.464 8.859,7.301 L8.859,7.301 C9.879,6.709 10.401,5.939 10.401,5.167 L10.401,5.167 C10.401,3.461 10.401,1.756 10.41,0.043 L10.41,0.043 C10.401,0.827 9.893,1.593 8.861,2.184 L8.861,2.184 C6.83,3.347 3.558,3.33 1.544,2.153 L1.544,2.153 C0.553,1.559 0.05,0.796 0.055,0.037 L0.055,0.037 L0.041,5.147 Z" id="path-39"></path>
        <path d="M0.041,5.147 C0.044,5.919 0.543,6.684 1.537,7.265 L1.537,7.265 C3.55,8.447 6.823,8.464 8.859,7.301 L8.859,7.301 C9.879,6.709 10.401,5.939 10.401,5.167 L10.401,5.167 C10.401,3.461 10.401,1.756 10.41,0.043 L10.41,0.043 C10.401,0.827 9.893,1.593 8.861,2.184 L8.861,2.184 C6.83,3.347 3.558,3.33 1.544,2.153 L1.544,2.153 C0.553,1.559 0.05,0.796 0.055,0.037 L0.055,0.037" id="path-41"></path>
        <path d="M0.041,5.147 C0.044,5.919 0.543,6.684 1.537,7.265 L1.537,7.265 C3.55,8.447 6.823,8.464 8.859,7.301 L8.859,7.301 C9.879,6.709 10.401,5.939 10.401,5.167 L10.401,5.167 C10.401,3.461 10.401,1.756 10.41,0.043 L10.41,0.043 C10.401,0.827 9.893,1.593 8.861,2.184 L8.861,2.184 C6.83,3.347 3.558,3.33 1.544,2.153 L1.544,2.153 C0.553,1.559 0.05,0.796 0.055,0.037 L0.055,0.037" id="path-43"></path>
        <path d="M0.041,5.147 C0.044,5.919 0.543,6.684 1.537,7.265 L1.537,7.265 C3.55,8.447 6.823,8.464 8.859,7.301 L8.859,7.301 C9.879,6.709 10.401,5.939 10.401,5.167 L10.401,5.167 C10.401,3.461 10.401,1.756 10.41,0.043 L10.41,0.043 C10.401,0.827 9.893,1.593 8.861,2.184 L8.861,2.184 C6.83,3.347 3.558,3.33 1.544,2.153 L1.544,2.153 C0.553,1.559 0.05,0.796 0.055,0.037 L0.055,0.037" id="path-45"></path>
        <path d="M0.041,5.147 C0.044,5.919 0.543,6.684 1.537,7.265 L1.537,7.265 C3.55,8.447 6.823,8.464 8.859,7.301 L8.859,7.301 C9.879,6.709 10.401,5.939 10.401,5.167 L10.401,5.167 C10.401,3.461 10.401,1.756 10.41,0.043 L10.41,0.043 C10.401,0.827 9.893,1.593 8.861,2.184 L8.861,2.184 C6.83,3.347 3.558,3.33 1.544,2.153 L1.544,2.153 C0.553,1.559 0.05,0.796 0.055,0.037 L0.055,0.037" id="path-47"></path>
        <path d="M0.041,5.147 C0.044,5.919 0.543,6.684 1.537,7.265 L1.537,7.265 C3.55,8.447 6.823,8.464 8.859,7.301 L8.859,7.301 C9.879,6.709 10.401,5.939 10.401,5.167 L10.401,5.167 C10.401,3.461 10.401,1.756 10.41,0.043 L10.41,0.043 C10.401,0.827 9.893,1.593 8.861,2.184 L8.861,2.184 C6.83,3.347 3.558,3.33 1.544,2.153 L1.544,2.153 C0.553,1.559 0.05,0.796 0.055,0.037 L0.055,0.037" id="path-49"></path>
        <path d="M0.041,5.147 C0.044,5.919 0.543,6.684 1.537,7.265 L1.537,7.265 C3.55,8.447 6.823,8.464 8.859,7.301 L8.859,7.301 C9.879,6.709 10.401,5.939 10.401,5.167 L10.401,5.167 C10.401,3.461 10.401,1.756 10.41,0.043 L10.41,0.043 C10.401,0.827 9.893,1.593 8.861,2.184 L8.861,2.184 C6.83,3.347 3.558,3.33 1.544,2.153 L1.544,2.153 C0.553,1.559 0.05,0.796 0.055,0.037 L0.055,0.037" id="path-51"></path>
        <path d="M0.041,5.147 C0.044,5.919 0.543,6.684 1.537,7.265 L1.537,7.265 C3.55,8.447 6.823,8.464 8.859,7.301 L8.859,7.301 C9.879,6.709 10.401,5.939 10.401,5.167 L10.401,5.167 C10.401,3.461 10.401,1.756 10.41,0.043 L10.41,0.043 C10.401,0.827 9.893,1.593 8.861,2.184 L8.861,2.184 C6.83,3.347 3.558,3.33 1.544,2.153 L1.544,2.153 C0.553,1.559 0.05,0.796 0.055,0.037 L0.055,0.037" id="path-53"></path>
        <path d="M0.041,5.147 C0.044,5.919 0.543,6.684 1.537,7.265 L1.537,7.265 C3.55,8.447 6.823,8.464 8.859,7.301 L8.859,7.301 C9.879,6.709 10.401,5.939 10.401,5.167 L10.401,5.167 C10.401,3.461 10.401,1.756 10.41,0.043 L10.41,0.043 C10.401,0.827 9.893,1.593 8.861,2.184 L8.861,2.184 C6.83,3.347 3.558,3.33 1.544,2.153 L1.544,2.153 C0.553,1.559 0.05,0.796 0.055,0.037 L0.055,0.037" id="path-55"></path>
        <path d="M0.041,5.147 C0.044,5.919 0.543,6.684 1.537,7.265 L1.537,7.265 C3.55,8.447 6.823,8.464 8.859,7.301 L8.859,7.301 C9.879,6.709 10.401,5.939 10.401,5.167 L10.401,5.167 C10.401,3.461 10.401,1.756 10.41,0.043 L10.41,0.043 C10.401,0.827 9.893,1.593 8.861,2.184 L8.861,2.184 C6.83,3.347 3.558,3.33 1.544,2.153 L1.544,2.153 C0.553,1.559 0.05,0.796 0.055,0.037 L0.055,0.037" id="path-57"></path>
        <path d="M0.041,5.147 C0.044,5.919 0.543,6.684 1.537,7.265 L1.537,7.265 C3.55,8.447 6.823,8.464 8.859,7.301 L8.859,7.301 C9.879,6.709 10.401,5.939 10.401,5.167 L10.401,5.167 C10.401,3.461 10.401,1.756 10.41,0.043 L10.41,0.043 C10.401,0.827 9.893,1.593 8.861,2.184 L8.861,2.184 C6.83,3.347 3.558,3.33 1.544,2.153 L1.544,2.153 C0.553,1.559 0.05,0.796 0.055,0.037 L0.055,0.037" id="path-59"></path>
        <path d="M0.041,5.147 C0.044,5.919 0.543,6.684 1.537,7.265 L1.537,7.265 C3.55,8.447 6.823,8.464 8.859,7.301 L8.859,7.301 C9.879,6.709 10.401,5.939 10.401,5.167 L10.401,5.167 C10.401,3.461 10.401,1.756 10.41,0.043 L10.41,0.043 C10.401,0.827 9.893,1.593 8.861,2.184 L8.861,2.184 C6.83,3.347 3.558,3.33 1.544,2.153 L1.544,2.153 C0.553,1.559 0.05,0.796 0.055,0.037 L0.055,0.037" id="path-61"></path>
        <path d="M0.041,5.147 C0.044,5.919 0.543,6.684 1.537,7.265 L1.537,7.265 C3.55,8.447 6.823,8.464 8.859,7.301 L8.859,7.301 C9.879,6.709 10.401,5.939 10.401,5.167 L10.401,5.167 C10.401,3.461 10.401,1.756 10.41,0.043 L10.41,0.043 C10.401,0.827 9.893,1.593 8.861,2.184 L8.861,2.184 C6.83,3.347 3.558,3.33 1.544,2.153 L1.544,2.153 C0.553,1.559 0.05,0.796 0.055,0.037 L0.055,0.037" id="path-63"></path>
        <path d="M0.041,5.147 C0.044,5.919 0.543,6.684 1.537,7.265 L1.537,7.265 C3.55,8.447 6.823,8.464 8.859,7.301 L8.859,7.301 C9.879,6.709 10.401,5.939 10.401,5.167 L10.401,5.167 C10.401,3.461 10.401,1.756 10.41,0.043 L10.41,0.043 C10.401,0.827 9.893,1.593 8.861,2.184 L8.861,2.184 C6.83,3.347 3.558,3.33 1.544,2.153 L1.544,2.153 C0.553,1.559 0.05,0.796 0.055,0.037 L0.055,0.037" id="path-65"></path>
        <path d="M0.041,5.147 C0.044,5.919 0.543,6.684 1.537,7.265 L1.537,7.265 C3.55,8.447 6.823,8.464 8.859,7.301 L8.859,7.301 C9.879,6.709 10.401,5.939 10.401,5.167 L10.401,5.167 C10.401,3.461 10.401,1.756 10.41,0.043 L10.41,0.043 C10.401,0.827 9.893,1.593 8.861,2.184 L8.861,2.184 C6.83,3.347 3.558,3.33 1.544,2.153 L1.544,2.153 C0.553,1.559 0.05,0.796 0.055,0.037 L0.055,0.037" id="path-67"></path>
        <path d="M0.041,5.147 C0.044,5.919 0.543,6.684 1.537,7.265 L1.537,7.265 C3.55,8.447 6.823,8.464 8.859,7.301 L8.859,7.301 C9.879,6.709 10.401,5.939 10.401,5.167 L10.401,5.167 C10.401,3.461 10.401,1.756 10.41,0.043 L10.41,0.043 C10.401,0.827 9.893,1.593 8.861,2.184 L8.861,2.184 C6.83,3.347 3.558,3.33 1.544,2.153 L1.544,2.153 C0.553,1.559 0.05,0.796 0.055,0.037 L0.055,0.037" id="path-69"></path>
        <path d="M0.041,5.147 C0.044,5.919 0.543,6.684 1.537,7.265 L1.537,7.265 C3.55,8.447 6.823,8.464 8.859,7.301 L8.859,7.301 C9.879,6.709 10.401,5.939 10.401,5.167 L10.401,5.167 C10.401,3.461 10.401,1.756 10.41,0.043 L10.41,0.043 C10.401,0.827 9.893,1.593 8.861,2.184 L8.861,2.184 C6.83,3.347 3.558,3.33 1.544,2.153 L1.544,2.153 C0.553,1.559 0.05,0.796 0.055,0.037 L0.055,0.037" id="path-71"></path>
        <path d="M0.041,5.147 C0.044,5.919 0.543,6.684 1.537,7.265 L1.537,7.265 C3.55,8.447 6.823,8.464 8.859,7.301 L8.859,7.301 C9.879,6.709 10.401,5.939 10.401,5.167 L10.401,5.167 C10.401,3.461 10.401,1.756 10.41,0.043 L10.41,0.043 C10.401,0.827 9.893,1.593 8.861,2.184 L8.861,2.184 C6.83,3.347 3.558,3.33 1.544,2.153 L1.544,2.153 C0.553,1.559 0.05,0.796 0.055,0.037 L0.055,0.037" id="path-73"></path>
        <polygon id="path-75" points="0.508 41.184 85.231 90.936 156.217 50.385 71.508 0.634"></polygon>
        <linearGradient x1="0.000563743907%" y1="49.9996577%" x2="100.000309%" y2="49.9996577%" id="linearGradient-77">
            <stop stop-color="#2F95E4" offset="0%"></stop>
            <stop stop-color="#7033DD" offset="100%"></stop>
        </linearGradient>
        <polygon id="path-78" points="0.606464122 0.404 184.932559 0.404 184.932559 107.375095 0.606464122 107.375095"></polygon>
        <path d="M137.604,6.296 C133.979,6.797 127.533,6.147 123.414,8.523 L123.414,8.523 C122.217,9.214 121.216,10.16 120.537,11.467 L120.537,11.467 C118.322,15.735 118.897,18.391 116.23,19.929 L116.23,19.929 C115.273,20.48 113.898,20.894 111.823,21.182 L111.823,21.182 C108.492,21.648 103.955,20.62 99.256,19.592 L99.256,19.592 C92.869,18.195 86.18,16.799 81.803,19.148 L81.803,19.148 C74.537,23.336 84.674,26.874 80.931,29.961 L80.931,29.961 C78.807,31.198 72.58,28.508 65.641,25.818 L65.641,25.818 C57.735,22.754 48.904,19.69 44.161,22.429 L44.161,22.429 C34.935,27.753 68.386,37.264 61.391,44.363 L61.391,44.363 C60.142,45.628 58.915,46.574 57.703,47.269 L57.703,47.269 C53.563,49.662 49.655,49.15 46.04,48.638 L46.04,48.638 C42.843,48.184 39.874,47.732 37.174,49.29 L37.174,49.29 C30.755,52.997 43.412,61.364 37.984,64.5 L37.984,64.5 C37.797,64.607 37.592,64.707 37.361,64.803 L37.361,64.803 C31.17,67.349 21.017,65.176 16.128,67.999 L16.128,67.999 C10.553,71.217 22.054,77.231 16.787,80.272 L16.787,80.272 C15.7,80.898 13.905,81.401 11.105,81.723 L11.105,81.723 C8.647,82.008 6.759,82.666 5.308,83.504 L5.308,83.504 C0.641,86.199 0.516,90.532 0.508,90.762 L0.508,90.762 C0.783,90.616 6,87.824 12.041,84.336 L12.041,84.336 C16.65,81.676 24.194,81.77 29.233,81.987 L29.233,81.987 C32.835,82.144 35.04,81.727 36.409,80.937 L36.409,80.937 C38.648,79.646 38.65,77.352 38.873,74.936 L38.873,74.936 C39.099,72.517 39.545,69.965 42.678,68.156 L42.678,68.156 C43.994,67.396 45.784,66.768 48.234,66.335 L48.234,66.335 C50.897,65.866 53.822,66.605 56.913,67.344 L56.913,67.344 C61.523,68.447 66.504,69.548 71.541,66.641 L71.541,66.641 C77.098,63.433 75.495,59.262 74.191,54.026 L74.191,54.026 C73.47,51.161 73.898,48.919 75.704,47.875 L75.704,47.875 C77.312,46.949 80.013,46.979 83.964,48.383 L83.964,48.383 C91.125,50.932 99.343,55.939 103.167,53.729 L103.167,53.729 C103.814,53.356 104.334,52.779 104.702,51.947 L104.702,51.947 C107.391,45.901 95.211,40.145 101.731,36.072 L101.731,36.072 C101.872,35.984 102.01,35.902 102.148,35.82 L102.148,35.82 C106.989,33.024 112.381,33.881 117.714,34.736 L117.714,34.736 C122.099,35.441 126.445,36.145 130.412,34.817 L130.412,34.817 C131.582,34.424 132.51,34.026 133.232,33.611 L133.232,33.611 C136.824,31.533 135.22,29.071 132.093,25.414 L132.093,25.414 C129.032,21.856 127.722,17.861 132.49,15.107 L132.49,15.107 C133.6,14.468 135.042,13.896 136.864,13.41 L136.864,13.41 C138.625,12.942 140.029,12.351 141.196,11.677 L141.196,11.677 C143.54,10.324 144.929,8.638 146.326,6.946 L146.326,6.946 C147.723,5.252 149.133,3.553 151.517,2.178 L151.517,2.178 C152.067,1.864 152.667,1.562 153.332,1.284 L153.332,1.284 C154.501,0.791 155.073,0.548 155.18,0.483 L155.18,0.483 C155.199,0.472 155.204,0.467 155.195,0.467 L155.195,0.467 C154.925,0.467 141.207,5.797 137.604,6.296" id="path-80"></path>
        <linearGradient x1="0.000567452583%" y1="49.9996304%" x2="99.9997525%" y2="49.9996304%" id="linearGradient-82">
            <stop stop-color="#0EEFEF" offset="0%"></stop>
            <stop stop-color="#2F56F9" offset="100%"></stop>
        </linearGradient>
    </defs>
    <g id="Page-1" stroke="none" stroke-width="1" fill="none" fill-rule="evenodd">
        <g id="Group-191" transform="translate(0.000000, -1.000000)">
            <g id="Group-3" transform="translate(0.000000, 15.596000)">
                <mask id="mask-2" fill="white">
                    <use xlink:href="#path-1"></use>
                </mask>
                <g id="Clip-2"></g>
                <path d="M1.4921,43.4545 L76.0521,0.8595 C78.0251,-0.2655 81.2061,-0.2525 83.1601,0.8965 L182.8671,59.4495 C184.8241,60.6035 184.8031,62.4425 182.8221,63.5725 L108.2731,106.1585 C106.2931,107.2955 103.1151,107.2745 101.1631,106.1295 L1.4561,47.5705 C-0.5009,46.4245 -0.4819,44.5795 1.4921,43.4545" id="Fill-1" fill="#C6C6C6" mask="url(#mask-2)"></path>
            </g>
            <polygon id="Fill-4" fill="#778489" points="10.5087 46.78 10.5017 51.901 81.4967 11.342 81.5077 6.229"></polygon>
            <polygon id="Fill-5" fill="#ABBEC5" points="81.5078 6.2292 81.4968 11.3412 166.2138 61.0932 166.2178 55.9812"></polygon>
            <g id="Group-60" transform="translate(135.000000, 76.596000)">
                <g id="Group-8">
                    <mask id="mask-4" fill="white">
                        <use xlink:href="#path-3"></use>
                    </mask>
                    <g id="Clip-7"></g>
                    <path d="M0.0546,3.0365 L0.0406,8.1465 C0.0406,7.3805 0.5596,6.6085 1.5836,6.0255 C1.8156,5.8885 2.0686,5.7775 2.3336,5.6735 L2.3376,0.5545 C2.0756,0.6545 1.8286,0.7775 1.5906,0.9135 C0.5636,1.4935 0.0586,2.2685 0.0546,3.0365" id="Fill-6" fill="#738085" mask="url(#mask-4)"></path>
                </g>
                <g id="Group-11">
                    <mask id="mask-6" fill="white">
                        <use xlink:href="#path-5"></use>
                    </mask>
                    <g id="Clip-10"></g>
                    <path d="M2.3378,0.5541 L2.3338,5.6731 C2.5368,5.5931 2.7468,5.5211 2.9608,5.4611 L2.9678,0.3471 C2.7578,0.4011 2.5478,0.4721 2.3378,0.5541" id="Fill-9" fill="#78858A" mask="url(#mask-6)"></path>
                </g>
                <g id="Group-14">
                    <mask id="mask-8" fill="white">
                        <use xlink:href="#path-7"></use>
                    </mask>
                    <g id="Clip-13"></g>
                    <path d="M2.9677,0.347 L2.9607,5.461 C3.1377,5.414 3.3207,5.366 3.5007,5.329 L3.5127,0.219 C3.3297,0.253 3.1507,0.291 2.9677,0.347" id="Fill-12" fill="#7C8A8F" mask="url(#mask-8)"></path>
                </g>
                <g id="Group-17">
                    <mask id="mask-10" fill="white">
                        <use xlink:href="#path-9"></use>
                    </mask>
                    <g id="Clip-16"></g>
                    <path d="M3.5126,0.2191 L3.5006,5.3291 C3.6756,5.2981 3.8456,5.2671 4.0216,5.2421 L4.0326,0.1261 C3.8566,0.1511 3.6826,0.1771 3.5126,0.2191" id="Fill-15" fill="#818F94" mask="url(#mask-10)"></path>
                </g>
                <g id="Group-20">
                    <mask id="mask-12" fill="white">
                        <use xlink:href="#path-11"></use>
                    </mask>
                    <g id="Clip-19"></g>
                    <path d="M4.0322,0.1263 L4.0212,5.2423 C4.1882,5.2243 4.3582,5.2023 4.5302,5.1883 L4.5332,0.0763 C4.3682,0.0883 4.1952,0.1053 4.0322,0.1263" id="Fill-18" fill="#859499" mask="url(#mask-12)"></path>
                </g>
                <g id="Group-23">
                    <mask id="mask-14" fill="white">
                        <use xlink:href="#path-13"></use>
                    </mask>
                    <g id="Clip-22"></g>
                    <path d="M4.5332,0.0765 L4.5302,5.1885 C4.6932,5.1775 4.8672,5.1685 5.0392,5.1665 L5.0462,0.0455 C4.8772,0.0525 4.7072,0.0585 4.5332,0.0765" id="Fill-21" fill="#8A999E" mask="url(#mask-14)"></path>
                </g>
                <g id="Group-26">
                    <mask id="mask-16" fill="white">
                        <use xlink:href="#path-15"></use>
                    </mask>
                    <g id="Clip-25"></g>
                    <path d="M5.0459,0.0453 L5.0389,5.1663 C5.2189,5.1623 5.3859,5.1623 5.5679,5.1683 L5.5789,0.0523 C5.3989,0.0453 5.2229,0.0453 5.0459,0.0453" id="Fill-24" fill="#8E9DA3" mask="url(#mask-16)"></path>
                </g>
                <g id="Group-29">
                    <mask id="mask-18" fill="white">
                        <use xlink:href="#path-17"></use>
                    </mask>
                    <g id="Clip-28"></g>
                    <path d="M5.5791,0.0521 L5.5681,5.1681 C5.7611,5.1771 5.9551,5.1931 6.1411,5.2111 L6.1551,0.0941 C5.9661,0.0761 5.7711,0.0631 5.5791,0.0521" id="Fill-27" fill="#93A2A8" mask="url(#mask-18)"></path>
                </g>
                <g id="Group-32">
                    <mask id="mask-20" fill="white">
                        <use xlink:href="#path-19"></use>
                    </mask>
                    <g id="Clip-31"></g>
                    <path d="M6.1552,0.0941 L6.1412,5.2111 C6.3722,5.2311 6.5822,5.2671 6.8022,5.2981 L6.8122,0.1901 C6.5892,0.1481 6.3752,0.1131 6.1552,0.0941" id="Fill-30" fill="#97A7AD" mask="url(#mask-20)"></path>
                </g>
                <g id="Group-35">
                    <mask id="mask-22" fill="white">
                        <use xlink:href="#path-21"></use>
                    </mask>
                    <g id="Clip-34"></g>
                    <path d="M6.8125,0.1898 L6.8025,5.2978 C7.1405,5.3658 7.4635,5.4508 7.7765,5.5548 L7.7875,0.4388 C7.4775,0.3338 7.1485,0.2508 6.8125,0.1898" id="Fill-33" fill="#9BACB3" mask="url(#mask-22)"></path>
                </g>
                <g id="Group-38">
                    <mask id="mask-24" fill="white">
                        <use xlink:href="#path-23"></use>
                    </mask>
                    <g id="Clip-37"></g>
                    <path d="M7.7871,0.4388 L7.7761,5.5548 C8.1831,5.6868 8.5591,5.8498 8.9081,6.0568 C8.9261,6.0678 8.9501,6.0778 8.9691,6.0918 L8.9751,0.9718 C8.9591,0.9628 8.9391,0.9498 8.9151,0.9408 C8.5801,0.7308 8.1891,0.5748 7.7871,0.4388" id="Fill-36" fill="#A0B1B8" mask="url(#mask-24)"></path>
                </g>
                <g id="Group-41">
                    <mask id="mask-26" fill="white">
                        <use xlink:href="#path-25"></use>
                    </mask>
                    <g id="Clip-40"></g>
                    <path d="M8.9755,0.972 L8.9685,6.092 C9.2245,6.244 9.4375,6.414 9.6235,6.577 L9.6305,1.469 C9.4525,1.286 9.2275,1.128 8.9755,0.972" id="Fill-39" fill="#9BACB3" mask="url(#mask-26)"></path>
                </g>
                <g id="Group-44">
                    <mask id="mask-28" fill="white">
                        <use xlink:href="#path-27"></use>
                    </mask>
                    <g id="Clip-43"></g>
                    <path d="M9.6308,1.4691 L9.6238,6.5771 C9.7428,6.6961 9.8478,6.8071 9.9398,6.9211 L9.9458,1.8071 C9.8578,1.6911 9.7498,1.5711 9.6308,1.4691" id="Fill-42" fill="#97A7AD" mask="url(#mask-28)"></path>
                </g>
                <g id="Group-47">
                    <mask id="mask-30" fill="white">
                        <use xlink:href="#path-29"></use>
                    </mask>
                    <g id="Clip-46"></g>
                    <path d="M9.9462,1.807 L9.9392,6.921 C10.0212,7.035 10.0852,7.133 10.1462,7.234 L10.1532,2.121 C10.0952,2.008 10.0312,1.911 9.9462,1.807" id="Fill-45" fill="#93A2A8" mask="url(#mask-30)"></path>
                </g>
                <g id="Group-50">
                    <mask id="mask-32" fill="white">
                        <use xlink:href="#path-31"></use>
                    </mask>
                    <g id="Clip-49"></g>
                    <path d="M10.1533,2.1215 L10.1463,7.2335 C10.1963,7.3295 10.2453,7.4265 10.2853,7.5285 L10.2923,2.4165 C10.2583,2.3105 10.2103,2.2195 10.1533,2.1215" id="Fill-48" fill="#8E9DA3" mask="url(#mask-32)"></path>
                </g>
                <g id="Group-53">
                    <mask id="mask-34" fill="white">
                        <use xlink:href="#path-33"></use>
                    </mask>
                    <g id="Clip-52"></g>
                    <path d="M10.2919,2.4164 L10.2849,7.5284 C10.3229,7.6214 10.3459,7.7204 10.3589,7.8174 L10.3729,2.7044 C10.3559,2.6074 10.3259,2.5074 10.2919,2.4164" id="Fill-51" fill="#8A999E" mask="url(#mask-34)"></path>
                </g>
                <g id="Group-56">
                    <mask id="mask-36" fill="white">
                        <use xlink:href="#path-35"></use>
                    </mask>
                    <g id="Clip-55"></g>
                    <path d="M10.373,2.7045 L10.359,7.8175 C10.388,7.9235 10.401,8.0195 10.401,8.1245 L10.41,3.0015 C10.401,2.9045 10.391,2.8045 10.373,2.7045" id="Fill-54" fill="#859499" mask="url(#mask-36)"></path>
                </g>
                <g id="Group-59">
                    <mask id="mask-38" fill="white">
                        <use xlink:href="#path-37"></use>
                    </mask>
                    <g id="Clip-58"></g>
                    <polygon id="Fill-57" fill="#818F94" mask="url(#mask-38)" points="10.4101 3.0013 10.4011 8.1243 10.4011 8.1663 10.4101 3.0433"></polygon>
                </g>
            </g>
            <g id="Group-115" transform="translate(135.000000, 79.596000)">
                <g id="Group-63">
                    <mask id="mask-40" fill="white">
                        <use xlink:href="#path-39"></use>
                    </mask>
                    <g id="Clip-62"></g>
                    <path d="M0.0546,0.0365 L0.0406,5.1465 C0.0406,5.1665 0.0406,5.1805 0.0476,5.1975 L0.0546,0.0815 L0.0546,0.0365 Z" id="Fill-61" fill="#376A80" mask="url(#mask-40)"></path>
                </g>
                <g id="Group-66">
                    <mask id="mask-42" fill="white">
                        <use xlink:href="#path-41"></use>
                    </mask>
                    <g id="Clip-65"></g>
                    <path d="M0.0546,0.0814 L0.0476,5.1974 C0.0506,5.2984 0.0546,5.3934 0.0756,5.4994 L0.0856,0.3744 C0.0656,0.2804 0.0546,0.1854 0.0546,0.0814" id="Fill-64" fill="#396E85" mask="url(#mask-42)"></path>
                </g>
                <g id="Group-69">
                    <mask id="mask-44" fill="white">
                        <use xlink:href="#path-43"></use>
                    </mask>
                    <g id="Clip-68"></g>
                    <path d="M0.0859,0.3744 L0.0749,5.4994 C0.0979,5.5954 0.1259,5.6904 0.1599,5.7874 L0.1689,0.6684 C0.1329,0.5744 0.1079,0.4764 0.0859,0.3744" id="Fill-67" fill="#3B7189" mask="url(#mask-44)"></path>
                </g>
                <g id="Group-72">
                    <mask id="mask-46" fill="white">
                        <use xlink:href="#path-45"></use>
                    </mask>
                    <g id="Clip-71"></g>
                    <path d="M0.1689,0.6683 L0.1599,5.7873 C0.1969,5.8903 0.2399,5.9853 0.2959,6.0823 L0.3099,0.9673 C0.2469,0.8673 0.2069,0.7753 0.1689,0.6683" id="Fill-70" fill="#3D758D" mask="url(#mask-46)"></path>
                </g>
                <g id="Group-75">
                    <mask id="mask-48" fill="white">
                        <use xlink:href="#path-47"></use>
                    </mask>
                    <g id="Clip-74"></g>
                    <path d="M0.3095,0.9672 L0.2955,6.0822 C0.3535,6.1912 0.4205,6.2942 0.4985,6.3952 L0.5125,1.2762 C0.4345,1.1752 0.3565,1.0682 0.3095,0.9672" id="Fill-73" fill="#3F7992" mask="url(#mask-48)"></path>
                </g>
                <g id="Group-78">
                    <mask id="mask-50" fill="white">
                        <use xlink:href="#path-49"></use>
                    </mask>
                    <g id="Clip-77"></g>
                    <path d="M0.5126,1.2758 L0.4986,6.3948 C0.5906,6.5098 0.7016,6.6308 0.8246,6.7448 L0.8306,1.6268 C0.7126,1.5098 0.6016,1.3918 0.5126,1.2758" id="Fill-76" fill="#417C96" mask="url(#mask-50)"></path>
                </g>
                <g id="Group-81">
                    <mask id="mask-52" fill="white">
                        <use xlink:href="#path-51"></use>
                    </mask>
                    <g id="Clip-80"></g>
                    <path d="M0.831,1.6263 L0.824,6.7443 C1.011,6.9093 1.222,7.0753 1.475,7.2253 L1.485,2.1123 C1.228,1.9593 1.018,1.7933 0.831,1.6263" id="Fill-79" fill="#43809B" mask="url(#mask-52)"></path>
                </g>
                <g id="Group-84">
                    <mask id="mask-54" fill="white">
                        <use xlink:href="#path-53"></use>
                    </mask>
                    <g id="Clip-83"></g>
                    <path d="M1.4853,2.1127 L1.4743,7.2247 C1.4953,7.2457 1.5193,7.2567 1.5373,7.2647 C1.8823,7.4667 2.2663,7.6347 2.6663,7.7717 L2.6793,2.6527 C2.2693,2.5117 1.8923,2.3467 1.5443,2.1527 C1.5233,2.1367 1.5033,2.1247 1.4853,2.1127" id="Fill-82" fill="#44849F" mask="url(#mask-54)"></path>
                </g>
                <g id="Group-87">
                    <mask id="mask-56" fill="white">
                        <use xlink:href="#path-55"></use>
                    </mask>
                    <g id="Clip-86"></g>
                    <path d="M2.6796,2.6527 L2.6656,7.7717 C2.9816,7.8707 3.3096,7.9577 3.6536,8.0107 L3.6556,2.8957 C3.3206,2.8407 2.9916,2.7577 2.6796,2.6527" id="Fill-85" fill="#43809B" mask="url(#mask-56)"></path>
                </g>
                <g id="Group-90">
                    <mask id="mask-58" fill="white">
                        <use xlink:href="#path-57"></use>
                    </mask>
                    <g id="Clip-89"></g>
                    <path d="M3.6552,2.8959 L3.6532,8.0109 C3.8672,8.0599 4.0842,8.0889 4.3092,8.1109 L4.3162,2.9929 C4.0922,2.9699 3.8692,2.9389 3.6552,2.8959" id="Fill-88" fill="#417C96" mask="url(#mask-58)"></path>
                </g>
                <g id="Group-93">
                    <mask id="mask-60" fill="white">
                        <use xlink:href="#path-59"></use>
                    </mask>
                    <g id="Clip-92"></g>
                    <path d="M4.3164,2.9926 L4.3094,8.1106 C4.5034,8.1246 4.6894,8.1466 4.8834,8.1536 L4.8894,3.0376 C4.6934,3.0306 4.5034,3.0166 4.3164,2.9926" id="Fill-91" fill="#3F7992" mask="url(#mask-60)"></path>
                </g>
                <g id="Group-96">
                    <mask id="mask-62" fill="white">
                        <use xlink:href="#path-61"></use>
                    </mask>
                    <g id="Clip-95"></g>
                    <path d="M4.8896,3.0375 L4.8836,8.1535 C5.0596,8.1605 5.2366,8.1605 5.4086,8.1605 L5.4226,3.0415 C5.2466,3.0435 5.0706,3.0435 4.8896,3.0375" id="Fill-94" fill="#3D758D" mask="url(#mask-62)"></path>
                </g>
                <g id="Group-99">
                    <mask id="mask-64" fill="white">
                        <use xlink:href="#path-63"></use>
                    </mask>
                    <g id="Clip-98"></g>
                    <path d="M5.4228,3.0414 L5.4078,8.1604 C5.5788,8.1534 5.7488,8.1424 5.9138,8.1354 L5.9278,3.0154 C5.7648,3.0304 5.5888,3.0414 5.4228,3.0414" id="Fill-97" fill="#3B7189" mask="url(#mask-64)"></path>
                </g>
                <g id="Group-102">
                    <mask id="mask-66" fill="white">
                        <use xlink:href="#path-65"></use>
                    </mask>
                    <g id="Clip-101"></g>
                    <path d="M5.9277,3.015 L5.9137,8.135 C6.0867,8.118 6.2577,8.1 6.4217,8.074 L6.4297,2.963 C6.2697,2.988 6.1017,2.999 5.9277,3.015" id="Fill-100" fill="#396E85" mask="url(#mask-66)"></path>
                </g>
                <g id="Group-105">
                    <mask id="mask-68" fill="white">
                        <use xlink:href="#path-67"></use>
                    </mask>
                    <g id="Clip-104"></g>
                    <path d="M6.4296,2.9633 L6.4216,8.0733 C6.5956,8.0533 6.7696,8.0223 6.9416,7.9953 L6.9446,2.8783 C6.7786,2.9093 6.6096,2.9393 6.4296,2.9633" id="Fill-103" fill="#376A80" mask="url(#mask-68)"></path>
                </g>
                <g id="Group-108">
                    <mask id="mask-70" fill="white">
                        <use xlink:href="#path-69"></use>
                    </mask>
                    <g id="Clip-107"></g>
                    <path d="M6.9443,2.8783 L6.9413,7.9953 C7.1183,7.9503 7.3003,7.9143 7.4773,7.8653 L7.4883,2.7473 C7.3073,2.7963 7.1293,2.8413 6.9443,2.8783" id="Fill-106" fill="#35667C" mask="url(#mask-70)"></path>
                </g>
                <g id="Group-111">
                    <mask id="mask-72" fill="white">
                        <use xlink:href="#path-71"></use>
                    </mask>
                    <g id="Clip-110"></g>
                    <path d="M7.4882,2.7474 L7.4772,7.8654 C7.6912,7.7994 7.9052,7.7354 8.1082,7.6554 L8.1222,2.5364 C7.9192,2.6174 7.7052,2.6864 7.4882,2.7474" id="Fill-109" fill="#336377" mask="url(#mask-72)"></path>
                </g>
                <g id="Group-114">
                    <mask id="mask-74" fill="white">
                        <use xlink:href="#path-73"></use>
                    </mask>
                    <g id="Clip-113"></g>
                    <path d="M8.122,2.5365 L8.108,7.6555 C8.37,7.5515 8.62,7.4345 8.858,7.3005 C9.879,6.7095 10.401,5.9385 10.401,5.1665 L10.41,0.0435 C10.401,0.8265 9.893,1.5935 8.861,2.1835 C8.631,2.3135 8.375,2.4365 8.122,2.5365" id="Fill-112" fill="#315F73" mask="url(#mask-74)"></path>
                </g>
            </g>
            <polygon id="Fill-116" fill="#336277" points="95.2304 96.5319 95.2184 101.6499 166.2134 61.0939 166.2174 55.9809"></polygon>
            <g id="Group-121" transform="translate(10.000000, 46.596000)">
                <path d="M126.5947,30.9135 C124.5567,32.0745 124.5357,33.9675 126.5437,35.1525 C128.5577,36.3295 131.8297,36.3475 133.8617,35.1845 C135.8967,34.0235 135.9257,32.1145 133.9147,30.9405 C131.9077,29.7605 128.6257,29.7485 126.5947,30.9135" id="Fill-117" fill="#68DAEA"></path>
                <polygon id="Fill-119" fill="#498DAB" points="0.5087 0.184 0.5017 5.305 85.2187 55.054 85.2307 49.936"></polygon>
            </g>
            <g id="Group-124" transform="translate(10.000000, 5.596000)">
                <mask id="mask-76" fill="white">
                    <use xlink:href="#path-75"></use>
                </mask>
                <g id="Clip-123"></g>
                <polygon id="Fill-122" fill="url(#linearGradient-77)" mask="url(#mask-76)" points="0.508 41.184 85.231 90.936 156.217 50.385 71.508 0.634"></polygon>
            </g>
            <g id="Group-146" transform="translate(0.000000, 0.596000)">
                <polygon id="Fill-125" fill="#DEF6FF" points="30.5595 45.3861 93.4045 82.2871 146.0595 52.2081 83.2245 15.3041"></polygon>
                <polygon id="Fill-127" fill="#8FEDFF" points="70.538 32.6381 88.376 43.1121 103.309 34.5741 85.486 24.1041"></polygon>
                <path d="M0.6953,46.4183 C0.7023,46.4333 0.7023,46.4553 0.7093,46.4643 C0.7593,46.6253 0.8443,46.7883 0.9503,46.9383 C0.9663,46.9653 0.9833,46.9863 0.9973,47.0163 C1.1053,47.1673 1.2393,47.3173 1.3963,47.4603 C1.5063,47.5543 1.6413,47.6493 1.7663,47.7433 C1.8653,47.8093 1.9543,47.8843 2.0573,47.9473 L101.7753,106.5103 L101.7613,111.6193 L2.0543,53.0623 C2.0323,53.0503 2.0143,53.0373 1.9903,53.0233 C1.9013,52.9773 1.8383,52.9133 1.7593,52.8543 C1.6313,52.7673 1.4963,52.6753 1.3893,52.5763 C1.3813,52.5673 1.3633,52.5593 1.3603,52.5543 C1.2393,52.4403 1.1393,52.3293 1.0483,52.2193 C1.0213,52.1873 1.0143,52.1633 0.9973,52.1333 C0.9693,52.1123 0.9563,52.0793 0.9363,52.0543 C0.9053,52.0033 0.8693,51.9563 0.8443,51.9163 C0.7913,51.8203 0.7533,51.7263 0.7133,51.6283 C0.7093,51.6123 0.7093,51.5973 0.7023,51.5833 C0.6923,51.5623 0.6923,51.5503 0.6843,51.5293 C0.6643,51.4693 0.6453,51.4073 0.6343,51.3443 C0.6213,51.2483 0.6033,51.1483 0.6033,51.0553 L0.6063,45.9443 L0.6063,45.8933 C0.6063,46.0723 0.6413,46.2393 0.6953,46.4183" id="Fill-129" fill="#8FEDFF"></path>
                <g id="Group-133">
                    <mask id="mask-79" fill="white">
                        <use xlink:href="#path-78"></use>
                    </mask>
                    <g id="Clip-132"></g>
                    <path d="M143.8613,81.184 C145.8963,80.024 145.9253,78.115 143.9153,76.941 C141.9083,75.76 138.6263,75.748 136.5903,76.913 C134.5563,78.075 134.5363,79.967 136.5443,81.153 C138.5573,82.33 141.8303,82.347 143.8613,81.184 L143.8613,81.184 Z M95.2303,95.936 L166.2173,55.385 L81.5073,5.633 L10.5083,46.184 L95.2303,95.936 Z M76.6633,1.241 C78.6363,0.113 81.8163,0.126 83.7693,1.272 L183.4833,59.831 C185.4363,60.977 185.4113,62.822 183.4333,63.944 L108.8853,106.539 C106.9113,107.668 103.7283,107.649 101.7753,106.51 L2.0573,47.948 C0.1083,46.799 0.1223,44.956 2.1033,43.829 L76.6633,1.241 Z" id="Fill-131" fill="#D4FAFC" mask="url(#mask-79)"></path>
                </g>
                <path d="M101.7753,106.5101 C102.0743,106.6861 102.4093,106.8241 102.7633,106.9411 C102.8883,106.9901 103.0163,107.0261 103.1413,107.0621 C103.3083,107.1111 103.4753,107.1571 103.6413,107.1891 C103.8413,107.2361 104.0473,107.2651 104.2513,107.2961 C104.3043,107.3071 104.3573,107.3141 104.4043,107.3181 C104.6813,107.3501 104.9603,107.3651 105.2393,107.3711 L105.3883,107.3711 C105.6623,107.3711 105.9403,107.3561 106.2173,107.3261 C106.2613,107.3241 106.2963,107.3241 106.3423,107.3181 C106.6053,107.2861 106.8763,107.2391 107.1433,107.1861 C107.1993,107.1681 107.2533,107.1571 107.3023,107.1441 C107.5373,107.0881 107.7573,107.0231 107.9743,106.9411 C108.0213,106.9211 108.0703,106.9131 108.1213,106.8981 C108.3843,106.7891 108.6433,106.6801 108.8853,106.5391 L183.4333,63.9441 C184.4333,63.3841 184.9313,62.6311 184.9313,61.8851 C184.9273,63.5871 184.9243,65.2991 184.9243,66.9981 C184.9243,67.7521 184.4263,68.5001 183.4293,69.0671 L108.8743,111.6511 C108.6463,111.7811 108.4053,111.8991 108.1443,112.0031 C108.1343,112.0031 108.1213,112.0101 108.1063,112.0101 C108.0633,112.0271 108.0213,112.0371 107.9743,112.0571 C107.8293,112.1091 107.6903,112.1621 107.5373,112.2021 C107.4523,112.2271 107.3713,112.2421 107.2893,112.2611 C107.2313,112.2771 107.1913,112.2871 107.1363,112.2911 C107.0963,112.3051 107.0523,112.3221 107.0073,112.3291 C106.8483,112.3651 106.6793,112.3901 106.5123,112.4101 C106.4563,112.4191 106.3843,112.4261 106.3313,112.4331 C106.2893,112.4331 106.2493,112.4411 106.2083,112.4471 C106.1463,112.4541 106.0833,112.4631 106.0253,112.4641 C105.8583,112.4791 105.6923,112.4901 105.5273,112.4921 C105.4783,112.4971 105.4213,112.4901 105.3713,112.4861 C105.3253,112.4921 105.2823,112.4861 105.2443,112.4861 C105.1693,112.4861 105.0893,112.4921 105.0143,112.4861 C104.8243,112.4721 104.6453,112.4641 104.4543,112.4471 C104.4353,112.4471 104.4113,112.4411 104.3893,112.4411 C104.3423,112.4261 104.2973,112.4261 104.2513,112.4171 C104.1083,112.4041 103.9633,112.3781 103.8133,112.3551 C103.7493,112.3431 103.7023,112.3221 103.6383,112.3081 C103.4673,112.2721 103.3013,112.2251 103.1363,112.1821 C103.0453,112.1561 102.9493,112.1451 102.8673,112.1131 C102.8243,112.0951 102.7933,112.0771 102.7493,112.0571 C102.4043,111.9351 102.0603,111.8001 101.7613,111.6191 L101.7753,106.5101 Z" id="Fill-134" fill="#8FEDFF"></path>
                <polygon id="Fill-136" fill="#8FEDFF" points="44.3261 48.6908 47.0291 50.2738 71.1251 36.6178 68.3351 34.9778"></polygon>
                <polygon id="Fill-138" fill="#8FEDFF" points="51.7177 52.9301 54.4207 54.5171 78.5147 40.8591 75.7237 39.2191"></polygon>
                <polygon id="Fill-140" fill="#8FEDFF" points="58.3144 57.3676 61.0124 58.9526 85.1064 45.2936 82.3184 43.6546"></polygon>
                <path d="M136.5947,77.4379 C134.5567,78.6009 134.5357,80.4949 136.5437,81.6769 C138.5577,82.8569 141.8297,82.8719 143.8617,81.7089 C145.8967,80.5439 145.9257,78.6389 143.9147,77.4689 C141.9077,76.2869 138.6257,76.2759 136.5947,77.4379" id="Fill-142" fill="#8FEDFF"></path>
                <path d="M53.6376,40.9662 C51.2946,42.3202 51.9366,45.3702 58.4916,50.3072 C65.0776,55.2672 65.5436,57.6122 63.3416,58.8852 C60.3616,60.6042 52.4936,60.3622 48.2836,61.9842 C47.9336,62.1182 47.6406,62.2542 47.3956,62.3992 C43.2476,64.7942 53.5566,68.1342 49.5226,72.8312 C49.1566,73.2592 48.7396,73.5972 48.2836,73.8622 C43.4196,76.6702 33.8116,70.8712 25.6546,70.1542 C23.1056,69.9352 21.1506,70.1652 19.9086,70.8802 C16.8016,72.6752 18.1436,77.5212 25.7616,85.9192 C28.1086,88.5062 26.4336,90.5152 24.0046,91.9192 C21.2776,93.4912 17.7836,94.2612 17.5986,94.3032 C17.9236,94.3772 32.1866,100.4152 37.0366,97.6132 C39.1966,96.3662 39.4886,93.3632 35.8366,87.2892 C35.0766,86.0302 35.1446,85.2742 35.8026,84.8952 C38.4276,83.3782 50.4496,87.8482 56.6466,90.0632 C59.5666,91.1092 62.1866,90.9482 63.7816,90.0272 C66.4256,88.5012 66.2836,84.8922 60.1286,81.1842 C51.8986,76.2292 70.9406,76.8712 59.2156,66.6032 C57.6976,65.2772 57.3686,64.5532 57.8536,64.2722 C59.6576,63.2322 72.7256,68.3372 77.5876,71.2032 C83.5056,74.6932 87.8836,75.0492 89.9946,73.8282 C92.2346,72.5342 91.9376,69.4822 88.2516,66.5042 C82.6446,61.9592 82.3536,59.9212 84.3946,58.7442 C85.7366,57.9682 88.0836,57.5642 90.5936,57.0672 C93.1116,56.5682 95.7816,55.9752 97.7706,54.8242 C98.6166,54.3382 99.3376,53.7492 99.8726,53.0242 C100.2116,52.5722 100.5726,52.2442 100.9576,52.0212 C104.9626,49.7082 111.8406,58.4562 121.8766,57.9822 C124.3146,57.8672 126.0136,57.4432 127.1186,56.8052 C131.3156,54.3832 126.9926,48.8422 122.0606,45.0682 C119.9216,43.4262 119.8056,42.3662 120.8926,41.7392 C122.9666,40.5422 129.4196,40.9192 134.5636,41.8422 C136.2246,42.1452 137.2556,42.0762 137.8076,41.7592 C139.8716,40.5692 135.3066,35.8572 131.9086,33.3832 C131.1746,32.8482 130.8736,32.6492 130.8896,32.6422 C130.9136,32.6242 131.8846,33.1872 133.1606,33.5732 C134.4346,33.9552 136.0186,34.1622 137.2716,33.4392 C138.2766,32.8592 139.0706,31.6822 139.3236,29.5222 C139.4016,28.8652 139.6426,28.4512 140.0316,28.2292 C141.9726,27.1082 147.6536,30.6402 155.7256,31.9702 C158.8866,32.4962 160.8866,32.3102 161.9626,31.6892 C164.3716,30.2942 162.1516,26.7182 157.9346,23.9852 C150.3976,19.0972 157.4336,14.0982 160.6066,12.2662 C161.4156,11.8012 161.9476,11.5492 161.9726,11.5392 C161.1236,11.8152 144.9816,17.0872 141.3656,19.1742 C138.9516,20.5682 137.0176,22.0992 134.5546,23.5232 C133.3186,24.2372 131.9536,24.9202 130.3266,25.5472 C125.4916,27.4092 113.0196,18.6652 107.7786,21.6962 C102.4696,25.0792 113.7936,30.7162 113.2316,35.4192 C113.0646,36.7772 112.6646,37.5932 112.0016,37.9752 C110.3666,38.9192 107.1106,37.2372 101.7376,34.5582 C94.7226,31.0662 83.2406,28.4032 79.0146,30.8432 C78.6886,31.0282 78.4056,31.2512 78.1706,31.4992 C74.8126,35.1072 92.8926,43.4192 90.1626,46.8622 C89.9566,47.1212 89.7066,47.3312 89.4146,47.5002 C85.8676,49.5482 76.2436,44.9532 66.3906,41.6882 C61.1106,39.9422 55.9366,39.6382 53.6376,40.9662" id="Fill-144" fill="#306DF9"></path>
            </g>
            <g id="Group-149" transform="translate(10.000000, 4.596000)">
                <mask id="mask-81" fill="white">
                    <use xlink:href="#path-80"></use>
                </mask>
                <g id="Clip-148"></g>
                <path d="M137.604,6.296 C133.979,6.797 127.533,6.147 123.414,8.523 L123.414,8.523 C122.217,9.214 121.216,10.16 120.537,11.467 L120.537,11.467 C118.322,15.735 118.897,18.391 116.23,19.929 L116.23,19.929 C115.273,20.48 113.898,20.894 111.823,21.182 L111.823,21.182 C108.492,21.648 103.955,20.62 99.256,19.592 L99.256,19.592 C92.869,18.195 86.18,16.799 81.803,19.148 L81.803,19.148 C74.537,23.336 84.674,26.874 80.931,29.961 L80.931,29.961 C78.807,31.198 72.58,28.508 65.641,25.818 L65.641,25.818 C57.735,22.754 48.904,19.69 44.161,22.429 L44.161,22.429 C34.935,27.753 68.386,37.264 61.391,44.363 L61.391,44.363 C60.142,45.628 58.915,46.574 57.703,47.269 L57.703,47.269 C53.563,49.662 49.655,49.15 46.04,48.638 L46.04,48.638 C42.843,48.184 39.874,47.732 37.174,49.29 L37.174,49.29 C30.755,52.997 43.412,61.364 37.984,64.5 L37.984,64.5 C37.797,64.607 37.592,64.707 37.361,64.803 L37.361,64.803 C31.17,67.349 21.017,65.176 16.128,67.999 L16.128,67.999 C10.553,71.217 22.054,77.231 16.787,80.272 L16.787,80.272 C15.7,80.898 13.905,81.401 11.105,81.723 L11.105,81.723 C8.647,82.008 6.759,82.666 5.308,83.504 L5.308,83.504 C0.641,86.199 0.516,90.532 0.508,90.762 L0.508,90.762 C0.783,90.616 6,87.824 12.041,84.336 L12.041,84.336 C16.65,81.676 24.194,81.77 29.233,81.987 L29.233,81.987 C32.835,82.144 35.04,81.727 36.409,80.937 L36.409,80.937 C38.648,79.646 38.65,77.352 38.873,74.936 L38.873,74.936 C39.099,72.517 39.545,69.965 42.678,68.156 L42.678,68.156 C43.994,67.396 45.784,66.768 48.234,66.335 L48.234,66.335 C50.897,65.866 53.822,66.605 56.913,67.344 L56.913,67.344 C61.523,68.447 66.504,69.548 71.541,66.641 L71.541,66.641 C77.098,63.433 75.495,59.262 74.191,54.026 L74.191,54.026 C73.47,51.161 73.898,48.919 75.704,47.875 L75.704,47.875 C77.312,46.949 80.013,46.979 83.964,48.383 L83.964,48.383 C91.125,50.932 99.343,55.939 103.167,53.729 L103.167,53.729 C103.814,53.356 104.334,52.779 104.702,51.947 L104.702,51.947 C107.391,45.901 95.211,40.145 101.731,36.072 L101.731,36.072 C101.872,35.984 102.01,35.902 102.148,35.82 L102.148,35.82 C106.989,33.024 112.381,33.881 117.714,34.736 L117.714,34.736 C122.099,35.441 126.445,36.145 130.412,34.817 L130.412,34.817 C131.582,34.424 132.51,34.026 133.232,33.611 L133.232,33.611 C136.824,31.533 135.22,29.071 132.093,25.414 L132.093,25.414 C129.032,21.856 127.722,17.861 132.49,15.107 L132.49,15.107 C133.6,14.468 135.042,13.896 136.864,13.41 L136.864,13.41 C138.625,12.942 140.029,12.351 141.196,11.677 L141.196,11.677 C143.54,10.324 144.929,8.638 146.326,6.946 L146.326,6.946 C147.723,5.252 149.133,3.553 151.517,2.178 L151.517,2.178 C152.067,1.864 152.667,1.562 153.332,1.284 L153.332,1.284 C154.501,0.791 155.073,0.548 155.18,0.483 L155.18,0.483 C155.199,0.472 155.204,0.467 155.195,0.467 L155.195,0.467 C154.925,0.467 141.207,5.797 137.604,6.296" id="Fill-147" fill="url(#linearGradient-82)" mask="url(#mask-81)"></path>
            </g>
            <g id="Group-190" transform="translate(120.000000, 13.596000)">
                <path d="M29.0849,87.2816 C29.0849,87.2816 26.8929,87.9786 27.6789,89.1006 C28.4649,90.2216 31.4339,91.6366 31.9289,92.3426 C32.4239,93.0536 35.0849,95.4456 35.7189,95.0726 C36.3559,94.6996 38.2009,94.7756 37.3799,91.6796 C36.5499,88.5876 32.0639,86.6366 29.0849,87.2816" id="Fill-150" fill="#111114"></path>
                <path d="M37.3466,42.7133 C37.3466,42.7133 40.6016,48.0583 38.7926,56.0913 C36.9756,64.1213 37.5256,75.4013 37.5256,75.4013 C37.5256,75.4013 38.9496,89.8283 37.7356,92.4393 C37.7356,92.4393 34.1316,94.5413 30.6526,91.7983 L28.2456,65.0723 L27.3216,45.4423 C27.3216,45.4423 35.2776,44.4963 37.3466,42.7133" id="Fill-152" fill="#FF61CB"></path>
                <path d="M28.246,65.0726 L27.52,49.6746 L30.605,49.0216 C30.605,49.0216 32.302,62.8606 31.317,66.1266 C30.549,68.6926 32.904,84.8616 32.777,92.9276 C32.087,92.7156 31.362,92.3626 30.652,91.7986 L28.246,65.0726 Z" id="Fill-154" fill="#DD3EB0"></path>
                <path d="M11.3515,85.6185 C11.3515,85.6185 10.2595,87.9135 8.2635,86.9425 C6.2655,85.9645 7.6655,85.4555 3.3885,83.2595 C-0.8885,81.0645 0.4515,79.1315 0.8195,78.7495 C1.6765,77.8725 4.2435,79.7875 5.1835,80.2595 C6.1245,80.7295 8.3345,81.3425 8.3345,81.3425 L11.9975,85.2085 L11.3515,85.6185 Z" id="Fill-156" fill="#111114"></path>
                <path d="M32.4355,44.9144 C32.4355,44.9144 34.8695,51.7494 30.6905,54.5194 C26.5065,57.2994 21.8785,62.4064 20.7435,64.6944 C19.6065,66.9854 13.3025,85.3914 13.3025,85.3914 C13.3025,85.3914 8.8295,87.1454 5.5745,83.8954 C5.5745,83.8954 10.6415,62.3124 12.4155,59.4354 C14.1915,56.5544 22.1325,42.9284 22.1325,42.9284 C22.1325,42.9284 26.5465,44.9754 32.4355,44.9144" id="Fill-158" fill="#FF61CB"></path>
                <path d="M5.5742,83.8959 C5.5742,83.8959 10.6412,62.3129 12.4162,59.4359 C14.0722,56.7489 21.0932,44.7179 22.0242,43.1089 L25.0072,48.6429 C25.0072,48.6429 19.5392,54.9449 18.4702,56.8509 C17.4682,58.6409 10.4052,75.6289 8.8822,85.6949 C7.7792,85.4639 6.6102,84.9309 5.5742,83.8959" id="Fill-160" fill="#DD3EB0"></path>
                <path d="M37.0068,13.6859 C37.0068,13.6859 33.4598,13.2619 34.8848,18.7629 C36.3108,24.2579 39.4608,29.8789 39.4608,29.8789 C39.4608,29.8789 42.3738,40.8699 42.3238,42.8879 C42.3238,42.8879 42.3618,43.7089 41.8028,44.6909 C41.5978,45.0419 41.3878,45.5409 41.5658,46.7989 C41.6278,47.2249 41.6218,47.9979 41.3248,48.4959 C41.0278,48.9979 41.5598,49.3389 41.8268,49.1669 C42.1588,48.9589 42.7438,48.2279 42.6908,47.0689 C42.6908,47.0689 43.0788,47.6049 43.2058,50.2819 C43.2578,51.4139 44.2178,51.7679 45.3228,50.1449 C45.5128,49.8639 46.1038,47.4609 45.4258,45.3899 C44.9098,43.8099 44.9518,43.0659 44.8848,41.6109 C44.8198,40.1469 45.0888,32.3439 43.3288,26.0199 C42.4138,22.7299 39.9648,13.4359 37.0068,13.6859" id="Fill-162" fill="#E6A376"></path>
                <path d="M36.2285,13.3939 C41.0455,12.3049 44.9695,28.4019 45.1015,32.6219 C45.1015,32.6219 43.5995,33.4969 39.9675,32.5719 C39.9675,32.5719 30.6785,14.6369 36.2285,13.3939" id="Fill-164" fill="#4BBBE8"></path>
                <path d="M45.1015,32.6215 L45.4235,43.1085 C45.4235,43.1085 43.7735,44.1865 41.3635,43.0395 L39.8725,32.0075 L45.1015,32.6215 Z" id="Fill-166" fill="#4BBBE8"></path>
                <path d="M37.124,13.1127 C37.124,13.1127 40.47,13.4337 38.81,19.5447 C37.147,25.6537 36.311,32.3017 36.534,34.5317 C36.769,36.7597 37.958,42.6337 38.497,44.1417 C38.497,44.1417 38.983,48.7927 28.049,52.3277 C28.049,52.3277 18.957,52.9507 20.151,46.7497 C21.346,40.5467 21.424,30.6207 21.078,28.2797 C20.731,25.9347 19.106,21.2987 24.719,17.8157 C30.335,14.3257 33.42,13.0707 37.124,13.1127" id="Fill-168" fill="#77D2FF"></path>
                <path d="M21.0781,28.2797 C21.4241,30.6207 21.3461,40.5467 20.1511,46.7497 C19.3211,51.0487 23.4211,52.3007 26.0141,52.2857 C26.7141,49.5067 26.1341,43.9657 27.7571,37.8917 C29.7661,30.3977 28.1251,25.6627 26.6531,21.8027 C25.7011,19.2987 24.2001,19.3077 23.1131,19.0047 C19.4551,22.2967 20.7691,26.1937 21.0781,28.2797" id="Fill-170" fill="#4BBBE8"></path>
                <path d="M34.1035,10.2396 C34.1035,10.2396 33.5365,13.2616 34.4155,15.2426 C35.2265,17.0346 28.0865,18.1036 28.0335,16.4886 C28.0315,16.3186 29.5625,13.7936 28.0865,10.5656 C27.3145,8.8756 34.1035,10.2396 34.1035,10.2396" id="Fill-172" fill="#EFB185"></path>
                <path d="M34.3798,15.3431 C33.7148,13.8691 33.8618,11.8281 33.9808,10.8761 L28.6678,13.1011 L28.6678,13.1161 C28.8528,13.1731 32.2528,14.3211 32.8208,16.9141 C33.9108,16.5531 34.6698,15.9941 34.3798,15.3431" id="Fill-174" fill="#DD9569"></path>
                <path d="M27.2744,1.6185 C27.2744,1.6185 25.9864,4.3065 26.0354,6.6995 C26.0874,9.2815 25.6804,9.7705 25.7554,10.9145 C25.7854,11.4065 25.7714,12.1475 26.2054,12.6395 C26.9304,13.4585 28.5034,13.8535 30.7274,13.2045 C33.4114,12.4165 36.4284,8.9425 35.5454,5.5605 C34.6484,2.1795 31.4024,-0.7855 27.2744,1.6185" id="Fill-176" fill="#EFB185"></path>
                <path d="M35.1699,9.1302 C34.3349,6.0802 31.9779,2.3282 32.0189,2.1392 C32.0359,2.0252 31.2129,1.4132 30.2709,0.7472 C29.3459,0.7402 28.3399,0.9992 27.2739,1.6182 C27.2739,1.6182 26.9289,2.3412 26.6009,3.3642 C27.1769,4.1202 28.3889,5.0212 28.5419,5.6392 C28.8869,7.0922 28.4799,9.2332 27.9959,10.1562 C27.5179,11.0742 29.1009,12.5902 28.6859,13.4092 C28.6679,13.4492 28.6629,13.4852 28.6649,13.5242 C29.2689,13.5242 29.9599,13.4342 30.7279,13.2042 C32.4409,12.7012 34.2879,11.1032 35.1699,9.1302" id="Fill-178" fill="#E6A376"></path>
                <path d="M26.58,0.433 C26.58,0.433 26.031,2.773 28.238,4.082 C29.562,4.869 29.283,7.117 29.185,7.537 C29.094,7.947 28.55,9.82 28.703,10.077 C28.991,10.573 30.172,9.186 30.679,9.323 C31.956,9.677 31.362,10.876 30.089,12.09 C28.732,13.374 32.003,14.18 33.612,13.155 C34.472,12.611 34.795,12.269 36.014,10.175 C37.795,7.13 38.14,3.339 34.623,1.054 C31.107,-1.237 28.786,1.513 26.58,0.433" id="Fill-180" fill="#231202"></path>
                <path d="M33.6123,13.1547 C34.4713,12.6107 34.7953,12.2687 36.0133,10.1757 C37.7953,7.1307 38.1393,3.3397 34.6233,1.0537 C31.1073,-1.2373 28.7863,1.5127 26.5803,0.4327 C26.5803,0.4327 26.4863,0.8327 26.5293,1.3827 C27.6763,1.6617 30.8013,2.5297 31.5243,3.9827 C32.4153,5.7697 33.5693,5.2997 33.3313,7.4187 C33.1093,9.4667 33.4383,12.1927 29.9773,13.1107 C31.1683,14.1197 32.9893,13.5537 33.6123,13.1547" id="Fill-182" fill="#231202"></path>
                <path d="M28.3056,15.3646 L25.5646,17.1626 C25.5646,17.1626 32.8576,19.7646 35.1946,16.3516 C35.5236,15.8696 35.2876,14.1506 34.0696,13.7446 C34.0696,13.7446 33.6206,16.6296 28.3056,15.3646" id="Fill-184" fill="#DEF0F9"></path>
                <path d="M9.1855,50.2787 C9.4135,52.1677 9.6345,52.2727 10.0795,52.1477 C12.2305,51.5447 14.0875,47.9397 14.0745,47.5447 C14.0255,46.4547 14.4055,45.7647 14.4055,45.7647 C14.4365,45.6997 14.4805,45.6207 14.5235,45.5377 L12.2785,44.5547 C11.8965,45.2407 11.5275,45.8077 10.7615,46.6107 C9.3195,48.1177 9.1435,49.9557 9.1855,50.2787" id="Fill-186" fill="#E6A376"></path>
                <path d="M24.5468,18.8451 C28.7918,20.6521 22.3568,35.0381 20.0698,38.4061 L14.6928,47.1091 C14.6928,47.1091 12.8428,47.0481 11.6728,44.8241 L16.5458,35.8181 C16.7418,34.6511 19.8208,16.8341 24.5468,18.8451" id="Fill-188" fill="#77D2FF"></path>
            </g>
        </g>
    </g>
</svg>