<?xml version="1.0" encoding="UTF-8"?>
<svg width="179px" height="151px" viewBox="0 0 179 151" version="1.1" xmlns="http://www.w3.org/2000/svg" xmlns:xlink="http://www.w3.org/1999/xlink">
    <!-- Generator: Sketch 53.2 (72643) - https://sketchapp.com -->
    <title>Group 111</title>
    <desc>Created with Sketch.</desc>
    <defs>
        <polygon id="path-1" points="0.101 51.519 59.76 85.962 147.377 35.042 87.723 0.601"></polygon>
        <linearGradient x1="0.000135256254%" y1="50.0003775%" x2="100.000022%" y2="50.0003775%" id="linearGradient-3">
            <stop stop-color="#0EEFEF" offset="0%"></stop>
            <stop stop-color="#2F56F9" offset="100%"></stop>
        </linearGradient>
        <polygon id="path-4" points="0.76 50.962 0.736 58.91 88.356 7.993 88.377 0.042"></polygon>
        <linearGradient x1="-0.000226263963%" y1="50.0002232%" x2="100.000051%" y2="50.0002232%" id="linearGradient-6">
            <stop stop-color="#2F95E4" offset="0%"></stop>
            <stop stop-color="#7033DD" offset="100%"></stop>
        </linearGradient>
        <polygon id="path-7" points="0.5619 0.561 35.1889 0.561 35.1889 71.0499 0.5619 71.0499"></polygon>
        <polygon id="path-9" points="0.8519 0.561 18.8949 0.561 18.8949 7.3259 0.8519 7.3259"></polygon>
    </defs>
    <g id="Page-1" stroke="none" stroke-width="1" fill="none" fill-rule="evenodd">
        <g id="Group-111" transform="translate(0.000000, -1.000000)">
            <g id="Group-9" transform="translate(0.000000, 41.439000)">
                <path d="M176.4291,39.5718 C179.0621,41.0778 179.0721,43.5238 176.4711,45.0438 L171.3031,48.0718 L75.4301,104.1728 L67.4301,108.8568 C64.8361,110.3708 60.6181,110.3828 58.0001,108.8808 L1.9771,76.7608 C-0.6399,75.2598 -0.6629,72.8138 1.9321,71.2978 L110.9641,7.4878 C113.5671,5.9678 117.7891,5.9528 120.4121,7.4558 L176.4291,39.5718 Z" id="Fill-1" fill="#C6C6C6"></path>
                <path d="M167.8783,33.8188 C167.8783,34.0268 167.8353,34.2338 167.7753,34.4438 C167.7653,34.4648 167.7583,34.4868 167.7583,34.5108 C167.6853,34.7078 167.5833,34.8968 167.4603,35.0768 C167.4333,35.1108 167.4173,35.1398 167.3973,35.1738 C167.2633,35.3578 167.0993,35.5388 166.9083,35.7088 C166.7853,35.8238 166.6283,35.9228 166.4813,36.0308 C166.3543,36.1218 166.2453,36.2138 166.1023,36.2948 L161.3773,39.0428 L161.3573,46.9928 L166.0813,44.2488 C166.1023,44.2278 166.1293,44.2198 166.1583,44.2028 C166.2663,44.1318 166.3503,44.0588 166.4453,43.9878 C166.6003,43.8808 166.7653,43.7748 166.8853,43.6598 C166.9013,43.6508 166.9153,43.6438 166.9223,43.6268 C167.0693,43.4998 167.1963,43.3628 167.3063,43.2228 C167.3303,43.1948 167.3513,43.1538 167.3733,43.1248 C167.3973,43.0878 167.4173,43.0618 167.4333,43.0308 C167.4783,42.9708 167.5213,42.9138 167.5513,42.8578 C167.6103,42.7428 167.6713,42.6268 167.7173,42.5118 C167.7243,42.4928 167.7243,42.4788 167.7243,42.4548 C167.7373,42.4348 167.7413,42.4158 167.7483,42.3948 C167.7783,42.3148 167.8013,42.2408 167.8123,42.1678 C167.8353,42.0508 167.8493,41.9338 167.8593,41.8158 L167.8593,41.7738 L167.8593,41.7668 C167.8613,39.4568 167.8643,37.1408 167.8713,34.8368 L167.8783,33.8688 L167.8783,33.8188 Z" id="Fill-3" fill="#8FEDFF"></path>
                <path d="M66.4516,94.209 C66.0866,94.42 65.6756,94.588 65.2476,94.738 C65.0996,94.792 64.9486,94.831 64.7916,94.883 C64.5916,94.933 64.3936,94.985 64.1866,95.03 C63.9416,95.076 63.6936,95.126 63.4396,95.156 C63.3836,95.167 63.3236,95.178 63.2646,95.185 C62.9246,95.217 62.5796,95.237 62.2316,95.24 C62.1806,95.24 62.1386,95.244 62.0886,95.24 C61.7436,95.24 61.4046,95.217 61.0636,95.185 C61.0166,95.178 60.9666,95.17 60.9236,95.167 C60.5856,95.129 60.2566,95.069 59.9326,94.999 C59.8836,94.985 59.8216,94.97 59.7686,94.956 C59.4766,94.89 59.1826,94.795 58.9116,94.694 C58.8656,94.682 58.8146,94.668 58.7676,94.651 C58.4506,94.521 58.1326,94.374 57.8446,94.209 L6.8236,64.755 C5.6196,64.06 5.0196,63.15 5.0236,62.242 L5.0026,70.189 C4.9926,71.101 5.5956,72.007 6.7996,72.706 L57.8206,102.16 C58.0936,102.314 58.3926,102.455 58.7016,102.574 C58.7156,102.588 58.7356,102.592 58.7476,102.599 C58.7956,102.615 58.8456,102.626 58.8946,102.642 C59.0726,102.71 59.2466,102.773 59.4416,102.83 C59.5406,102.859 59.6416,102.88 59.7516,102.903 C59.8036,102.921 59.8596,102.929 59.9156,102.946 C59.9696,102.956 60.0206,102.974 60.0806,102.987 C60.2736,103.027 60.4776,103.062 60.6786,103.094 C60.7486,103.097 60.8216,103.107 60.8906,103.114 C60.9476,103.121 61.0006,103.124 61.0536,103.135 C61.1206,103.139 61.1976,103.15 61.2676,103.157 C61.4686,103.171 61.6706,103.185 61.8676,103.188 L62.0506,103.188 L62.2186,103.188 L62.4856,103.188 C62.7176,103.181 62.9376,103.16 63.1656,103.139 C63.1876,103.139 63.2156,103.135 63.2426,103.124 C63.2996,103.121 63.3596,103.114 63.4156,103.107 C63.5906,103.087 63.7666,103.062 63.9346,103.034 C64.0186,103.021 64.0856,102.991 64.1596,102.98 C64.3666,102.929 64.5666,102.883 64.7736,102.826 C64.8756,102.796 64.9846,102.78 65.0936,102.746 C65.1426,102.729 65.1806,102.703 65.2336,102.689 C65.6546,102.542 66.0626,102.367 66.4306,102.16 L73.7356,97.91 L73.7606,89.962 L66.4516,94.209 Z" id="Fill-5" fill="#8FEDFF"></path>
                <path d="M166.0815,31.3091 C168.4685,32.6851 168.4755,34.9191 166.1025,36.2941 L161.3775,39.0421 L73.7605,89.9621 L66.4515,94.2091 C64.0755,95.5851 60.2275,95.5851 57.8445,94.2091 L6.8235,64.7551 C4.4345,63.3721 4.4235,61.1441 6.7965,59.7671 L106.4425,1.8591 C108.8155,0.4761 112.6705,0.4761 115.0635,1.8521 L166.0815,31.3091 Z" id="Fill-7" fill="#C5F9FF"></path>
            </g>
            <g id="Group-12" transform="translate(14.000000, 45.439000)">
                <mask id="mask-2" fill="white">
                    <use xlink:href="#path-1"></use>
                </mask>
                <g id="Clip-11"></g>
                <polygon id="Fill-10" fill="url(#linearGradient-3)" mask="url(#mask-2)" points="0.101 51.519 59.76 85.962 147.377 35.042 87.723 0.601"></polygon>
            </g>
            <g id="Group-17" transform="translate(125.000000, 54.439000)">
                <path d="M21.2533,11.188 C21.8943,11.556 21.9093,12.308 20.9763,12.798 C20.3193,13.139 19.5043,13.403 18.8613,13.035 L0.3143,2.5 C-0.3287,2.132 0.4963,1.264 1.1323,0.895 C1.7573,0.53 2.7893,0.523 3.4283,0.895 L21.2533,11.188 Z" id="Fill-13" fill="#65D2E0"></path>
                <path d="M20.6947,11.6655 C21.3337,12.0345 21.3407,12.6375 20.7127,13.0015 C20.0767,13.3675 19.0387,13.3675 18.4027,13.0015 L0.5707,2.7075 C-0.0623,2.3415 -0.0623,1.7415 0.5707,1.3695 C1.2027,1.0085 2.2307,1.0015 2.8667,1.3695 L20.6947,11.6655 Z" id="Fill-15" fill="#8FEDFF"></path>
            </g>
            <g id="Group-20" transform="translate(73.000000, 80.439000)">
                <mask id="mask-5" fill="white">
                    <use xlink:href="#path-4"></use>
                </mask>
                <g id="Clip-19"></g>
                <polygon id="Fill-18" fill="url(#linearGradient-6)" mask="url(#mask-5)" points="0.76 50.962 0.736 58.91 88.356 7.993 88.377 0.042"></polygon>
            </g>
            <g id="Group-110" transform="translate(32.000000, 0.439000)">
                <path d="M9.933,114.7202 C12.081,115.9622 12.095,117.9822 9.96,119.2232 C7.816,120.4662 4.341,120.4592 2.189,119.2202 C0.034,117.9762 0.017,115.9622 2.153,114.7202 C4.295,113.4782 7.778,113.4782 9.933,114.7202" id="Fill-21" fill="#8FEDFF"></path>
                <path d="M61.185,79.6743 C72.58,86.2493 72.646,96.9173 61.326,103.4933 C50,110.0793 31.587,110.0723 20.193,103.4933 C8.802,96.9173 8.738,86.2493 20.061,79.6713 C31.378,73.0953 49.792,73.0993 61.185,79.6743" id="Fill-23" fill-opacity="0.2" fill="#000000"></path>
                <path d="M57.0444,91.3765 C57.0394,91.4095 57.0344,91.4465 57.0274,91.4865 C57.0034,91.6265 56.9574,91.7705 56.9194,91.9115 C56.8784,92.0685 56.8424,92.2235 56.7834,92.3805 C56.7054,92.6055 56.6144,92.8315 56.4994,93.0525 C56.4834,93.0935 56.4634,93.1265 56.4414,93.1675 C56.3164,93.4065 56.1704,93.6455 56.0104,93.8825 C55.9854,93.9155 55.9604,93.9495 55.9344,93.9855 C55.7814,94.2005 55.6134,94.4105 55.4314,94.6175 C55.3954,94.6555 55.3654,94.6945 55.3274,94.7365 C55.1294,94.9535 54.9114,95.1615 54.6824,95.3715 C54.5314,95.5055 54.3684,95.6355 54.2024,95.7655 C54.0644,95.8765 53.9284,95.9905 53.7774,96.1055 C53.6054,96.2285 53.4174,96.3415 53.2324,96.4665 C53.0374,96.5965 52.8494,96.7235 52.6384,96.8465 C52.3064,97.0425 51.9544,97.2215 51.6004,97.3935 C51.5064,97.4395 51.4094,97.4825 51.3154,97.5265 C50.9984,97.6745 50.6714,97.8145 50.3364,97.9415 C50.2894,97.9615 50.2444,97.9855 50.1964,98.0015 C49.8404,98.1385 49.4694,98.2635 49.0974,98.3765 C48.8314,98.4635 48.5594,98.5345 48.2884,98.6115 C48.0914,98.6615 47.8954,98.7205 47.6954,98.7725 C47.4184,98.8395 47.1374,98.8925 46.8574,98.9485 C46.6444,98.9915 46.4334,99.0435 46.2144,99.0795 C46.1354,99.0925 46.0564,99.1035 45.9744,99.1205 C45.6144,99.1765 45.2544,99.2305 44.8904,99.2715 C44.7884,99.2825 44.6884,99.2965 44.5884,99.3065 C44.3754,99.3315 44.1614,99.3405 43.9504,99.3595 C43.6114,99.3875 43.2734,99.4145 42.9304,99.4265 C42.7034,99.4375 42.4724,99.4405 42.2424,99.4505 C41.9674,99.4505 41.6924,99.4545 41.4154,99.4505 C41.1754,99.4505 40.9384,99.4405 40.7014,99.4305 C40.4434,99.4235 40.1874,99.4075 39.9344,99.3905 C39.6894,99.3735 39.4464,99.3495 39.2024,99.3315 C38.9534,99.3035 38.7074,99.2755 38.4564,99.2475 C38.2194,99.2125 37.9834,99.1835 37.7444,99.1425 C37.4804,99.1035 37.2154,99.0565 36.9504,99.0055 C36.7334,98.9655 36.5124,98.9185 36.2954,98.8755 C35.9744,98.8055 35.6574,98.7205 35.3444,98.6375 C35.1424,98.5875 34.9354,98.5345 34.7374,98.4775 C34.6244,98.4435 34.5154,98.4115 34.4064,98.3735 C34.0904,98.2755 33.7784,98.1725 33.4734,98.0565 C33.3844,98.0225 33.2914,97.9915 33.2024,97.9585 C32.9274,97.8505 32.6594,97.7305 32.3924,97.6145 C32.2594,97.5545 32.1194,97.4995 31.9864,97.4365 C31.5974,97.2525 31.2204,97.0575 30.8574,96.8465 C27.8244,95.0945 26.3094,92.7955 26.3144,90.4995 L26.3114,92.1115 C26.3044,94.4035 27.8194,96.7065 30.8524,98.4605 C31.2174,98.6715 31.5944,98.8615 31.9804,99.0465 C32.1144,99.1095 32.2604,99.1695 32.3984,99.2305 C32.6214,99.3275 32.8454,99.4305 33.0754,99.5245 C33.1164,99.5415 33.1594,99.5555 33.2024,99.5675 C33.2884,99.6055 33.3794,99.6335 33.4664,99.6685 C33.7724,99.7775 34.0834,99.8855 34.3984,99.9865 C34.5104,100.0195 34.6224,100.0575 34.7374,100.0895 C34.8044,100.1105 34.8744,100.1345 34.9464,100.1535 C35.0694,100.1905 35.2014,100.2125 35.3264,100.2475 C35.6484,100.3345 35.9694,100.4155 36.2984,100.4885 C36.3824,100.5075 36.4664,100.5315 36.5524,100.5485 C36.6824,100.5745 36.8114,100.5915 36.9404,100.6155 C37.2064,100.6685 37.4754,100.7145 37.7454,100.7565 C37.8584,100.7735 37.9654,100.7955 38.0814,100.8125 C38.1994,100.8335 38.3244,100.8395 38.4464,100.8555 C38.6984,100.8865 38.9514,100.9135 39.2054,100.9395 C39.3274,100.9535 39.4524,100.9735 39.5754,100.9805 C39.6894,100.9905 39.8094,100.9905 39.9214,100.9995 C40.1824,101.0165 40.4404,101.0305 40.7014,101.0405 C40.8334,101.0475 40.9594,101.0615 41.0914,101.0645 C41.1974,101.0665 41.3024,101.0645 41.4104,101.0645 C41.6864,101.0665 41.9654,101.0645 42.2424,101.0575 C42.3854,101.0545 42.5284,101.0645 42.6694,101.0575 C42.7534,101.0545 42.8374,101.0405 42.9234,101.0405 C43.2674,101.0235 43.6074,100.9995 43.9504,100.9705 C44.0914,100.9595 44.2354,100.9565 44.3754,100.9395 C44.4444,100.9365 44.5144,100.9255 44.5834,100.9205 C44.6824,100.9065 44.7864,100.8965 44.8864,100.8795 C45.2494,100.8365 45.6084,100.7855 45.9694,100.7285 C46.0514,100.7145 46.1304,100.7035 46.2124,100.6895 C46.2554,100.6825 46.2984,100.6755 46.3424,100.6685 C46.5174,100.6385 46.6894,100.5915 46.8594,100.5595 C47.1344,100.5015 47.4134,100.4475 47.6874,100.3805 C47.8984,100.3315 48.1044,100.2715 48.3134,100.2095 C48.5724,100.1435 48.8304,100.0765 49.0804,99.9935 C49.1384,99.9765 49.1994,99.9625 49.2564,99.9425 C49.5754,99.8395 49.8904,99.7285 50.1964,99.6115 C50.2394,99.5945 50.2774,99.5775 50.3164,99.5625 C50.6574,99.4265 50.9914,99.2865 51.3144,99.1355 C51.4084,99.0925 51.4994,99.0535 51.5904,99.0055 C51.9474,98.8325 52.2974,98.6505 52.6334,98.4605 C52.6944,98.4195 52.7584,98.3865 52.8214,98.3495 C52.9674,98.2605 53.0944,98.1625 53.2344,98.0685 C53.4174,97.9555 53.6034,97.8385 53.7694,97.7135 C53.9254,97.6005 54.0654,97.4855 54.2094,97.3655 C54.3684,97.2395 54.5274,97.1155 54.6754,96.9875 C54.7024,96.9585 54.7404,96.9305 54.7734,96.9055 C54.9714,96.7235 55.1514,96.5335 55.3224,96.3415 C55.3584,96.3085 55.3904,96.2675 55.4254,96.2315 C55.5244,96.1115 55.6314,95.9975 55.7254,95.8765 C55.7994,95.7825 55.8634,95.6905 55.9344,95.5895 C55.9564,95.5625 55.9824,95.5255 56.0064,95.4955 C56.1264,95.3185 56.2424,95.1365 56.3444,94.9575 C56.3784,94.8975 56.4054,94.8355 56.4384,94.7785 C56.4554,94.7435 56.4764,94.7015 56.4964,94.6665 C56.5924,94.4745 56.6814,94.2765 56.7534,94.0835 C56.7674,94.0495 56.7704,94.0165 56.7824,93.9855 C56.8354,93.8345 56.8734,93.6865 56.9124,93.5315 C56.9414,93.4235 56.9814,93.3245 57.0034,93.2165 C57.0104,93.1735 57.0154,93.1365 57.0234,93.0935 C57.0284,93.0555 57.0344,93.0225 57.0394,92.9885 C57.0714,92.7715 57.0984,92.5505 57.1034,92.3325 C57.1064,92.2865 57.1064,92.2405 57.1064,92.1955 L57.1114,90.5865 C57.1114,90.8505 57.0834,91.1115 57.0444,91.3765" id="Fill-25" fill="#41C0FD"></path>
                <path d="M52.561,84.2344 C58.598,87.7194 58.631,93.3634 52.638,96.8464 C46.644,100.3344 36.893,100.3344 30.857,96.8464 C24.827,93.3634 24.794,87.7194 30.79,84.2344 C36.782,80.7514 46.533,80.7514 52.561,84.2344" id="Fill-27" fill="#C5F9FF"></path>
                <g id="Group-35" transform="translate(39.000000, 65.000000)">
                    <polygon id="Fill-29" fill="#41C0FD" points="2.5873 27.1562 0.8633 26.1562 0.7963 1.2792 2.5183 2.2802"></polygon>
                    <polygon id="Fill-31" fill="#41C0FD" points="2.518 2.2798 0.796 1.2788 2.82 0.1108 4.543 1.1148"></polygon>
                    <polygon id="Fill-33" fill="#8FEDFF" points="4.5434 1.1147 4.6114 25.9907 2.5874 27.1567 2.5184 2.2797"></polygon>
                </g>
                <polygon id="Fill-36" fill="#C5F9FF" points="55.7875 34.4487 54.6395 33.7817 57.0055 32.4137 58.1545 33.0837"></polygon>
                <polygon id="Fill-38" fill="#329CD7" points="25.2074 52.1045 24.0604 51.4375 26.4254 50.0725 27.5744 50.7385"></polygon>
                <path d="M55.7045,51.8027 C55.7265,51.6377 55.7375,51.4807 55.7545,51.3147 C55.7655,51.1967 55.7765,51.0767 55.7875,50.9567 C55.8145,50.5887 55.8335,50.2237 55.8335,49.8657 L55.7875,34.4487 L54.6395,33.7817 L54.6835,49.1957 C54.6835,49.5567 54.6665,49.9217 54.6395,50.2897 C54.6295,50.4067 54.6155,50.5287 54.6045,50.6487 C54.5815,50.8827 54.5525,51.1147 54.5205,51.3507 C54.4795,51.6147 54.4335,51.8797 54.3825,52.1477 C54.3485,52.3247 54.3165,52.5057 54.2795,52.6837 C54.2395,52.8497 54.1975,53.0207 54.1545,53.1887 C54.0945,53.4257 54.0345,53.6637 53.9645,53.8977 C53.9255,54.0317 53.8855,54.1687 53.8395,54.2987 C53.7585,54.5667 53.6685,54.8357 53.5735,55.0987 C53.5355,55.2087 53.4965,55.3167 53.4605,55.4197 C53.3215,55.7837 53.1765,56.1457 53.0195,56.5037 C53.0015,56.5517 52.9775,56.5947 52.9625,56.6377 C52.8165,56.9597 52.6655,57.2797 52.5085,57.5987 C52.4625,57.6927 52.4125,57.7887 52.3675,57.8827 C52.2085,58.1917 52.0405,58.4977 51.8695,58.7997 C51.8425,58.8467 51.8155,58.8967 51.7855,58.9467 C51.5865,59.2907 51.3775,59.6337 51.1595,59.9677 C51.1005,60.0617 51.0365,60.1517 50.9755,60.2457 C50.8115,60.4907 50.6425,60.7267 50.4715,60.9647 C50.3855,61.0887 50.2985,61.2097 50.2055,61.3257 C50.0575,61.5267 49.9055,61.7157 49.7515,61.9117 C49.6305,62.0627 49.5015,62.2177 49.3785,62.3657 C49.2495,62.5137 49.1215,62.6537 48.9905,62.7977 C48.7745,63.0427 48.5585,63.2747 48.3365,63.5017 C48.1975,63.6427 48.0585,63.7827 47.9155,63.9197 C47.8055,64.0267 47.6905,64.1277 47.5795,64.2297 C47.3935,64.3977 47.2095,64.5627 47.0225,64.7197 C46.9075,64.8127 46.7965,64.9097 46.6805,65.0007 C46.4775,65.1637 46.2705,65.3177 46.0585,65.4687 C45.9605,65.5427 45.8605,65.6197 45.7605,65.6867 C45.4485,65.9007 45.1355,66.1007 44.8175,66.2857 L36.4005,71.1477 C36.0965,71.3227 35.7925,71.4717 35.4925,71.6147 C35.4125,71.6537 35.3335,71.6887 35.2585,71.7267 C34.9715,71.8537 34.6835,71.9697 34.4065,72.0677 C34.3865,72.0717 34.3725,72.0747 34.3535,72.0817 C34.1065,72.1657 33.8675,72.2257 33.6315,72.2847 C33.4925,72.3197 33.3585,72.3447 33.2235,72.3687 C33.0485,72.4017 32.8735,72.4287 32.7005,72.4527 C32.6005,72.4637 32.5005,72.4717 32.4025,72.4787 C32.1865,72.4957 31.9745,72.5027 31.7655,72.4957 C31.7195,72.4927 31.6695,72.4957 31.6245,72.4927 C31.3695,72.4787 31.1315,72.4467 30.8925,72.4017 C30.8335,72.3897 30.7745,72.3757 30.7175,72.3627 C30.5315,72.3197 30.3515,72.2647 30.1755,72.2007 C30.1155,72.1847 30.0605,72.1657 30.0065,72.1447 C29.7815,72.0577 29.5635,71.9577 29.3565,71.8367 L30.5045,72.5067 C30.5225,72.5127 30.5425,72.5237 30.5585,72.5337 C30.7205,72.6227 30.8835,72.7067 31.0565,72.7767 C31.0875,72.7907 31.1215,72.8007 31.1535,72.8117 C31.2105,72.8337 31.2655,72.8507 31.3235,72.8707 C31.4075,72.9037 31.4925,72.9377 31.5785,72.9617 C31.6735,72.9907 31.7705,73.0047 31.8665,73.0287 C31.9245,73.0427 31.9805,73.0547 32.0395,73.0687 C32.0715,73.0717 32.1045,73.0857 32.1355,73.0887 C32.3285,73.1207 32.5295,73.1487 32.7325,73.1587 L32.7725,73.1587 C32.8185,73.1657 32.8655,73.1587 32.9135,73.1587 C33.0685,73.1657 33.2265,73.1727 33.3875,73.1657 C33.4405,73.1657 33.4975,73.1527 33.5505,73.1487 C33.6475,73.1417 33.7495,73.1317 33.8505,73.1177 C33.9445,73.1097 34.0295,73.1057 34.1265,73.0927 C34.2065,73.0817 34.2925,73.0547 34.3745,73.0387 C34.5085,73.0147 34.6425,72.9847 34.7745,72.9547 C34.8495,72.9347 34.9215,72.9277 34.9965,72.9037 C35.1645,72.8577 35.3335,72.8047 35.5075,72.7477 C35.5215,72.7407 35.5355,72.7407 35.5515,72.7347 C35.7535,72.6677 35.9555,72.5907 36.1595,72.5067 C36.2415,72.4697 36.3275,72.4287 36.4095,72.3927 C36.4845,72.3557 36.5615,72.3197 36.6395,72.2847 C36.9405,72.1417 37.2425,71.9907 37.5495,71.8137 L45.9655,66.9537 C46.2845,66.7707 46.5985,66.5667 46.9115,66.3527 C47.0095,66.2857 47.1025,66.2127 47.2005,66.1417 C47.4135,65.9907 47.6245,65.8297 47.8345,65.6657 C47.9455,65.5767 48.0545,65.4857 48.1655,65.3917 C48.3555,65.2307 48.5455,65.0677 48.7305,64.8967 C48.8425,64.7977 48.9535,64.6967 49.0625,64.5887 C49.1305,64.5247 49.2055,64.4617 49.2735,64.3907 C49.3495,64.3207 49.4145,64.2367 49.4875,64.1637 C49.7085,63.9407 49.9245,63.7097 50.1395,63.4707 C50.2105,63.3907 50.2845,63.3207 50.3525,63.2397 C50.4125,63.1697 50.4665,63.0997 50.5255,63.0327 C50.6525,62.8817 50.7745,62.7307 50.9005,62.5787 C50.9835,62.4707 51.0725,62.3697 51.1585,62.2637 C51.2235,62.1727 51.2885,62.0817 51.3545,61.9957 C51.4455,61.8747 51.5355,61.7517 51.6225,61.6317 C51.6885,61.5407 51.7565,61.4567 51.8155,61.3687 C51.9185,61.2217 52.0175,61.0697 52.1205,60.9187 C52.1835,60.8237 52.2455,60.7267 52.3085,60.6347 C52.3355,60.5937 52.3625,60.5567 52.3885,60.5127 C52.5655,60.2387 52.7375,59.9577 52.9005,59.6767 C52.9085,59.6597 52.9195,59.6417 52.9285,59.6267 C52.9655,59.5597 52.9995,59.4987 53.0375,59.4317 C53.1465,59.2347 53.2585,59.0407 53.3665,58.8447 C53.4145,58.7467 53.4605,58.6527 53.5105,58.5597 C53.5595,58.4587 53.6095,58.3607 53.6575,58.2647 C53.7035,58.1777 53.7515,58.0907 53.7895,57.9997 C53.9025,57.7737 54.0095,57.5387 54.1115,57.3067 C54.1285,57.2647 54.1485,57.2167 54.1715,57.1737 C54.1735,57.1637 54.1805,57.1537 54.1845,57.1427 C54.3115,56.8477 54.4335,56.5517 54.5505,56.2577 C54.5685,56.2007 54.5865,56.1457 54.6045,56.0897 C54.6475,55.9827 54.6835,55.8717 54.7255,55.7657 C54.7775,55.6147 54.8325,55.4677 54.8825,55.3207 C54.9225,55.2047 54.9525,55.0857 54.9885,54.9717 C55.0315,54.8357 55.0745,54.6997 55.1155,54.5627 C55.1385,54.4807 55.1685,54.3967 55.1925,54.3087 C55.2335,54.1587 55.2645,54.0077 55.3005,53.8607 C55.3435,53.6907 55.3905,53.5197 55.4275,53.3477 C55.4385,53.2917 55.4585,53.2317 55.4705,53.1757 C55.4945,53.0537 55.5115,52.9337 55.5295,52.8137 C55.5845,52.5467 55.6295,52.2817 55.6655,52.0167 C55.6775,51.9467 55.6965,51.8727 55.7045,51.8027" id="Fill-40" fill="#41C0FD"></path>
                <path d="M25.2533,67.9014 L25.2073,52.1044 L24.0603,51.4384 L24.1043,67.2364 C24.1163,70.8834 25.4003,73.4504 27.4763,74.6544 L28.6253,75.3204 C26.5503,74.1164 25.2643,71.5484 25.2533,67.9014" id="Fill-42" fill="#41C0FD"></path>
                <path d="M58.1547,33.0835 L58.1997,48.8825 C58.2227,56.2195 53.0617,65.1555 46.6717,68.8455 L36.8527,74.5145 C30.4677,78.2025 25.2737,75.2445 25.2537,67.9015 L25.2077,52.1045 L27.5747,50.7385 L27.6197,66.1555 C27.6347,72.4365 32.0827,74.9695 37.5497,71.8135 L45.9657,66.9545 C51.4317,63.7965 55.8487,56.1455 55.8337,49.8655 L55.7877,34.4485 L58.1547,33.0835 Z" id="Fill-44" fill="#8FEDFF"></path>
                <g id="Group-48" transform="translate(22.000000, 0.000000)">
                    <mask id="mask-8" fill="white">
                        <use xlink:href="#path-7"></use>
                    </mask>
                    <g id="Clip-47"></g>
                    <path d="M35.1889,54.7549 C35.1889,63.7519 27.8919,71.0499 18.8929,71.0499 L16.8559,71.0499 C7.8569,71.0499 0.5619,63.7519 0.5619,54.7549 L0.5619,16.8569 C0.5619,7.8559 7.8569,0.5609 16.8559,0.5609 L18.8929,0.5609 C27.8919,0.5609 35.1889,7.8559 35.1889,16.8569 L35.1889,54.7549 Z" id="Fill-46" fill="#C5F9FF" mask="url(#mask-8)"></path>
                </g>
                <path d="M22.5619,16.8564 L22.5619,54.7544 C22.5619,62.6284 28.1419,69.1934 35.5649,70.7154 C40.6749,67.9644 44.1519,62.5714 44.1519,56.3594 L44.1519,18.4604 C44.1519,10.5894 38.5689,4.0214 31.1489,2.4984 C26.0369,5.2484 22.5619,10.6464 22.5619,16.8564" id="Fill-49" fill="#8FEDFF"></path>
                <path d="M36.1391,22.6265 C39.8711,23.1625 54.7141,25.3535 57.1891,16.3115 L57.1891,19.8855 C57.1891,19.8855 53.1351,28.0705 36.1391,25.0695 C34.8541,24.8445 34.0701,22.3315 36.1391,22.6265" id="Fill-51" fill="#5DD2E2"></path>
                <path d="M36.1391,30.7739 C39.8711,31.3109 54.7141,33.5019 57.1891,24.4599 L57.1891,28.0349 C57.1891,28.0349 53.1351,36.2179 36.1391,33.2169 C34.8541,32.9889 34.0701,30.4759 36.1391,30.7739" id="Fill-53" fill="#5DD2E2"></path>
                <path d="M36.1391,38.9233 C39.8711,39.4543 54.7141,41.6473 57.1891,32.6053 L57.1891,36.1823 C57.1891,36.1823 53.1351,44.3673 36.1391,41.3623 C34.8541,41.1383 34.0701,38.6253 36.1391,38.9233" id="Fill-55" fill="#5DD2E2"></path>
                <path d="M36.1391,47.0679 C39.8711,47.6029 54.7141,49.7959 57.1891,40.7539 L57.1891,44.3269 C57.1891,44.3269 53.1351,52.5159 36.1391,49.5109 C34.8541,49.2829 34.0701,46.7699 36.1391,47.0679" id="Fill-57" fill="#5DD2E2"></path>
                <g id="Group-61" transform="translate(30.000000, 0.000000)">
                    <mask id="mask-10" fill="white">
                        <use xlink:href="#path-9"></use>
                    </mask>
                    <g id="Clip-60"></g>
                    <path d="M18.8949,3.9429 C18.8949,5.8159 14.8569,7.3259 9.8719,7.3259 C4.8929,7.3259 0.8519,5.8159 0.8519,3.9429 C0.8519,2.0769 4.8929,0.5609 9.8719,0.5609 C14.8569,0.5609 18.8949,2.0769 18.8949,3.9429" id="Fill-59" fill="#FFFFFF" mask="url(#mask-10)"></path>
                </g>
                <polygon id="Fill-62" fill="#C5F9FF" points="27.5746 50.7388 26.4256 50.0728 24.0596 51.4378 25.2076 52.1048"></polygon>
                <path d="M35.4926,71.6152 C35.4126,71.6532 35.3336,71.6892 35.2586,71.7272 C34.9716,71.8532 34.6826,71.9702 34.4066,72.0682 C34.3866,72.0712 34.3726,72.0742 34.3536,72.0812 C34.1066,72.1652 33.8676,72.2252 33.6316,72.2852 C33.4926,72.3202 33.3586,72.3452 33.2226,72.3692 C33.0486,72.4022 32.8736,72.4292 32.7006,72.4532 C32.6006,72.4632 32.5006,72.4722 32.4026,72.4792 C32.1866,72.4962 31.9736,72.5032 31.7646,72.4962 C31.7196,72.4922 31.6696,72.4962 31.6246,72.4922 C31.3696,72.4792 31.1316,72.4462 30.8916,72.4022 C30.8336,72.3892 30.7746,72.3762 30.7176,72.3622 C30.5316,72.3202 30.3516,72.2642 30.1756,72.2012 C30.1156,72.1842 30.0606,72.1652 30.0066,72.1452 C29.9836,72.1352 29.9636,72.1202 29.9406,72.1142 C30.3156,72.4122 30.7266,72.6472 31.1766,72.8182 C31.2206,72.8332 31.2716,72.8542 31.3236,72.8712 C31.3336,72.8742 31.3426,72.8782 31.3486,72.8812 C31.5286,72.9412 31.7106,72.9942 31.8986,73.0352 C31.9456,73.0442 31.9936,73.0582 32.0396,73.0682 C32.0486,73.0682 32.0536,73.0722 32.0576,73.0722 C32.2966,73.1142 32.5416,73.1492 32.7896,73.1592 L32.9136,73.1592 L32.9526,73.1592 C33.1546,73.1692 33.3586,73.1662 33.5676,73.1492 C33.6586,73.1422 33.7546,73.1322 33.8496,73.1182 C33.8546,73.1182 33.8566,73.1182 33.8636,73.1142 C34.0356,73.0992 34.2106,73.0682 34.3856,73.0352 C34.5146,73.0112 34.6426,72.9842 34.7746,72.9552 C34.7766,72.9552 34.7836,72.9552 34.7876,72.9512 C35.0326,72.8922 35.2786,72.8282 35.5356,72.7412 C35.5376,72.7382 35.5466,72.7382 35.5516,72.7342 C35.5596,72.7342 35.5686,72.7242 35.5826,72.7242 C35.8526,72.6302 36.1306,72.5132 36.4116,72.3892 C36.4886,72.3522 36.5636,72.3202 36.6386,72.2852 C36.9406,72.1412 37.2426,71.9902 37.5496,71.8142 L39.6096,70.8802 L36.7956,70.9202 L36.4006,71.1482 C36.0966,71.3222 35.7926,71.4712 35.4926,71.6152" id="Fill-64" fill="#41C0FD"></path>
                <path d="M27.5238,74.4575 C27.4278,74.3635 27.3268,74.2795 27.2378,74.1805 C27.1198,74.0465 27.0128,73.8925 26.9038,73.7455 C26.8228,73.6335 26.7358,73.5375 26.6588,73.4195 C26.5558,73.2585 26.4678,73.0825 26.3728,72.9075 C26.3048,72.7845 26.2318,72.6705 26.1718,72.5405 C26.0848,72.3525 26.0158,72.1515 25.9408,71.9545 C25.8868,71.8175 25.8278,71.6885 25.7798,71.5455 C25.7118,71.3315 25.6638,71.1015 25.6088,70.8805 C25.5708,70.7295 25.5258,70.5925 25.4938,70.4385 C25.4438,70.1865 25.4118,69.9155 25.3778,69.6525 C25.3578,69.5085 25.3298,69.3745 25.3168,69.2205 C25.2738,68.7995 25.2528,68.3605 25.2528,67.9015 L25.2078,52.1045 L24.0598,51.4375 L24.1038,67.2365 C24.1168,70.8835 25.4008,73.4505 27.4758,74.6545 L28.6258,75.3205 C28.4828,75.2405 28.3558,75.1365 28.2238,75.0435 C28.1178,74.9695 28.0048,74.9035 27.9018,74.8185 C27.7698,74.7075 27.6488,74.5775 27.5238,74.4575" id="Fill-66" fill="#41C0FD"></path>
                <path d="M36.4115,72.3896 C36.1305,72.5136 35.8525,72.6296 35.5825,72.7236 C35.5645,72.7276 35.5495,72.7346 35.5355,72.7416 C35.2785,72.8276 35.0325,72.8916 34.7875,72.9516 C34.6515,72.9806 34.5165,73.0086 34.3855,73.0356 C34.2105,73.0686 34.0355,73.0986 33.8635,73.1146 C33.7655,73.1316 33.6655,73.1416 33.5675,73.1486 C33.3585,73.1656 33.1545,73.1696 32.9525,73.1596 C32.9005,73.1596 32.8455,73.1656 32.7895,73.1596 C32.5415,73.1486 32.2965,73.1146 32.0575,73.0716 C32.0035,73.0646 31.9505,73.0446 31.8985,73.0356 C31.7105,72.9946 31.5285,72.9416 31.3495,72.8816 C31.2925,72.8606 31.2335,72.8436 31.1765,72.8186 C30.7265,72.6466 30.3155,72.4116 29.9405,72.1136 C28.5005,70.9696 27.6245,68.9296 27.6195,66.1556 L27.5745,50.7386 L25.2075,52.1046 L25.2535,67.9016 C25.2535,68.3606 25.2735,68.7996 25.3165,69.2206 C25.3295,69.3746 25.3575,69.5086 25.3785,69.6526 C25.4115,69.9156 25.4435,70.1866 25.4935,70.4386 C25.5255,70.5926 25.5705,70.7296 25.6085,70.8806 C25.6635,71.1016 25.7115,71.3306 25.7795,71.5456 C25.8275,71.6886 25.8875,71.8176 25.9405,71.9546 C26.0155,72.1516 26.0845,72.3556 26.1725,72.5406 C26.2315,72.6706 26.3055,72.7846 26.3725,72.9076 C26.4685,73.0816 26.5565,73.2586 26.6585,73.4196 C26.7355,73.5376 26.8225,73.6336 26.9035,73.7446 C27.0135,73.8916 27.1195,74.0466 27.2375,74.1806 C27.3265,74.2796 27.4285,74.3636 27.5235,74.4576 C27.6485,74.5776 27.7695,74.7076 27.9015,74.8186 C28.0055,74.9036 28.1175,74.9696 28.2235,75.0436 C30.3515,76.5426 33.4235,76.4946 36.8525,74.5146 L43.6115,70.6116 L39.3765,70.7756 L37.5495,71.8136 C37.1635,72.0356 36.7885,72.2216 36.4115,72.3896" id="Fill-68" fill="#C5F9FF"></path>
                <path d="M90.3569,16.6406 C90.6279,15.4756 89.9899,11.7346 86.8159,14.8886 C83.6429,18.0356 79.8319,25.9566 79.8319,25.9566 L74.4789,20.9326 C74.4789,20.9326 73.9719,18.0196 72.2409,16.4076 C70.5039,14.7906 70.1539,19.1506 72.1799,21.4286 C74.2039,23.7006 78.6189,32.8946 80.9179,30.0326 C83.2179,27.1546 89.3819,20.7536 90.3569,16.6406" id="Fill-70" fill="#E8A476"></path>
                <path d="M87.5571,23.3525 C87.5571,23.3525 83.8111,23.6525 82.1731,20.3725 C82.1731,20.3725 86.8571,10.2485 90.3751,13.4065 C90.3751,13.4065 93.0461,15.2925 87.5571,23.3525" id="Fill-72" fill="#5FB9E6"></path>
                <path d="M80.5492,72.3574 C73.1242,76.6534 73.0772,83.6044 80.4592,87.8974 C87.8402,92.1874 99.8422,92.1874 107.2782,87.8974 C114.7052,83.6044 114.7482,76.6534 107.3612,72.3714 C99.9862,68.0774 87.9822,68.0774 80.5492,72.3574" id="Fill-74" fill-opacity="0.2" fill="#000000"></path>
                <path d="M86.6371,73.459 C86.4071,73.423 86.3351,73.209 85.9801,73.072 C85.9331,73.536 85.5311,74.173 85.4761,74.619 C85.4441,74.665 85.4141,74.713 85.3901,74.746 C84.1581,76.64 80.8231,78.463 81.2901,79.721 C81.6111,80.618 83.7201,81.103 84.7851,80.344 C85.0801,80.135 85.2701,79.84 85.4551,79.53 C85.7531,79.066 86.0601,78.574 86.7951,78.427 C86.9481,78.391 87.4561,78.162 87.6541,77.826 C88.6931,76.133 87.6681,75.412 88.0081,73.714 C87.5271,73.625 87.0681,73.526 86.6371,73.459" id="Fill-76" fill="#171716"></path>
                <path d="M90.0112,29.0522 C90.0112,29.0522 84.4152,40.5102 85.7912,55.6432 C85.7912,55.6432 84.9142,69.8352 84.0612,73.5612 C83.6252,75.4582 87.4652,76.1362 88.4222,74.5412 C88.4222,74.5412 89.1102,69.8132 90.2232,66.9932 C91.3272,64.1802 91.7832,60.2862 90.4462,57.5812 C90.4462,57.5812 99.4992,39.7532 96.8632,34.3772 C96.8632,34.3772 93.8602,32.9192 90.0112,29.0522" id="Fill-78" fill="#EA4BBD"></path>
                <path d="M90.9291,56.5981 C92.2691,59.3011 91.7061,63.6941 90.6001,66.5071 C89.4871,69.3251 88.4221,74.5411 88.4221,74.5411 C88.1901,74.9251 87.8931,75.1321 87.5731,75.1991 C89.3961,69.6831 89.0131,56.6961 89.0131,56.6961 C91.3741,51.3011 93.1061,37.3331 93.6711,32.2851 C95.6011,33.7531 96.8631,34.3771 96.8631,34.3771 C99.4991,39.7531 90.9291,56.5981 90.9291,56.5981" id="Fill-80" fill="#FF61CB"></path>
                <path d="M104.8324,78.5107 C104.5914,78.5097 104.4914,78.3017 104.1044,78.2227 C104.1094,78.7057 103.7484,79.4227 103.7364,79.8917 C103.7144,79.9477 103.6864,80.0027 103.6574,80.0357 C102.5654,82.1817 99.2654,84.5907 99.8874,85.8107 C100.3134,86.6807 102.5644,86.8537 103.6044,85.8997 C103.8874,85.6407 104.0554,85.3017 104.2264,84.9557 C104.4834,84.4297 104.7524,83.8767 105.4994,83.6107 C105.6584,83.5407 106.1704,83.2287 106.3424,82.8517 C107.2584,80.9367 106.1074,80.3617 106.2904,78.5627 C105.7834,78.5487 105.2844,78.5177 104.8324,78.5107" id="Fill-82" fill="#171716"></path>
                <path d="M89.6615,36.7529 C89.6615,36.7529 91.6565,50.0319 97.9595,63.3759 C97.9595,63.3759 101.3485,75.7669 102.2545,79.4999 C102.7805,81.6689 105.7855,80.0129 106.4125,79.0629 C106.4125,79.0629 105.7795,74.8639 105.8835,71.7149 C105.9945,68.5729 105.1295,64.7369 102.9745,62.8939 C102.9745,62.8939 104.1645,41.4819 99.9035,37.7859 C99.9035,37.7859 92.1945,39.3519 89.6615,36.7529" id="Fill-84" fill="#EA4BBD"></path>
                <path d="M103.017,61.9668 C105.172,63.8108 105.624,67.8668 106.183,71.2178 C106.7,74.3258 106.413,79.0628 106.413,79.0628 C106.34,79.4668 105.475,79.9448 105.206,80.1338 C105.518,74.9768 100.898,61.7598 100.898,61.7598 C101.048,54.7018 98.379,43.2478 97.11,38.2108 C98.667,38.1678 100.31,36.7528 100.31,36.7528 C104.571,40.4468 103.017,61.9668 103.017,61.9668" id="Fill-86" fill="#FF61CB"></path>
                <path d="M102.6967,18.873 C102.6967,18.873 99.7467,14.091 88.5357,12.82 C88.5357,12.82 86.7347,12.13 87.0687,17.905 C87.1157,18.736 86.2947,20.192 85.7347,20.954 C85.1657,21.728 83.6977,24.668 87.1957,28.031 C87.1957,28.031 87.9177,34.687 86.4477,38.06 C85.1247,41.079 92.4327,42.235 96.4027,41.553 C97.1687,41.421 102.5457,39.417 101.8007,36.753 C101.0567,34.092 98.7647,30.808 99.8767,25.83 C100.9917,20.855 103.6097,21.364 102.6967,18.873" id="Fill-88" fill="#77D2FF"></path>
                <path d="M102.6967,18.873 C103.6097,21.364 100.9917,20.855 99.8767,25.83 C98.7647,30.808 101.0567,34.092 101.8007,36.753 C102.5457,39.417 101.0637,40.337 99.8287,40.844 C98.8637,41.238 97.4457,41.598 96.4027,41.553 C98.4547,36.691 95.3927,28.061 95.1087,23.264 C94.8157,18.17 99.3697,16.049 99.3697,16.049 C101.8537,17.507 102.6967,18.873 102.6967,18.873" id="Fill-90" fill="#5FB9E6"></path>
                <path d="M102.4408,19.7021 C102.0108,18.5831 99.3878,15.8421 98.5248,20.2331 C97.6598,24.6171 98.9408,33.3161 98.9408,33.3161 L91.6928,32.1511 C91.6928,32.1511 89.6418,30.0241 87.3018,29.6591 C84.9608,29.2921 87.1118,33.1001 90.0658,33.8511 C93.0158,34.5991 101.8228,39.7411 102.1248,36.0811 C102.4178,32.4081 103.9388,23.6541 102.4408,19.7021" id="Fill-92" fill="#E8A476"></path>
                <path d="M103.8822,26.8286 C103.8822,26.8286 100.9452,29.1776 97.7522,27.3786 C97.7522,27.3786 95.9602,16.3666 100.6442,17.0106 C100.6442,17.0106 103.9122,17.0776 103.8822,26.8286" id="Fill-94" fill="#77D2FF"></path>
                <path d="M90.269,3.8022 C90.269,3.8022 91.167,9.5602 91.676,15.0462 C91.749,15.8392 90.946,17.2542 89.467,16.9202 C89.467,16.9202 85.101,10.5212 88.249,3.9492 C89.253,1.8652 92.987,-1.1348 97.43,1.7572 L90.269,3.8022 Z" id="Fill-96" fill="#301806"></path>
                <path d="M89.3061,11.4033 C89.3061,11.4033 91.3741,13.6763 90.5231,16.2223 C90.2931,16.9163 89.7531,19.7743 94.0041,18.4723 C94.0041,18.4723 98.4021,16.0713 97.0141,14.7683 C96.0971,13.8983 95.1861,12.6273 96.3461,7.9733 L89.3061,11.4033 Z" id="Fill-98" fill="#E8A476"></path>
                <path d="M97.0141,14.7681 C97.1601,14.9091 97.2411,15.0511 97.2541,15.2081 C93.1801,16.1661 90.2691,13.3701 90.2691,13.3701 L95.4331,8.4861 C95.4331,8.4861 95.7101,8.6521 96.1241,8.9491 C95.3231,12.8131 96.1601,13.9651 97.0141,14.7681" id="Fill-100" fill="#DB9669"></path>
                <path d="M89.7533,3.2026 C89.7533,3.2026 88.6103,3.6406 88.6813,7.0676 C88.6913,7.4426 88.1003,7.9656 87.9673,8.9106 C87.8403,9.8716 87.7563,13.6886 89.9823,14.0206 C91.5833,14.2626 95.5173,13.1246 96.7123,9.2366 C97.9133,5.3526 94.4753,0.5066 89.7533,3.2026" id="Fill-102" fill="#F1B287"></path>
                <path d="M90.0141,4.5786 C90.0141,4.5786 99.9441,7.8676 92.9581,20.7466 C92.9581,20.7466 98.0931,21.0846 100.2431,16.6066 C101.2731,14.4536 100.7071,10.1856 100.2641,6.1136 C100.2641,6.1136 98.9291,-0.1314 93.7051,0.9706 C93.7051,0.9706 90.2691,2.4066 90.0141,4.5786" id="Fill-104" fill="#231202"></path>
                <path d="M90.0141,4.5786 C90.0141,4.5786 88.2841,4.3006 87.5431,7.4896 C87.5431,7.4896 87.5491,-1.4504 96.0871,0.9916 C96.0871,0.9916 91.0561,1.3906 90.0141,4.5786" id="Fill-106" fill="#301806"></path>
                <path d="M94.7748,9.9507 C94.7748,9.9507 95.3228,8.0407 96.4348,8.5837 C96.7828,8.7517 97.1698,9.1417 96.6818,10.1287 C96.1878,11.1187 95.1358,12.0407 94.2748,11.9637 L94.7748,9.9507 Z" id="Fill-108" fill="#F1B287"></path>
            </g>
        </g>
    </g>
</svg>